<svg xmlns="http://www.w3.org/2000/svg" width="247" height="52.775" viewBox="0 0 247 52.775">
  <g id="img-logo-coorganizer-1" transform="translate(0 -0.225)">
    <path id="Path_5" data-name="Path 5" d="M217,15" fill="#191455" fill-rule="evenodd"/>
    <g id="Group_27" data-name="Group 27" transform="translate(216)">
      <path id="Path_6" data-name="Path 6" d="M14.419,2.26a12.2,12.2,0,1,0,12.2,12.2,12.213,12.213,0,0,0-12.2-12.2m0,26.435A14.235,14.235,0,1,1,28.653,14.46,14.25,14.25,0,0,1,14.419,28.695" fill="#fff" fill-rule="evenodd"/>
    </g>
    <path id="Path_7" data-name="Path 7" d="M219,45.97A6.033,6.033,0,0,1,213,52" fill="#191455" fill-rule="evenodd"/>
    <path id="Path_8" data-name="Path 8" d="M213,3.05a4.988,4.988,0,0,0-4.964,5v37.9a4.964,4.964,0,1,0,9.928,0V8.05a4.988,4.988,0,0,0-4.964-5M213,53a7.033,7.033,0,0,1-7-7.05V8.05a7,7,0,1,1,14,0v37.9A7.033,7.033,0,0,1,213,53" fill="#fff" fill-rule="evenodd"/>
    <path id="Path_9" data-name="Path 9" d="M199.317,12.9" fill="#191455" fill-rule="evenodd"/>
    <path id="Path_10" data-name="Path 10" d="M213.076,3.057a4.789,4.789,0,0,0-1.583.27l-8.162,2.855a4.907,4.907,0,0,0-2.81,2.541,5.077,5.077,0,0,0-.243,3.827,4.941,4.941,0,0,0,2.485,2.874,4.777,4.777,0,0,0,3.744.247l8.162-2.854a4.9,4.9,0,0,0,2.81-2.54,5.077,5.077,0,0,0,.243-3.828,4.923,4.923,0,0,0-4.646-3.392M204.926,18a6.8,6.8,0,0,1-3.049-.73,6.974,6.974,0,0,1-3.5-4.053,7.119,7.119,0,0,1,4.306-8.981l8.162-2.855a6.894,6.894,0,0,1,8.786,4.4,7.118,7.118,0,0,1-4.306,8.98l-8.163,2.855a6.737,6.737,0,0,1-2.232.382" fill="#fff" fill-rule="evenodd"/>
    <path id="Path_11" data-name="Path 11" d="M213.054,3.061l-.353.01q-.088,0-.175.013l-.08.008q-.085.009-.169.023l-.053.007q-.226.038-.448.094a5.029,5.029,0,0,0-3.74,4.87v7.03l6.573-2.277a5.021,5.021,0,0,0,3.354-4.819l0-.15,1.014-.112-1.016.056,1.015-.086-1.016.06q-.006-.094-.015-.188l1.007-.16-1.012.107q-.011-.1-.027-.209l0-.03q-.014-.087-.03-.174l-.012-.058A5.066,5.066,0,0,0,215.581,3.8a4.985,4.985,0,0,0-2.208-.723l-.319-.015ZM206,18V8.086a7.082,7.082,0,0,1,5.239-6.859c.13-.033.228-.056.326-.078l.07-.013c.08-.017.173-.034.266-.049l.08-.012c.08-.013.17-.023.258-.034h0l.1-.01.246-.02.117,0c.072,0,.144,0,.216,0h.16l.43.019a7.046,7.046,0,0,1,3.136,1.021,7.14,7.14,0,0,1,3.186,4.482l.03.141c.022.11.041.22.058.332l.005.03c.016.1.028.2.039.308l.007.064c.009.09.015.18.02.27v.01l-1.016.051L219.99,7.7l0,.086c0,.058,0,.131.006.2a7.083,7.083,0,0,1-4.731,6.8Z" fill="#fff" fill-rule="evenodd"/>
    <path id="Path_12" data-name="Path 12" d="M230.5,21" fill="#191455" fill-rule="evenodd"/>
    <path id="Path_13" data-name="Path 13" d="M230.5,22.045A14.455,14.455,0,1,0,244.955,36.5,14.472,14.472,0,0,0,230.5,22.045M230.5,53A16.5,16.5,0,1,1,247,36.5,16.519,16.519,0,0,1,230.5,53" fill="#fff" fill-rule="evenodd"/>
    <path id="Path_14" data-name="Path 14" d="M230.5,21" fill="#191455" fill-rule="evenodd"/>
    <path id="Path_15" data-name="Path 15" d="M222.177,24.246a12.509,12.509,0,0,0,15.646,0,14.781,14.781,0,0,0-15.646,0M230,29a14.4,14.4,0,0,1-10.181-4.149L219,24.044l.922-.694a16.834,16.834,0,0,1,20.156,0l.922.694-.82.807A14.392,14.392,0,0,1,230,29M10.554,5.778H0V4H23V5.778H12.567V50H10.554" fill="#fff" fill-rule="evenodd"/>
    <path id="Path_16" data-name="Path 16" d="M75,50h2V4H75Zm33.646,1h-.686a22.831,22.831,0,0,1-11.98-3.34,24.651,24.651,0,0,1-8.767-8.876A23.092,23.092,0,0,1,84,27a22.941,22.941,0,0,1,7.175-16.918A23.573,23.573,0,0,1,108.334,3,24.922,24.922,0,0,1,121,6.464V8.753a22.208,22.208,0,0,0-12.666-3.959A21.482,21.482,0,0,0,92.611,11.32a21.3,21.3,0,0,0-6.553,15.65,21.405,21.405,0,0,0,6.553,15.68,21.433,21.433,0,0,0,15.723,6.556A22.208,22.208,0,0,0,121,45.247v2.29A23.278,23.278,0,0,1,108.646,51M162.952,4H165V50h-2.048V32.459h-31.9V50H129V4h2.048V30.68h31.9ZM175,50h2V4h-2ZM44.97,3,22,50h1.9L44.785,7.223,65.851,50H68Z" fill="#fff" fill-rule="evenodd"/>
  </g>
</svg>
