<?xml version="1.0" encoding="utf-8"?>
<!-- Generator: Adobe Illustrator 23.0.0, SVG Export Plug-In . SVG Version: 6.00 Build 0)  -->
<svg version="1.1" xmlns="http://www.w3.org/2000/svg" xmlns:xlink="http://www.w3.org/1999/xlink" x="0px" y="0px"
	 viewBox="0 0 239.63 91.97" style="enable-background:new 0 0 239.63 91.97;" xml:space="preserve">
<style type="text/css">
	.st0{clip-path:url(#SVGID_2_);}
	.st1{fill:#153660;}
	.st2{opacity:0.8;}
	.st3{fill:url(#SVGID_3_);}
	.st4{fill:url(#SVGID_4_);}
	.st5{fill:url(#SVGID_5_);}
	.st6{fill:url(#SVGID_6_);}
	.st7{fill:url(#SVGID_7_);}
	.st8{fill:url(#SVGID_8_);}
	.st9{fill:url(#SVGID_9_);}
	.st10{fill:url(#SVGID_10_);}
	.st11{fill:url(#SVGID_11_);}
	.st12{fill:url(#SVGID_12_);}
	.st13{fill:url(#SVGID_13_);}
	.st14{fill:url(#SVGID_14_);}
	.st15{fill:url(#SVGID_15_);}
	.st16{fill:url(#SVGID_16_);}
	.st17{fill:url(#SVGID_17_);}
	.st18{fill:none;}
	.st19{fill:#E83632;}
	.st20{fill:url(#SVGID_18_);}
	.st21{fill:url(#SVGID_19_);}
	.st22{fill:url(#SVGID_20_);}
	.st23{fill:url(#SVGID_21_);}
	.st24{fill:url(#SVGID_22_);}
	.st25{fill:url(#SVGID_23_);}
	.st26{fill:url(#SVGID_24_);}
	.st27{fill:url(#SVGID_25_);}
	.st28{fill:url(#SVGID_26_);}
	.st29{fill:url(#SVGID_27_);}
	.st30{fill:url(#SVGID_28_);}
	.st31{fill:url(#SVGID_29_);}
	.st32{fill:url(#SVGID_30_);}
	.st33{fill:url(#SVGID_31_);}
	.st34{fill:url(#SVGID_32_);}
	.st35{fill:url(#SVGID_33_);}
	.st36{fill:url(#SVGID_34_);}
	.st37{fill:#69B1E2;}
	.st38{fill:#D03076;}
	.st39{fill:#D03277;}
	.st40{fill:#CF3377;}
	.st41{fill:#CF3578;}
	.st42{fill:#CF3678;}
	.st43{fill:#CE3779;}
	.st44{fill:#CE387A;}
	.st45{fill:#CE3A7A;}
	.st46{fill:#CD3B7B;}
	.st47{fill:#CD3C7B;}
	.st48{fill:#CD3D7C;}
	.st49{fill:#CD3F7C;}
	.st50{fill:#CC407D;}
	.st51{fill:#CC417D;}
	.st52{fill:#CC427E;}
	.st53{fill:#CB437E;}
	.st54{fill:#CB447F;}
	.st55{fill:#CB457F;}
	.st56{fill:#CA4680;}
	.st57{fill:#CA4780;}
	.st58{fill:#CA4981;}
	.st59{fill:#C94A82;}
	.st60{fill:#C94B82;}
	.st61{fill:#C94C83;}
	.st62{fill:#C84D84;}
	.st63{fill:#C84E84;}
	.st64{fill:#C84F85;}
	.st65{fill:#C75085;}
	.st66{fill:#C75186;}
	.st67{fill:#C75286;}
	.st68{fill:#C65387;}
	.st69{fill:#C65487;}
	.st70{fill:#C55588;}
	.st71{fill:#C55688;}
	.st72{fill:#C55789;}
	.st73{fill:#C4578A;}
	.st74{fill:#C4588A;}
	.st75{fill:#C4598B;}
	.st76{fill:#C35A8B;}
	.st77{fill:#C35B8C;}
	.st78{fill:#C35C8C;}
	.st79{fill:#C25D8D;}
	.st80{fill:#C25E8E;}
	.st81{fill:#C15F8F;}
	.st82{fill:#C1608F;}
	.st83{fill:#C16190;}
	.st84{fill:#C06290;}
	.st85{fill:#C06291;}
	.st86{fill:#C06392;}
	.st87{fill:#BF6492;}
	.st88{fill:#BF6593;}
	.st89{fill:#BF6693;}
	.st90{fill:#BE6694;}
	.st91{fill:#BE6794;}
	.st92{fill:#BE6895;}
	.st93{fill:#BD6996;}
	.st94{fill:#BD6A96;}
	.st95{fill:#BC6A97;}
	.st96{fill:#BC6B97;}
	.st97{fill:#BC6C98;}
	.st98{fill:#BB6D98;}
	.st99{fill:#BB6D99;}
	.st100{fill:#BA6E9A;}
	.st101{fill:#BA6F9A;}
	.st102{fill:#BA709B;}
	.st103{fill:#B9709B;}
	.st104{fill:#B9719C;}
	.st105{fill:#B9729D;}
	.st106{fill:#B8729D;}
	.st107{fill:#B8739E;}
	.st108{fill:#B7749E;}
	.st109{fill:#B7759F;}
	.st110{fill:#B775A0;}
	.st111{fill:#B676A0;}
	.st112{fill:#B677A1;}
	.st113{fill:#B577A1;}
	.st114{fill:#B578A2;}
	.st115{fill:#B579A3;}
	.st116{fill:#B47AA3;}
	.st117{fill:#B47AA4;}
	.st118{fill:#B37BA4;}
	.st119{fill:#B37CA5;}
	.st120{fill:#B37CA6;}
	.st121{fill:#B27DA6;}
	.st122{fill:#B27EA7;}
	.st123{fill:#B17EA7;}
	.st124{fill:#B17FA8;}
	.st125{fill:#B080A9;}
	.st126{fill:#AF81AA;}
	.st127{fill:#AE82AB;}
	.st128{fill:#AE83AC;}
	.st129{fill:#AD84AD;}
	.st130{fill:#AD85AD;}
	.st131{fill:#AC85AE;}
	.st132{fill:#AC86AF;}
	.st133{fill:#AB86AF;}
	.st134{fill:#AB87B0;}
	.st135{fill:#AA88B0;}
	.st136{fill:#AA88B1;}
	.st137{fill:#A989B2;}
	.st138{fill:#A88AB3;}
	.st139{fill:#A88BB3;}
	.st140{fill:#A78BB4;}
	.st141{fill:#A78CB4;}
	.st142{fill:#A68CB5;}
	.st143{fill:#A68DB6;}
	.st144{fill:#A58EB6;}
	.st145{fill:#A58EB7;}
	.st146{fill:#A48FB7;}
	.st147{fill:#A48FB8;}
	.st148{fill:#A390B9;}
	.st149{fill:#A291BA;}
	.st150{fill:#A191BA;}
	.st151{fill:#A192BB;}
	.st152{fill:#A093BC;}
	.st153{fill:#9F94BD;}
	.st154{fill:#9E95BE;}
	.st155{fill:#9D95BF;}
	.st156{fill:#9D96BF;}
	.st157{fill:#9C96C0;}
	.st158{fill:#9C97C0;}
	.st159{fill:#9B97C1;}
	.st160{fill:#9A98C1;}
	.st161{fill:#9A98C2;}
	.st162{fill:#9999C3;}
	.st163{fill:#989AC4;}
	.st164{fill:#979AC4;}
	.st165{fill:#979BC5;}
	.st166{fill:#969BC6;}
	.st167{fill:#959CC6;}
	.st168{fill:#959CC7;}
	.st169{fill:#949DC7;}
	.st170{fill:#939DC8;}
	.st171{fill:#939EC8;}
	.st172{fill:#929EC9;}
	.st173{fill:#919FCA;}
	.st174{fill:#90A0CB;}
	.st175{fill:#8FA0CB;}
	.st176{fill:#8EA1CC;}
	.st177{fill:#8DA2CD;}
	.st178{fill:#8CA2CE;}
	.st179{fill:#8BA2CE;}
	.st180{fill:#8BA3CF;}
	.st181{fill:#8AA3CF;}
	.st182{fill:#89A4D0;}
	.st183{fill:#88A4D0;}
	.st184{fill:#88A5D1;}
	.st185{fill:#87A5D2;}
	.st186{fill:#86A5D2;}
	.st187{fill:#85A6D3;}
	.st188{fill:#84A6D3;}
	.st189{fill:#84A7D4;}
	.st190{fill:#83A7D4;}
	.st191{fill:#82A7D5;}
	.st192{fill:#81A8D5;}
	.st193{fill:#80A8D6;}
	.st194{fill:#7FA9D7;}
	.st195{fill:#7EA9D8;}
	.st196{fill:#7DAAD8;}
	.st197{fill:#7CAAD9;}
	.st198{fill:#7BABD9;}
	.st199{fill:#7AABDA;}
	.st200{fill:#79ABDA;}
	.st201{fill:#78ACDB;}
	.st202{fill:#77ACDB;}
	.st203{fill:#76ACDC;}
	.st204{fill:#75ADDC;}
	.st205{fill:#74ADDD;}
	.st206{fill:#73ADDE;}
	.st207{fill:#72AEDE;}
	.st208{fill:#71AEDF;}
	.st209{fill:#70AFDF;}
	.st210{fill:#6FAFE0;}
	.st211{fill:#6EAFE0;}
	.st212{fill:#6DB0E0;}
	.st213{fill:#6CB0E1;}
	.st214{fill:#6BB0E1;}
	.st215{fill:#6AB1E2;}
	.st216{fill:url(#SVGID_35_);}
	.st217{fill:url(#SVGID_36_);}
	.st218{fill:url(#SVGID_37_);}
	.st219{fill:url(#SVGID_38_);}
	.st220{fill:url(#SVGID_39_);}
	.st221{fill:url(#SVGID_40_);}
	.st222{fill:url(#SVGID_41_);}
	.st223{fill:url(#SVGID_42_);}
	.st224{fill:url(#SVGID_43_);}
	.st225{fill:url(#SVGID_44_);}
	.st226{fill:url(#SVGID_45_);}
	.st227{fill:url(#SVGID_46_);}
	.st228{fill:url(#SVGID_47_);}
	.st229{fill:url(#SVGID_48_);}
	.st230{fill:#F4F4F4;}
	.st231{clip-path:url(#SVGID_2_);fill:#69B1E2;}
	.st232{fill:url(#SVGID_49_);}
	.st233{fill:url(#SVGID_50_);}
	.st234{fill:url(#SVGID_51_);}
	.st235{fill:url(#SVGID_52_);}
	.st236{fill:url(#SVGID_53_);}
	.st237{fill:url(#SVGID_54_);}
	.st238{fill:url(#SVGID_55_);}
	.st239{fill:url(#SVGID_56_);}
	.st240{fill:url(#SVGID_57_);}
	.st241{fill:url(#SVGID_58_);}
	.st242{fill:url(#SVGID_59_);}
	.st243{fill:url(#SVGID_60_);}
	.st244{fill:url(#SVGID_61_);}
	.st245{fill:url(#SVGID_62_);}
	.st246{fill:url(#SVGID_63_);}
	.st247{fill:url(#SVGID_64_);}
	.st248{fill:url(#SVGID_65_);}
	.st249{fill:url(#SVGID_66_);}
	.st250{fill:url(#SVGID_67_);}
	.st251{fill:url(#SVGID_68_);}
	.st252{fill:url(#SVGID_69_);}
	.st253{fill:url(#SVGID_70_);}
	.st254{fill:url(#SVGID_71_);}
	.st255{fill:url(#SVGID_72_);}
	.st256{fill:url(#SVGID_73_);}
	.st257{fill:url(#SVGID_74_);}
	.st258{fill:url(#SVGID_75_);}
	.st259{fill:url(#SVGID_76_);}
	.st260{fill:url(#SVGID_77_);}
	.st261{fill:url(#SVGID_78_);}
	.st262{fill:url(#SVGID_79_);}
	.st263{fill:url(#SVGID_80_);}
	.st264{fill:url(#SVGID_81_);}
	.st265{fill:url(#SVGID_82_);}
	.st266{fill:url(#SVGID_83_);}
	.st267{fill:url(#SVGID_84_);}
	.st268{fill:url(#SVGID_85_);}
	.st269{fill:url(#SVGID_86_);}
	.st270{fill:url(#SVGID_87_);}
	.st271{fill:url(#SVGID_88_);}
	.st272{fill:url(#SVGID_89_);}
	.st273{fill:url(#SVGID_90_);}
	.st274{fill:url(#SVGID_91_);}
	.st275{fill:url(#SVGID_92_);}
	.st276{fill:url(#SVGID_93_);}
	.st277{fill:url(#SVGID_94_);}
	.st278{fill:url(#SVGID_95_);}
	.st279{fill:url(#SVGID_96_);}
	.st280{fill:url(#SVGID_97_);}
	.st281{fill:url(#SVGID_98_);}
	.st282{fill:url(#SVGID_99_);}
	.st283{fill:url(#SVGID_100_);}
	.st284{fill:url(#SVGID_101_);}
	.st285{fill:url(#SVGID_102_);}
	.st286{fill:url(#SVGID_103_);}
	.st287{fill:url(#SVGID_104_);}
	.st288{fill:url(#SVGID_105_);}
	.st289{fill:url(#SVGID_106_);}
	.st290{fill:url(#SVGID_107_);}
	.st291{fill:url(#SVGID_108_);}
	.st292{fill:url(#SVGID_109_);}
	.st293{fill:url(#SVGID_110_);}
	.st294{fill:url(#SVGID_111_);}
	.st295{fill:url(#SVGID_112_);}
	.st296{fill:url(#SVGID_113_);}
	.st297{fill:url(#SVGID_114_);}
	.st298{fill:url(#SVGID_115_);}
	.st299{fill:url(#SVGID_116_);}
	.st300{fill:url(#SVGID_117_);}
	.st301{fill:url(#SVGID_118_);}
	.st302{fill:url(#SVGID_119_);}
	.st303{fill:url(#SVGID_120_);}
	.st304{fill:url(#SVGID_121_);}
	.st305{fill:url(#SVGID_122_);}
	.st306{fill:url(#SVGID_123_);}
	.st307{fill:url(#SVGID_124_);}
	.st308{fill:url(#SVGID_125_);}
	.st309{fill:url(#SVGID_126_);}
	.st310{fill:url(#SVGID_127_);}
	.st311{fill:url(#SVGID_128_);}
	.st312{fill:url(#SVGID_129_);}
	.st313{fill:url(#SVGID_130_);}
	.st314{fill:url(#SVGID_131_);}
	.st315{fill:url(#SVGID_132_);}
	.st316{fill:url(#SVGID_133_);}
	.st317{fill:url(#SVGID_134_);}
	.st318{fill:url(#SVGID_135_);}
	.st319{fill:url(#SVGID_136_);}
	.st320{fill:url(#SVGID_137_);}
	.st321{fill:url(#SVGID_138_);}
	.st322{fill:url(#SVGID_139_);}
	.st323{fill:url(#SVGID_140_);}
	.st324{fill:url(#SVGID_141_);}
	.st325{fill:#040000;}
	.st326{fill:url(#SVGID_142_);}
	.st327{fill:url(#SVGID_143_);}
	.st328{fill:url(#SVGID_144_);}
	.st329{fill:url(#SVGID_145_);}
	.st330{fill:url(#SVGID_146_);}
	.st331{fill:url(#SVGID_147_);}
	.st332{fill:url(#SVGID_148_);}
	.st333{fill:url(#SVGID_149_);}
	.st334{fill:url(#SVGID_150_);}
	.st335{fill:url(#SVGID_151_);}
	.st336{fill:url(#SVGID_152_);}
	.st337{fill:url(#SVGID_153_);}
	.st338{fill:url(#SVGID_154_);}
	.st339{fill:url(#SVGID_155_);}
	.st340{fill:#C23370;}
	.st341{fill:#69A8D5;}
	.st342{fill:#FFFFFF;}
	.st343{fill:url(#SVGID_156_);}
	.st344{fill:url(#SVGID_157_);}
	.st345{fill:url(#SVGID_158_);}
	.st346{fill:url(#SVGID_159_);}
	.st347{fill:url(#SVGID_160_);}
	.st348{fill:url(#SVGID_161_);}
	.st349{fill:url(#SVGID_162_);}
	.st350{fill:url(#SVGID_163_);}
	.st351{fill:url(#SVGID_164_);}
	.st352{fill:url(#SVGID_165_);}
	.st353{fill:url(#SVGID_166_);}
	.st354{fill:url(#SVGID_167_);}
	.st355{fill:url(#SVGID_168_);}
	.st356{fill:url(#SVGID_169_);}
	.st357{fill:url(#SVGID_170_);}
	.st358{fill:url(#SVGID_171_);}
	.st359{fill:url(#SVGID_172_);}
	.st360{fill:url(#SVGID_173_);}
	.st361{fill:url(#SVGID_174_);}
	.st362{fill:url(#SVGID_175_);}
	.st363{fill:url(#SVGID_176_);}
	.st364{fill:url(#SVGID_177_);}
	.st365{fill:url(#SVGID_178_);}
	.st366{fill:url(#SVGID_179_);}
	.st367{fill:url(#SVGID_180_);}
	.st368{fill:url(#SVGID_181_);}
	.st369{fill:url(#SVGID_182_);}
	.st370{fill:url(#SVGID_183_);}
	.st371{fill:url(#SVGID_184_);}
	.st372{fill:url(#SVGID_185_);}
	.st373{fill:url(#SVGID_186_);}
	.st374{fill:url(#SVGID_187_);}
	.st375{fill:url(#SVGID_188_);}
	.st376{fill:url(#SVGID_189_);}
	.st377{fill:url(#SVGID_190_);}
	.st378{fill:url(#SVGID_191_);}
	.st379{fill:url(#SVGID_192_);}
	.st380{fill:url(#SVGID_193_);}
	.st381{fill:url(#SVGID_194_);}
	.st382{fill:url(#SVGID_195_);}
	.st383{fill:url(#SVGID_196_);}
	.st384{fill:url(#SVGID_197_);}
	.st385{fill:url(#SVGID_198_);}
	.st386{fill:url(#SVGID_199_);}
</style>
<g id="圖層_1">
</g>
<g id="圖層_2">
</g>
<g id="圖層_3">
	<g id="圖層_4">
	</g>
	<g id="圖層_5">
	</g>
	<g>
		<g>
			<path class="st342" d="M25.27,26.14h-6.02l-1.3,4.77h-3.76l5.94-18.56h4.36l5.97,18.56h-3.89L25.27,26.14z M24.47,23.26
				l-0.55-2.03c-0.58-1.93-1.08-4.06-1.63-6.07h-0.1c-0.48,2.03-1.03,4.14-1.58,6.07l-0.55,2.03H24.47z"/>
			<path class="st342" d="M34.62,25.64v-8.78h3.69v8.3c0,2.18,0.6,2.93,1.95,2.93c1.15,0,1.91-0.5,2.86-1.76v-9.48h3.69v14.05H43.8
				l-0.28-2.01h-0.1c-1.2,1.43-2.56,2.36-4.49,2.36C35.92,31.26,34.62,29.15,34.62,25.64z"/>
			<path class="st342" d="M52.32,33.39c0-1.18,0.73-2.18,2.01-2.91v-0.13c-0.73-0.48-1.28-1.2-1.28-2.36c0-1.05,0.73-2.03,1.56-2.63
				v-0.1c-0.95-0.7-1.86-2.03-1.86-3.66c0-3.31,2.68-5.09,5.67-5.09c0.78,0,1.53,0.15,2.11,0.35h5.07v2.71h-2.41
				c0.38,0.48,0.65,1.25,0.65,2.13c0,3.16-2.41,4.77-5.42,4.77c-0.55,0-1.2-0.13-1.81-0.33c-0.4,0.33-0.6,0.65-0.6,1.2
				c0,0.75,0.55,1.15,2.21,1.15h2.38c3.39,0,5.22,1.05,5.22,3.51c0,2.83-2.93,4.99-7.62,4.99C54.88,37,52.32,35.87,52.32,33.39z
				 M62.3,32.64c0-1-0.83-1.25-2.33-1.25h-1.7c-0.85,0-1.45-0.08-1.96-0.2c-0.63,0.5-0.93,1.05-0.93,1.63c0,1.18,1.3,1.86,3.36,1.86
				C60.84,34.67,62.3,33.74,62.3,32.64z M60.59,21.6c0-1.65-0.93-2.58-2.18-2.58c-1.25,0-2.21,0.93-2.21,2.58
				c0,1.66,0.98,2.58,2.21,2.58C59.64,24.18,60.59,23.26,60.59,21.6z"/>
			<path class="st342" d="M78.03,21.55c0-6.42,2.51-9.56,6.3-9.56c3.76,0,6.27,3.16,6.27,9.56c0,6.39-2.51,9.71-6.27,9.71
				C80.54,31.26,78.03,27.95,78.03,21.55z M87.11,21.55c0-5.19-1.2-6.7-2.79-6.7c-1.61,0-2.81,1.51-2.81,6.7
				c0,5.22,1.2,6.82,2.81,6.82C85.91,28.37,87.11,26.77,87.11,21.55z"/>
			<path class="st342" d="M108.27,26.09h-2.21v4.82h-3.44v-4.82h-7.9v-2.51l6.92-11.24h4.42v10.93h2.21V26.09z M102.63,23.28v-3.79
				c0-1.08,0.1-2.76,0.15-3.84h-0.1c-0.45,0.98-0.95,2.01-1.48,3.01l-2.89,4.61H102.63z"/>
		</g>
		<g>
			<path class="st342" d="M25.27,69.12h-6.02l-1.3,4.77h-3.76l5.94-18.56h4.36l5.97,18.56h-3.89L25.27,69.12z M24.47,66.23
				l-0.55-2.03c-0.58-1.93-1.08-4.06-1.63-6.07h-0.1c-0.48,2.03-1.03,4.14-1.58,6.07l-0.55,2.03H24.47z"/>
			<path class="st342" d="M34.62,68.61v-8.78h3.69v8.3c0,2.18,0.6,2.93,1.95,2.93c1.15,0,1.91-0.5,2.86-1.76v-9.48h3.69v14.05H43.8
				l-0.28-2.01h-0.1c-1.2,1.43-2.56,2.36-4.49,2.36C35.92,74.23,34.62,72.12,34.62,68.61z"/>
			<path class="st342" d="M52.32,76.36c0-1.18,0.73-2.18,2.01-2.91v-0.13c-0.73-0.48-1.28-1.2-1.28-2.36c0-1.05,0.73-2.03,1.56-2.63
				v-0.1c-0.95-0.7-1.86-2.03-1.86-3.66c0-3.31,2.68-5.09,5.67-5.09c0.78,0,1.53,0.15,2.11,0.35h5.07v2.71h-2.41
				c0.38,0.48,0.65,1.25,0.65,2.13c0,3.16-2.41,4.77-5.42,4.77c-0.55,0-1.2-0.13-1.81-0.33c-0.4,0.33-0.6,0.65-0.6,1.2
				c0,0.75,0.55,1.15,2.21,1.15h2.38c3.39,0,5.22,1.05,5.22,3.51c0,2.83-2.93,4.99-7.62,4.99C54.88,79.98,52.32,78.85,52.32,76.36z
				 M62.3,75.61c0-1-0.83-1.25-2.33-1.25h-1.7c-0.85,0-1.45-0.08-1.96-0.2c-0.63,0.5-0.93,1.05-0.93,1.63c0,1.18,1.3,1.86,3.36,1.86
				C60.84,77.64,62.3,76.71,62.3,75.61z M60.59,64.57c0-1.65-0.93-2.58-2.18-2.58c-1.25,0-2.21,0.93-2.21,2.58
				c0,1.66,0.98,2.58,2.21,2.58C59.64,67.16,60.59,66.23,60.59,64.57z"/>
			<path class="st342" d="M78.01,71.75c5.04-4.51,8.03-8,8.03-10.86c0-1.88-1.03-3.01-2.78-3.01c-1.36,0-2.48,0.88-3.41,1.91
				l-2.01-2.01c1.71-1.8,3.36-2.81,5.89-2.81c3.51,0,5.84,2.26,5.84,5.72c0,3.36-2.78,6.97-6.17,10.28c0.93-0.1,2.16-0.2,3.01-0.2
				h4.04v3.11H78.01V71.75z"/>
			<path class="st342" d="M96.26,70.9h3.99V59.16h-3.36v-2.28c1.86-0.35,3.14-0.83,4.31-1.55h2.73V70.9h3.49v2.98H96.26V70.9z"/>
			<path class="st342" d="M112.7,65.38h6.85v2.64h-6.85V65.38z"/>
			<path class="st342" d="M142.44,69.12h-6.02l-1.3,4.77h-3.76l5.94-18.56h4.36l5.97,18.56h-3.89L142.44,69.12z M141.64,66.23
				l-0.55-2.03c-0.58-1.93-1.08-4.06-1.63-6.07h-0.1c-0.48,2.03-1.03,4.14-1.58,6.07l-0.55,2.03H141.64z"/>
			<path class="st342" d="M151.78,68.61v-8.78h3.69v8.3c0,2.18,0.6,2.93,1.95,2.93c1.15,0,1.91-0.5,2.86-1.76v-9.48h3.69v14.05
				h-3.01l-0.28-2.01h-0.1c-1.2,1.43-2.56,2.36-4.49,2.36C153.09,74.23,151.78,72.12,151.78,68.61z"/>
			<path class="st342" d="M169.48,76.36c0-1.18,0.73-2.18,2.01-2.91v-0.13c-0.73-0.48-1.28-1.2-1.28-2.36
				c0-1.05,0.73-2.03,1.56-2.63v-0.1c-0.95-0.7-1.86-2.03-1.86-3.66c0-3.31,2.68-5.09,5.67-5.09c0.78,0,1.53,0.15,2.11,0.35h5.07
				v2.71h-2.41c0.38,0.48,0.65,1.25,0.65,2.13c0,3.16-2.41,4.77-5.42,4.77c-0.55,0-1.2-0.13-1.81-0.33c-0.4,0.33-0.6,0.65-0.6,1.2
				c0,0.75,0.55,1.15,2.21,1.15h2.38c3.39,0,5.22,1.05,5.22,3.51c0,2.83-2.93,4.99-7.62,4.99
				C172.04,79.98,169.48,78.85,169.48,76.36z M179.47,75.61c0-1-0.83-1.25-2.33-1.25h-1.7c-0.85,0-1.45-0.08-1.96-0.2
				c-0.63,0.5-0.93,1.05-0.93,1.63c0,1.18,1.3,1.86,3.36,1.86C178.01,77.64,179.47,76.71,179.47,75.61z M177.76,64.57
				c0-1.65-0.93-2.58-2.18-2.58s-2.21,0.93-2.21,2.58c0,1.66,0.98,2.58,2.21,2.58C176.81,67.16,177.76,66.23,177.76,64.57z"/>
			<path class="st342" d="M195.18,71.75c5.04-4.51,8.03-8,8.03-10.86c0-1.88-1.03-3.01-2.78-3.01c-1.36,0-2.48,0.88-3.41,1.91
				L195,57.78c1.71-1.8,3.36-2.81,5.89-2.81c3.51,0,5.84,2.26,5.84,5.72c0,3.36-2.78,6.97-6.17,10.28c0.93-0.1,2.16-0.2,3.01-0.2
				h4.04v3.11h-12.44V71.75z"/>
			<path class="st342" d="M225.44,69.06h-2.21v4.82h-3.44v-4.82h-7.9v-2.51l6.92-11.24h4.42v10.93h2.21V69.06z M219.8,66.25v-3.79
				c0-1.08,0.1-2.76,0.15-3.84h-0.1c-0.45,0.98-0.95,2.01-1.48,3.01l-2.89,4.61H219.8z"/>
		</g>
	</g>
</g>
</svg>
