<?xml version="1.0" encoding="utf-8"?>
<!-- Generator: Adobe Illustrator 23.0.0, SVG Export Plug-In . SVG Version: 6.00 Build 0)  -->
<svg version="1.1" xmlns="http://www.w3.org/2000/svg" xmlns:xlink="http://www.w3.org/1999/xlink" x="0px" y="0px"
	 viewBox="0 0 268.01 195.62" style="enable-background:new 0 0 268.01 195.62;" xml:space="preserve">
<style type="text/css">
	.st0{clip-path:url(#SVGID_2_);}
	.st1{fill:#153660;}
	.st2{opacity:0.8;}
	.st3{fill:url(#SVGID_3_);}
	.st4{fill:url(#SVGID_4_);}
	.st5{fill:url(#SVGID_5_);}
	.st6{fill:url(#SVGID_6_);}
	.st7{fill:url(#SVGID_7_);}
	.st8{fill:url(#SVGID_8_);}
	.st9{fill:url(#SVGID_9_);}
	.st10{fill:url(#SVGID_10_);}
	.st11{fill:url(#SVGID_11_);}
	.st12{fill:url(#SVGID_12_);}
	.st13{fill:url(#SVGID_13_);}
	.st14{fill:url(#SVGID_14_);}
	.st15{fill:url(#SVGID_15_);}
	.st16{fill:url(#SVGID_16_);}
	.st17{fill:url(#SVGID_17_);}
	.st18{fill:none;}
	.st19{fill:#E83632;}
	.st20{fill:url(#SVGID_18_);}
	.st21{fill:url(#SVGID_19_);}
	.st22{fill:url(#SVGID_20_);}
	.st23{fill:url(#SVGID_21_);}
	.st24{fill:url(#SVGID_22_);}
	.st25{fill:url(#SVGID_23_);}
	.st26{fill:url(#SVGID_24_);}
	.st27{fill:url(#SVGID_25_);}
	.st28{fill:url(#SVGID_26_);}
	.st29{fill:url(#SVGID_27_);}
	.st30{fill:url(#SVGID_28_);}
	.st31{fill:url(#SVGID_29_);}
	.st32{fill:url(#SVGID_30_);}
	.st33{fill:url(#SVGID_31_);}
	.st34{fill:url(#SVGID_32_);}
	.st35{fill:url(#SVGID_33_);}
	.st36{fill:url(#SVGID_34_);}
	.st37{fill:#69B1E2;}
	.st38{fill:#D03076;}
	.st39{fill:#D03277;}
	.st40{fill:#CF3377;}
	.st41{fill:#CF3578;}
	.st42{fill:#CF3678;}
	.st43{fill:#CE3779;}
	.st44{fill:#CE387A;}
	.st45{fill:#CE3A7A;}
	.st46{fill:#CD3B7B;}
	.st47{fill:#CD3C7B;}
	.st48{fill:#CD3D7C;}
	.st49{fill:#CD3F7C;}
	.st50{fill:#CC407D;}
	.st51{fill:#CC417D;}
	.st52{fill:#CC427E;}
	.st53{fill:#CB437E;}
	.st54{fill:#CB447F;}
	.st55{fill:#CB457F;}
	.st56{fill:#CA4680;}
	.st57{fill:#CA4780;}
	.st58{fill:#CA4981;}
	.st59{fill:#C94A82;}
	.st60{fill:#C94B82;}
	.st61{fill:#C94C83;}
	.st62{fill:#C84D84;}
	.st63{fill:#C84E84;}
	.st64{fill:#C84F85;}
	.st65{fill:#C75085;}
	.st66{fill:#C75186;}
	.st67{fill:#C75286;}
	.st68{fill:#C65387;}
	.st69{fill:#C65487;}
	.st70{fill:#C55588;}
	.st71{fill:#C55688;}
	.st72{fill:#C55789;}
	.st73{fill:#C4578A;}
	.st74{fill:#C4588A;}
	.st75{fill:#C4598B;}
	.st76{fill:#C35A8B;}
	.st77{fill:#C35B8C;}
	.st78{fill:#C35C8C;}
	.st79{fill:#C25D8D;}
	.st80{fill:#C25E8E;}
	.st81{fill:#C15F8F;}
	.st82{fill:#C1608F;}
	.st83{fill:#C16190;}
	.st84{fill:#C06290;}
	.st85{fill:#C06291;}
	.st86{fill:#C06392;}
	.st87{fill:#BF6492;}
	.st88{fill:#BF6593;}
	.st89{fill:#BF6693;}
	.st90{fill:#BE6694;}
	.st91{fill:#BE6794;}
	.st92{fill:#BE6895;}
	.st93{fill:#BD6996;}
	.st94{fill:#BD6A96;}
	.st95{fill:#BC6A97;}
	.st96{fill:#BC6B97;}
	.st97{fill:#BC6C98;}
	.st98{fill:#BB6D98;}
	.st99{fill:#BB6D99;}
	.st100{fill:#BA6E9A;}
	.st101{fill:#BA6F9A;}
	.st102{fill:#BA709B;}
	.st103{fill:#B9709B;}
	.st104{fill:#B9719C;}
	.st105{fill:#B9729D;}
	.st106{fill:#B8729D;}
	.st107{fill:#B8739E;}
	.st108{fill:#B7749E;}
	.st109{fill:#B7759F;}
	.st110{fill:#B775A0;}
	.st111{fill:#B676A0;}
	.st112{fill:#B677A1;}
	.st113{fill:#B577A1;}
	.st114{fill:#B578A2;}
	.st115{fill:#B579A3;}
	.st116{fill:#B47AA3;}
	.st117{fill:#B47AA4;}
	.st118{fill:#B37BA4;}
	.st119{fill:#B37CA5;}
	.st120{fill:#B37CA6;}
	.st121{fill:#B27DA6;}
	.st122{fill:#B27EA7;}
	.st123{fill:#B17EA7;}
	.st124{fill:#B17FA8;}
	.st125{fill:#B080A9;}
	.st126{fill:#AF81AA;}
	.st127{fill:#AE82AB;}
	.st128{fill:#AE83AC;}
	.st129{fill:#AD84AD;}
	.st130{fill:#AD85AD;}
	.st131{fill:#AC85AE;}
	.st132{fill:#AC86AF;}
	.st133{fill:#AB86AF;}
	.st134{fill:#AB87B0;}
	.st135{fill:#AA88B0;}
	.st136{fill:#AA88B1;}
	.st137{fill:#A989B2;}
	.st138{fill:#A88AB3;}
	.st139{fill:#A88BB3;}
	.st140{fill:#A78BB4;}
	.st141{fill:#A78CB4;}
	.st142{fill:#A68CB5;}
	.st143{fill:#A68DB6;}
	.st144{fill:#A58EB6;}
	.st145{fill:#A58EB7;}
	.st146{fill:#A48FB7;}
	.st147{fill:#A48FB8;}
	.st148{fill:#A390B9;}
	.st149{fill:#A291BA;}
	.st150{fill:#A191BA;}
	.st151{fill:#A192BB;}
	.st152{fill:#A093BC;}
	.st153{fill:#9F94BD;}
	.st154{fill:#9E95BE;}
	.st155{fill:#9D95BF;}
	.st156{fill:#9D96BF;}
	.st157{fill:#9C96C0;}
	.st158{fill:#9C97C0;}
	.st159{fill:#9B97C1;}
	.st160{fill:#9A98C1;}
	.st161{fill:#9A98C2;}
	.st162{fill:#9999C3;}
	.st163{fill:#989AC4;}
	.st164{fill:#979AC4;}
	.st165{fill:#979BC5;}
	.st166{fill:#969BC6;}
	.st167{fill:#959CC6;}
	.st168{fill:#959CC7;}
	.st169{fill:#949DC7;}
	.st170{fill:#939DC8;}
	.st171{fill:#939EC8;}
	.st172{fill:#929EC9;}
	.st173{fill:#919FCA;}
	.st174{fill:#90A0CB;}
	.st175{fill:#8FA0CB;}
	.st176{fill:#8EA1CC;}
	.st177{fill:#8DA2CD;}
	.st178{fill:#8CA2CE;}
	.st179{fill:#8BA2CE;}
	.st180{fill:#8BA3CF;}
	.st181{fill:#8AA3CF;}
	.st182{fill:#89A4D0;}
	.st183{fill:#88A4D0;}
	.st184{fill:#88A5D1;}
	.st185{fill:#87A5D2;}
	.st186{fill:#86A5D2;}
	.st187{fill:#85A6D3;}
	.st188{fill:#84A6D3;}
	.st189{fill:#84A7D4;}
	.st190{fill:#83A7D4;}
	.st191{fill:#82A7D5;}
	.st192{fill:#81A8D5;}
	.st193{fill:#80A8D6;}
	.st194{fill:#7FA9D7;}
	.st195{fill:#7EA9D8;}
	.st196{fill:#7DAAD8;}
	.st197{fill:#7CAAD9;}
	.st198{fill:#7BABD9;}
	.st199{fill:#7AABDA;}
	.st200{fill:#79ABDA;}
	.st201{fill:#78ACDB;}
	.st202{fill:#77ACDB;}
	.st203{fill:#76ACDC;}
	.st204{fill:#75ADDC;}
	.st205{fill:#74ADDD;}
	.st206{fill:#73ADDE;}
	.st207{fill:#72AEDE;}
	.st208{fill:#71AEDF;}
	.st209{fill:#70AFDF;}
	.st210{fill:#6FAFE0;}
	.st211{fill:#6EAFE0;}
	.st212{fill:#6DB0E0;}
	.st213{fill:#6CB0E1;}
	.st214{fill:#6BB0E1;}
	.st215{fill:#6AB1E2;}
	.st216{fill:url(#SVGID_35_);}
	.st217{fill:url(#SVGID_36_);}
	.st218{fill:url(#SVGID_37_);}
	.st219{fill:url(#SVGID_38_);}
	.st220{fill:url(#SVGID_39_);}
	.st221{fill:url(#SVGID_40_);}
	.st222{fill:url(#SVGID_41_);}
	.st223{fill:url(#SVGID_42_);}
	.st224{fill:url(#SVGID_43_);}
	.st225{fill:url(#SVGID_44_);}
	.st226{fill:url(#SVGID_45_);}
	.st227{fill:url(#SVGID_46_);}
	.st228{fill:url(#SVGID_47_);}
	.st229{fill:url(#SVGID_48_);}
	.st230{fill:#F4F4F4;}
	.st231{clip-path:url(#SVGID_2_);fill:#69B1E2;}
	.st232{fill:url(#SVGID_49_);}
	.st233{fill:url(#SVGID_50_);}
	.st234{fill:url(#SVGID_51_);}
	.st235{fill:url(#SVGID_52_);}
	.st236{fill:url(#SVGID_53_);}
	.st237{fill:url(#SVGID_54_);}
	.st238{fill:url(#SVGID_55_);}
	.st239{fill:url(#SVGID_56_);}
	.st240{fill:url(#SVGID_57_);}
	.st241{fill:url(#SVGID_58_);}
	.st242{fill:url(#SVGID_59_);}
	.st243{fill:url(#SVGID_60_);}
	.st244{fill:url(#SVGID_61_);}
	.st245{fill:url(#SVGID_62_);}
	.st246{fill:url(#SVGID_63_);}
	.st247{fill:url(#SVGID_64_);}
	.st248{fill:url(#SVGID_65_);}
	.st249{fill:url(#SVGID_66_);}
	.st250{fill:url(#SVGID_67_);}
	.st251{fill:url(#SVGID_68_);}
	.st252{fill:url(#SVGID_69_);}
	.st253{fill:url(#SVGID_70_);}
	.st254{fill:url(#SVGID_71_);}
	.st255{fill:url(#SVGID_72_);}
	.st256{fill:url(#SVGID_73_);}
	.st257{fill:url(#SVGID_74_);}
	.st258{fill:url(#SVGID_75_);}
	.st259{fill:url(#SVGID_76_);}
	.st260{fill:url(#SVGID_77_);}
	.st261{fill:url(#SVGID_78_);}
	.st262{fill:url(#SVGID_79_);}
	.st263{fill:url(#SVGID_80_);}
	.st264{fill:url(#SVGID_81_);}
	.st265{fill:url(#SVGID_82_);}
	.st266{fill:url(#SVGID_83_);}
	.st267{fill:url(#SVGID_84_);}
	.st268{fill:url(#SVGID_85_);}
	.st269{fill:url(#SVGID_86_);}
	.st270{fill:url(#SVGID_87_);}
	.st271{fill:url(#SVGID_88_);}
	.st272{fill:url(#SVGID_89_);}
	.st273{fill:url(#SVGID_90_);}
	.st274{fill:url(#SVGID_91_);}
	.st275{fill:url(#SVGID_92_);}
	.st276{fill:url(#SVGID_93_);}
	.st277{fill:url(#SVGID_94_);}
	.st278{fill:url(#SVGID_95_);}
	.st279{fill:url(#SVGID_96_);}
	.st280{fill:url(#SVGID_97_);}
	.st281{fill:url(#SVGID_98_);}
	.st282{fill:url(#SVGID_99_);}
	.st283{fill:url(#SVGID_100_);}
	.st284{fill:url(#SVGID_101_);}
	.st285{fill:url(#SVGID_102_);}
	.st286{fill:url(#SVGID_103_);}
	.st287{fill:url(#SVGID_104_);}
	.st288{fill:url(#SVGID_105_);}
	.st289{fill:url(#SVGID_106_);}
	.st290{fill:url(#SVGID_107_);}
	.st291{fill:url(#SVGID_108_);}
	.st292{fill:url(#SVGID_109_);}
	.st293{fill:url(#SVGID_110_);}
	.st294{fill:url(#SVGID_111_);}
	.st295{fill:url(#SVGID_112_);}
	.st296{fill:url(#SVGID_113_);}
	.st297{fill:url(#SVGID_114_);}
	.st298{fill:url(#SVGID_115_);}
	.st299{fill:url(#SVGID_116_);}
	.st300{fill:url(#SVGID_117_);}
	.st301{fill:url(#SVGID_118_);}
	.st302{fill:url(#SVGID_119_);}
	.st303{fill:url(#SVGID_120_);}
	.st304{fill:url(#SVGID_121_);}
	.st305{fill:url(#SVGID_122_);}
	.st306{fill:url(#SVGID_123_);}
	.st307{fill:url(#SVGID_124_);}
	.st308{fill:url(#SVGID_125_);}
	.st309{fill:url(#SVGID_126_);}
	.st310{fill:url(#SVGID_127_);}
	.st311{fill:url(#SVGID_128_);}
	.st312{fill:url(#SVGID_129_);}
	.st313{fill:url(#SVGID_130_);}
	.st314{fill:url(#SVGID_131_);}
	.st315{fill:url(#SVGID_132_);}
	.st316{fill:url(#SVGID_133_);}
	.st317{fill:url(#SVGID_134_);}
	.st318{fill:url(#SVGID_135_);}
	.st319{fill:url(#SVGID_136_);}
	.st320{fill:url(#SVGID_137_);}
	.st321{fill:url(#SVGID_138_);}
	.st322{fill:url(#SVGID_139_);}
	.st323{fill:url(#SVGID_140_);}
	.st324{fill:url(#SVGID_141_);}
	.st325{fill:#040000;}
	.st326{fill:url(#SVGID_142_);}
	.st327{fill:url(#SVGID_143_);}
	.st328{fill:url(#SVGID_144_);}
	.st329{fill:url(#SVGID_145_);}
	.st330{fill:url(#SVGID_146_);}
	.st331{fill:url(#SVGID_147_);}
	.st332{fill:url(#SVGID_148_);}
	.st333{fill:url(#SVGID_149_);}
	.st334{fill:url(#SVGID_150_);}
	.st335{fill:url(#SVGID_151_);}
	.st336{fill:url(#SVGID_152_);}
	.st337{fill:url(#SVGID_153_);}
	.st338{fill:url(#SVGID_154_);}
	.st339{fill:url(#SVGID_155_);}
	.st340{fill:#C23370;}
	.st341{fill:#69A8D5;}
	.st342{fill:#FFFFFF;}
	.st343{fill:url(#SVGID_156_);}
	.st344{fill:url(#SVGID_157_);}
	.st345{fill:url(#SVGID_158_);}
	.st346{fill:url(#SVGID_159_);}
	.st347{fill:url(#SVGID_160_);}
	.st348{fill:url(#SVGID_161_);}
	.st349{fill:url(#SVGID_162_);}
	.st350{fill:url(#SVGID_163_);}
	.st351{fill:url(#SVGID_164_);}
	.st352{fill:url(#SVGID_165_);}
	.st353{fill:url(#SVGID_166_);}
	.st354{fill:url(#SVGID_167_);}
	.st355{fill:url(#SVGID_168_);}
	.st356{fill:url(#SVGID_169_);}
	.st357{fill:url(#SVGID_170_);}
	.st358{fill:url(#SVGID_171_);}
	.st359{fill:url(#SVGID_172_);}
	.st360{fill:url(#SVGID_173_);}
	.st361{fill:url(#SVGID_174_);}
	.st362{fill:url(#SVGID_175_);}
	.st363{fill:url(#SVGID_176_);}
	.st364{fill:url(#SVGID_177_);}
	.st365{fill:url(#SVGID_178_);}
	.st366{fill:url(#SVGID_179_);}
	.st367{fill:url(#SVGID_180_);}
	.st368{fill:url(#SVGID_181_);}
	.st369{fill:url(#SVGID_182_);}
	.st370{fill:url(#SVGID_183_);}
	.st371{fill:url(#SVGID_184_);}
	.st372{fill:url(#SVGID_185_);}
	.st373{fill:url(#SVGID_186_);}
	.st374{fill:url(#SVGID_187_);}
	.st375{fill:url(#SVGID_188_);}
	.st376{fill:url(#SVGID_189_);}
	.st377{fill:url(#SVGID_190_);}
	.st378{fill:url(#SVGID_191_);}
	.st379{fill:url(#SVGID_192_);}
	.st380{fill:url(#SVGID_193_);}
	.st381{fill:url(#SVGID_194_);}
	.st382{fill:url(#SVGID_195_);}
	.st383{fill:url(#SVGID_196_);}
	.st384{fill:url(#SVGID_197_);}
	.st385{fill:url(#SVGID_198_);}
	.st386{fill:url(#SVGID_199_);}
</style>
<g id="圖層_1">
</g>
<g id="圖層_2">
</g>
<g id="圖層_3">
	<g id="圖層_4">
	</g>
	<g id="圖層_5">
	</g>
	<g>
		<path class="st340" d="M37.69,72.38c0-10.31,5.83-16.14,14.41-16.14s14.41,5.87,14.41,16.14c0,10.31-5.83,16.48-14.41,16.48
			S37.69,82.69,37.69,72.38z M58.81,72.38c0-6.08-2.58-9.68-6.72-9.68s-6.68,3.59-6.68,9.68c0,6.13,2.54,9.97,6.68,9.97
			S58.81,78.51,58.81,72.38z"/>
		<path class="st340" d="M72.36,56.83h11.03c6.93,0,12.63,2.45,12.63,10.23c0,7.48-5.79,10.77-12.42,10.77h-3.68v10.44h-7.56V56.83z
			 M83.22,71.87c3.68,0,5.45-1.73,5.45-4.82c0-3.17-2.03-4.27-5.66-4.27h-3.08v9.09H83.22z"/>
		<path class="st340" d="M101.4,56.83h19.95v6.25h-12.38v5.83h10.52v6.34h-10.52v6.67h12.85v6.34H101.4V56.83z"/>
		<path class="st340" d="M128.04,56.83h7.69l7.82,15.04l3.08,6.97h0.21c-0.42-3.34-1.01-7.86-1.01-11.62V56.83h7.18v31.44h-7.69
			l-7.77-15.17l-3.08-6.89h-0.21c0.34,3.51,0.97,7.82,0.97,11.62v10.44h-7.18V56.83z"/>
		<path class="st340" d="M160.34,56.83h7.56v11.96h10.35V56.83h7.48v31.44h-7.48V75.34H167.9v12.93h-7.56V56.83z"/>
		<path class="st340" d="M191.62,72.72c0-10.48,7.01-16.48,15-16.48c4.1,0,7.4,1.9,9.55,4.1l-3.97,4.82
			c-1.57-1.44-3.21-2.45-5.45-2.45c-4.06,0-7.39,3.63-7.39,9.76c0,6.25,2.87,9.89,7.31,9.89c2.49,0,4.52-1.27,6-2.87l3.97,4.73
			c-2.66,3.09-6.17,4.65-10.27,4.65C198.39,88.86,191.62,83.37,191.62,72.72z"/>
		<path class="st340" d="M221.26,56.83h7.57v31.44h-7.57V56.83z"/>
		<path class="st340" d="M160.46,133.12v5.88H141.4v-0.81c1.75-2.13,3.75-4.84,6-8.11c2.25-3.27,3.67-5.59,4.26-6.96
			c0.59-1.38,0.89-2.71,0.89-4c0-1.13-0.38-2.1-1.13-2.91c-0.75-0.81-1.65-1.22-2.71-1.22c-2.11,0-4.42,1.2-6.94,3.59v-6.05
			c2.82-1.83,5.51-2.75,8.07-2.75c2.84,0,5.07,0.73,6.7,2.19c1.63,1.46,2.45,3.46,2.45,6.01c0,3.48-2.61,8.53-7.82,15.13H160.46z"/>
		<path class="st340" d="M174.15,109.79c3.06,0,5.44,1.31,7.15,3.94c1.71,2.63,2.57,6.2,2.57,10.71c0,4.69-0.83,8.35-2.5,10.98
			c-1.67,2.63-4.05,3.94-7.14,3.94c-3.14,0-5.58-1.31-7.32-3.92s-2.61-6.23-2.61-10.86c0-4.68,0.88-8.32,2.65-10.91
			C168.72,111.09,171.12,109.79,174.15,109.79z M174.15,133.97c1.16,0,2-0.7,2.52-2.1c0.52-1.4,0.78-4.02,0.78-7.87
			c0-3.21-0.26-5.48-0.77-6.81s-1.37-1.99-2.57-1.99c-1.17,0-2.03,0.65-2.57,1.95c-0.54,1.3-0.82,3.88-0.82,7.73
			c0,3.23,0.27,5.55,0.82,6.96C172.08,133.26,172.95,133.97,174.15,133.97z"/>
		<path class="st340" d="M200.53,110.17v28.84h-6.38v-28.84H200.53z"/>
		<path class="st340" d="M214.38,139.38l6.65-10.82c-0.66,0.18-1.31,0.27-1.96,0.27c-2.15,0-3.99-0.89-5.54-2.66
			s-2.32-3.9-2.32-6.41c0-2.82,0.92-5.19,2.77-7.1s4.12-2.87,6.83-2.87c2.73,0,4.99,0.96,6.8,2.87s2.71,4.31,2.71,7.18
			c0,3.41-1.27,7.18-3.8,11.29l-5.09,8.24H214.38z M220.68,123.91c0.92,0,1.69-0.41,2.3-1.22c0.61-0.81,0.92-1.84,0.92-3.1
			c0-1.36-0.29-2.44-0.87-3.22c-0.58-0.78-1.36-1.18-2.35-1.18c-0.95,0-1.74,0.41-2.36,1.22s-0.94,1.86-0.94,3.13
			c0,1.29,0.31,2.34,0.92,3.14C218.91,123.51,219.7,123.91,220.68,123.91z"/>
	</g>
</g>
</svg>
