<?xml version="1.0" encoding="utf-8"?>
<!-- Generator: Adobe Illustrator 21.0.2, SVG Export Plug-In . SVG Version: 6.00 Build 0)  -->
<svg version="1.1" id="圖層_1" xmlns="http://www.w3.org/2000/svg" xmlns:xlink="http://www.w3.org/1999/xlink" x="0px" y="0px"
	 viewBox="0 0 617 259.4" style="enable-background:new 0 0 617 259.4;" xml:space="preserve">
<style type="text/css">
	.st0{display:none;}
	.st1{fill:#FFFFFF;}
	.st2{fill:#2D2A26;}
</style>
<g id="圖層_1_1_" class="st0">
	
		<image style="display:inline;overflow:visible;enable-background:new    ;" width="2044" height="2046" xlink:href="468FFF12409C1A4.jpeg"  transform="matrix(0.4284 0 0 0.428 -122.9306 -272.3411)">
	</image>
</g>
<g id="圖層_2">
	<g>
		<path class="st1" d="M578.2,150.2v15.7h-15.7v-15.7H578.2 M580.7,147.7H560v20.6h20.6V147.7L580.7,147.7z"/>
	</g>
	<g>
		<rect x="564.7" y="153.5" class="st2" width="4.5" height="4.5"/>
	</g>
	<g>
		<rect x="569.2" y="151.8" class="st2" width="4.5" height="4.5"/>
	</g>
	<g>
		<rect x="569.2" y="159.6" class="st2" width="4.5" height="4.5"/>
	</g>
	<g>
		<polygon class="st1" points="569.2,156.3 571.5,156.3 573.7,156.3 576,156.3 576,151.8 573.7,151.8 571.5,151.8 569.2,151.8 
			564.7,151.8 564.7,153.5 564.7,156.3 564.7,158 564.7,159.6 564.7,162.6 564.7,164.1 569.2,164.1 571.5,164.1 573.7,164.1 
			576,164.1 576,159.6 573.7,159.6 571.5,159.6 569.2,159.6 569.2,158 		"/>
	</g>
	<g>
		<path class="st1" d="M31,190c-0.1,0.9-0.2,1.7-0.2,3.2v11.5c0,1.4,0,2.1,0.2,3.2h-4.6c0.1-0.9,0.2-1.7,0.2-3.2v-4.2h-7.2v4.2
			c0,1.4,0,2.2,0.2,3.2h-4.6c0.1-0.9,0.2-1.7,0.2-3.2v-11.5c0-1.5,0-2.2-0.2-3.2h4.6c-0.1,1-0.2,1.8-0.2,3.2v3.6h7.2v-3.6
			c0-1.5,0-2.3-0.2-3.2H31z"/>
		<path class="st1" d="M53.4,190c-0.1,0.9-0.2,1.7-0.2,3.2v7.4c0,4.9-2.9,7.6-8.1,7.6c-2.7,0-4.8-0.7-6.1-2.1
			c-1.2-1.3-1.9-3.2-1.9-5.6v-7.3c0-1.5,0-2.4-0.2-3.2h4.6c-0.1,0.8-0.2,1.6-0.2,3.2v7.4c0,2.7,1.2,4,3.7,4c2.6,0,3.8-1.3,3.8-4
			v-7.4c0-1.6,0-2.3-0.2-3.2H53.4z"/>
		<path class="st1" d="M72.9,207.9c-0.9-0.1-1.7-0.1-3.5-0.1h-6.7c-1.6,0-2.2,0-3.1,0.1c0.1-0.9,0.2-1.6,0.2-3.1V193
			c0-1.3,0-2.1-0.2-3.1c0.9,0,1.5,0.1,3.1,0.1h6.8c1.5,0,2.2,0,3.2-0.1v4c-1-0.1-1.8-0.1-3.2-0.1h-5.6v3.1h4.6c1.4,0,1.9,0,3.2-0.1
			v4c-1-0.1-1.7-0.1-3.2-0.1h-4.6v3.6h5.5c1.6,0,2.6,0,3.5-0.1L72.9,207.9L72.9,207.9z"/>
		<path class="st1" d="M83.2,190c-0.1,0.9-0.2,1.6-0.2,3.2v11.5c0,1.5,0,2.3,0.2,3.2h-4.7c0.1-0.8,0.2-1.7,0.2-3.2v-11.5
			c0-1.6,0-2.2-0.2-3.2H83.2z"/>
		<path class="st1" d="M122.4,190c-0.1,0.9-0.2,1.6-0.2,3.4v8.9c0,1.8-0.5,3.1-1.5,4.1c-1.1,1.1-2.8,1.7-4.9,1.7
			c-2.3,0-4.1-0.7-5.3-2c-0.6-0.7-0.9-1.2-1.4-2.5l4.2-1.4c0.5,1.7,1.1,2.3,2.5,2.3c1.4,0,2.1-0.7,2.1-2.2v-8.9c0-1.8,0-2.5-0.2-3.5
			L122.4,190L122.4,190z"/>
		<path class="st1" d="M144.9,190c-0.1,0.9-0.2,1.7-0.2,3.2v7.4c0,4.9-2.9,7.6-8.1,7.6c-2.7,0-4.8-0.7-6.1-2.1
			c-1.2-1.3-1.9-3.2-1.9-5.6v-7.3c0-1.5,0-2.4-0.2-3.2h4.6c-0.1,0.8-0.2,1.6-0.2,3.2v7.4c0,2.7,1.2,4,3.7,4c2.6,0,3.8-1.3,3.8-4
			v-7.4c0-1.6,0-2.3-0.2-3.2H144.9z"/>
		<path class="st1" d="M163.1,207.8c-0.2-1-0.3-1.6-0.5-2.3l-0.6-1.8h-6.1l-0.6,1.8c-0.3,0.9-0.4,1.5-0.5,2.3h-5
			c0.3-0.6,0.5-1.2,1-2.6l4.6-12.9c0.4-1,0.6-1.7,0.7-2.3h5.6c0.1,0.6,0.3,1.2,0.7,2.3l4.6,12.9c0.4,1.1,0.7,2,1,2.6H163.1z
			 M158.9,193.6l-2,6.4h4L158.9,193.6z"/>
		<path class="st1" d="M183.2,198.7c0.6,0.9,1,1.6,1.5,2.6c-0.1-1-0.1-2-0.1-3.2v-4.9c0-1.4,0-2.3-0.2-3.2h4.6
			c-0.1,1-0.2,1.9-0.2,3.2v11.4c0,1.3,0.1,2.3,0.2,3.2h-4.7c-0.4-0.8-0.9-1.6-1.6-2.7l-4-6c-0.6-0.9-0.9-1.5-1.5-2.6
			c0.1,1,0.1,2.1,0.1,3.2v4.8c0,1.5,0,2.4,0.2,3.3H173c0.1-0.8,0.2-1.8,0.2-3.4v-11.3c0-1.2,0-2.2-0.2-3.2h4.6
			c0.2,0.6,0.7,1.4,1.5,2.7L183.2,198.7z"/>
		<path class="st1" d="M232.3,190c-0.1,0.9-0.2,1.7-0.2,3.2v11.5c0,1.4,0,2.1,0.2,3.2h-4.6c0.1-0.9,0.2-1.7,0.2-3.2v-4.2h-7.2v4.2
			c0,1.4,0,2.2,0.2,3.2h-4.6c0.1-0.9,0.2-1.7,0.2-3.2v-11.5c0-1.5,0-2.2-0.2-3.2h4.6c-0.1,1-0.2,1.8-0.2,3.2v3.6h7.2v-3.6
			c0-1.5,0-2.3-0.2-3.2H232.3z"/>
		<path class="st1" d="M251.8,207.9c-0.9-0.1-1.7-0.1-3.5-0.1h-6.7c-1.6,0-2.2,0-3.1,0.1c0.1-0.9,0.2-1.6,0.2-3.1V193
			c0-1.3,0-2.1-0.2-3.1c0.9,0,1.5,0.1,3.1,0.1h6.8c1.5,0,2.2,0,3.2-0.1v4c-1-0.1-1.8-0.1-3.2-0.1h-5.6v3.1h4.6c1.4,0,1.9,0,3.2-0.1
			v4c-1-0.1-1.7-0.1-3.2-0.1h-4.6v3.6h5.5c1.6,0,2.6,0,3.5-0.1L251.8,207.9L251.8,207.9z"/>
		<path class="st1" d="M286.3,207.8c-0.1-0.7-0.3-1.5-0.9-3.2l-2-5.7c0-0.1-0.7-2.1-0.7-2.3c-0.2-0.8-0.2-0.8-0.3-1.1
			c0.1,1.3,0.2,3.1,0.2,4.2v4.6c0,1.5,0,2.4,0.2,3.3h-4.2c0.1-1,0.2-1.9,0.2-3.3v-11.1c0-1.3-0.1-2.4-0.2-3.3h5.7
			c0.1,0.9,0.3,1.6,0.8,3l3.2,9.2l3.2-9.2c0.5-1.4,0.7-2.1,0.8-3h5.7c-0.1,1-0.2,1.9-0.2,3.3v11.1c0,1.6,0,2.5,0.2,3.3h-4.2
			c0.1-1,0.2-1.8,0.2-3.3v-4.7c0-0.5,0.1-2.1,0.1-2.8c0.1-1.1,0.1-1.1,0.1-1.5c-0.5,1.7-0.7,2.4-1,3.2l-2.1,5.9
			c-0.5,1.5-0.8,2.5-0.9,3.1L286.3,207.8L286.3,207.8z"/>
		<path class="st1" d="M316.1,207.8c-0.2-1-0.3-1.6-0.5-2.3l-0.6-1.8h-6.1l-0.6,1.8c-0.3,0.9-0.4,1.5-0.5,2.3h-5
			c0.3-0.6,0.5-1.2,1-2.6l4.6-12.9c0.4-1,0.6-1.7,0.7-2.3h5.6c0.1,0.6,0.3,1.2,0.7,2.3l4.6,12.9c0.4,1.1,0.7,2,1,2.6H316.1z
			 M311.9,193.6l-2,6.4h4L311.9,193.6z"/>
		<path class="st1" d="M338.3,189.8c0.8,0.1,1.3,0.1,2.6,0.1h2.7c1.5,0,1.8,0,2.7-0.1c-0.1,1.1-0.1,2-0.1,3.4v11.2
			c0,1.3,0,2.2,0.2,3.2h-4.7c0.1-1,0.2-2,0.2-3.2v-10.9h-0.9c-0.8,0-1.7,0-2.6,0.1L338.3,189.8L338.3,189.8z"/>
		<path class="st1" d="M358.2,206.2c-0.7-0.7-1.2-1.5-1.6-2.4c-0.6-1.5-0.8-3.2-0.8-4.9c0-2.2,0.5-4.6,1.3-5.9
			c1.3-2.2,3.5-3.4,6.2-3.4c2.1,0,3.9,0.7,5.2,2c0.7,0.7,1.2,1.5,1.6,2.4c0.6,1.5,0.8,3.2,0.8,4.9c0,2.2-0.5,4.6-1.3,5.9
			c-1.3,2.1-3.5,3.3-6.3,3.3C361.3,208.2,359.5,207.5,358.2,206.2z M360.2,198.7c0,3.8,1.1,5.8,3.2,5.8c2.1,0,3.2-1.9,3.2-5.7
			c0-3.7-1.1-5.6-3.2-5.6C361.4,193.2,360.2,195.2,360.2,198.7z"/>
		<path class="st1" d="M390.4,193.4c-1.3,1.4-1.9,2.3-2.9,4.3c-1.7,3.3-2.5,5.8-3,10h-4.9c0.6-3.4,1.3-5.7,2.6-8.3
			c0.9-1.9,1.7-3.3,3.5-5.7h-6.1c-1.5,0-2.3,0-3.2,0.1v-4c0.9,0.1,2,0.1,3.5,0.1h7.2c2,0,2.6,0,3.4-0.1L390.4,193.4L390.4,193.4z"/>
		<path class="st1" d="M406.8,194.9c0.5,0,1,0.1,2.2,0.1c0,0,0.5,0,0.7,0c1.5-2.1,2.9-4.6,3.3-6.1l3.7,1c-0.2,0.3-0.2,0.3-0.5,0.8
			c-0.9,1.7-1.7,3.1-2.6,4.3c3.9-0.1,4.4-0.1,6.5-0.3c-0.9-1.2-1.4-1.6-2.4-2.7l2.9-1.6c2.4,2.5,3.9,4.3,5.8,7.1l-3,1.8
			c-0.6-0.9-0.7-1.2-1.2-1.8c-3.9,0.5-6.5,0.6-13.6,0.9c-0.7,0-0.9,0-1.5,0.1L406.8,194.9z M408.6,209c0.1-0.8,0.1-1.7,0.1-2.8v-4.6
			c0-0.9,0-1.6-0.1-2.2c0.5,0,1.1,0.1,2.2,0.1h11.3c1,0,1.7,0,2.2-0.1c-0.1,0.6-0.1,1.2-0.1,2.2v4.6c0,1.2,0,2,0.1,2.8h-3.4v-0.9
			H412v0.9H408.6z M411.9,205.1h9v-2.8h-9V205.1z"/>
		<path class="st1" d="M443.7,201c-1.6-1.6-2.4-2.3-4-3.5c-0.5,0-0.8,0-1.3,0h-0.6c1,1.2,1.6,1.8,2.8,2.7c-0.7,1.2-0.8,1.6-1.4,3.2
			c-0.6-0.7-1-1.3-1.6-2.2c0,0.3,0,0.9,0.1,1.8v3.2c0,1.3,0,1.9,0.1,2.8h-3.4c0.1-0.9,0.1-1.5,0.1-2.8v-2.5c0-0.4,0-0.8,0.1-1.8
			c-0.6,1.6-1.2,2.5-2.2,3.6c-0.6-1.6-0.9-2.4-1.4-3.3c1.3-1.2,2.5-3,3.1-4.9h-0.8c-0.8,0-1.3,0-1.9,0.1v-3.2
			c0.6,0.1,1.1,0.1,1.9,0.1h1.2v-1.5c-0.5,0.1-0.9,0.1-2.1,0.3c-0.3-1.2-0.5-1.7-1.1-2.8c3.6-0.3,6.2-0.9,7.5-1.7l1.8,2.7
			c-0.8,0.3-1.8,0.6-3,1v2.1h0.8c0.8,0,1.2,0,1.7-0.1v2.6l1.5-1.8c1.7,1.2,2.7,1.9,4,3.2L443.7,201z M446.1,191.7c0-1.4,0-2-0.1-2.7
			h3.5c-0.1,0.8-0.1,1.3-0.1,2.7v8.8c0.9-0.2,1.2-0.3,1.8-0.5l0.1,3.4c-0.5,0-1.1,0.1-1.9,0.3v2.7c0,1.4,0,2,0.1,2.7H446
			c0.1-0.7,0.1-1.3,0.1-2.7v-2l-3.9,0.8c-1.2,0.3-1.6,0.4-2.1,0.5l-0.3-3.4c0.5,0,1.2-0.1,2.1-0.3l4.2-0.9v-7.5l-1.7,2.1
			c-1.3-1.4-2.2-2.2-4-3.4l2-2.3c1.6,1.1,2.8,2,3.7,2.8L446.1,191.7L446.1,191.7z"/>
		<path class="st1" d="M456.1,192.3c0.5,0.1,0.9,0.1,1.7,0.1h4.8c0.9,0,1.3,0,1.7-0.1v2.8c-0.5-0.1-0.6-0.1-1.7-0.1h-4.8
			c-0.8,0-1.2,0-1.7,0.1V192.3z M464.5,197.6c0.5,0.1,0.7,0.1,1.3,0.1c-0.5-0.5-1.3-1.1-1.9-1.5v2c-0.4,0-0.6,0-1.2,0H458
			c-0.7,0-0.9,0-1.3,0v-2.4c0.4,0,0.6,0,1.3,0h4.6c0.7,0,0.8,0,1.2,0c0.6-0.5,0.9-0.8,1.2-1.4c0.4-0.8,0.6-2,0.6-3.7
			c0-0.5,0-0.8-0.1-1.3c0.6,0.1,1,0.1,1.7,0.1h4c0.7,0,1.2,0,1.8-0.1c0,0.5-0.1,0.9-0.1,1.6v3c0,0.2,0.1,0.3,0.4,0.3
			c0.6,0,0.6,0,0.6-2.4c0.9,0.5,1.4,0.7,2.4,1c-0.2,3.7-0.6,4.2-3,4.2c-1.8,0-2.4-0.1-2.9-0.3c-0.4-0.2-0.5-0.5-0.5-1.3v-3h-1.5
			c-0.1,2.4-0.6,3.9-2,5.3h5.8c0.8,0,1.1,0,1.4-0.1l1.5,1.5c-0.1,0.3-0.1,0.3-0.4,1c-0.8,1.9-1.6,3.3-2.6,4.4c1.2,0.6,2.5,1,4.1,1.3
			c-0.7,1.2-1,2-1.4,3.2c-2.3-0.7-3.7-1.3-5.2-2.2c-1.3,0.9-2.5,1.5-4.5,2.2c-0.5-1-0.7-1.5-1.3-2.3v0.4c0,0.9,0,1.1,0.1,1.6h-2.9
			v-0.6h-1.5v0.9h-3.1c0.1-0.7,0.1-1.4,0.1-2.1v-3.4c0-0.6,0-1-0.1-1.6c0.5,0,0.9,0.1,1.6,0.1h4.5c0.7,0,1,0,1.3-0.1
			c0,0.4,0,0.7,0,1.4v2.7c1.2-0.3,2.2-0.7,3.2-1.3c-0.6-0.7-0.7-0.8-2.4-2.9l2.3-1.2h-1c-0.8,0-1.2,0-1.8,0.1L464.5,197.6
			L464.5,197.6z M456.7,189.2c0.6,0.1,0.9,0.1,1.9,0.1h3.3c1,0,1.3,0,1.9-0.1v2.5c-0.6,0-1-0.1-1.9-0.1h-3.3c-0.9,0-1.4,0-1.9,0.1
			V189.2z M456.7,198.8c0.4,0,0.6,0,1.3,0h4.6c0.7,0,0.9,0,1.2,0v2.4c-0.4,0-0.6,0-1.3,0H458c-0.6,0-0.9,0-1.2,0V198.8z
			 M459.5,205.6h1.5v-1.4h-1.5V205.6z M467.8,200.6c0.9,1.2,1.2,1.6,1.8,2.2c0.6-0.7,1-1.2,1.5-2.2H467.8z"/>
		<path class="st1" d="M490.2,195.2c-0.3,0-0.7,0-1.6,0h-5.9c-0.7,0-1.2,0-1.8,0.1v-2.9c0.5,0.1,1,0.1,1.8,0.1h5.9
			c0.9,0,1.3,0,1.8-0.1v2.7c0.6,0.1,1.5,0.1,2.5,0.1h0.9v-3.4c0-1.4,0-1.9-0.1-2.7h3.6c-0.1,0.8-0.1,1.3-0.1,2.7v3.4h1
			c1.2,0,1.9,0,2.6-0.1v3.3c-1-0.1-1.7-0.1-2.7-0.1h-1v7.5c0,1.6,0,2.5,0.1,3.4h-3.7c0.1-0.8,0.1-1.8,0.1-3.4v-7.5h-0.9
			c-0.9,0-1.9,0-2.7,0.1L490.2,195.2L490.2,195.2z M484.8,209.1h-3.1c0.1-0.6,0.1-1.2,0.1-2v-3.5c0-0.6,0-1-0.1-1.6
			c0.5,0,0.6,0,1.5,0h5.3c0.7,0,0.9,0,1.3-0.1c0,0.5-0.1,0.9-0.1,1.6v3.3c0,0.9,0,1.4,0.1,1.9h-3.1v-0.6h-1.9V209.1z M481.8,189.3
			c0.6,0.1,1,0.1,2,0.1h3.9c1,0,1.3,0,1.9-0.1v2.5c-0.5,0-1-0.1-1.9-0.1h-3.9c-0.9,0-1.4,0-2,0.1V189.3z M481.8,195.8
			c0.5,0,0.6,0,1.3,0h5.3c0.7,0,0.9,0,1.2,0v2.4c-0.4,0-0.6,0-1.2,0h-5.3c-0.6,0-0.9,0-1.3,0V195.8z M481.8,198.9c0.4,0,0.6,0,1.3,0
			h5.3c0.7,0,0.9,0,1.2,0v2.4c-0.4,0-0.6,0-1.3,0h-5.3c-0.7,0-0.8,0-1.2,0V198.9z M484.8,205.7h2v-1.3h-2V205.7z"/>
		<path class="st1" d="M513.2,203.7c-1.5,2.1-3,3.4-5.6,5c-0.6-1.1-1.2-1.8-2.1-2.7c1.2-0.6,1.8-0.9,2.7-1.6c1-0.8,1.6-1.4,2.3-2.3
			L513.2,203.7z M521.8,194c-0.1,0.1-0.4,0.4-0.8,0.8c-1.1,1.2-2.7,2.8-4,3.9c1.3,0,2.4-0.1,3.5-0.1c-0.3-0.4-0.5-0.6-0.9-1.2
			l2.7-1.4c1.7,2.2,2.5,3.4,3.6,5.4L523,203c-0.5-1-0.6-1.3-0.8-1.6c-3,0.2-4.6,0.3-5,0.3v4.6c0,1.3,0,2.1,0.1,2.7h-3.6
			c0.1-0.5,0.1-1.5,0.1-2.7v-4.5c-1.5,0-2.7,0.1-3.7,0.1c-2.9,0.1-3.3,0.1-3.8,0.2l-0.3-3.6c0.6,0.1,0.9,0.1,2.1,0.1
			c0.3,0,0.7,0,1,0c0.9,0,1.5,0,1.9,0c0.2,0,0.4,0,0.9,0c0.1,0,0.2,0,0.5,0c-1.9-1.5-2.9-2.2-4.9-3.3l2.3-2c0.6,0.4,0.8,0.5,1.3,0.8
			c0.6-0.6,0.8-0.9,1.3-1.6c-2,0-3.7,0.1-5.2,0.1c-0.3-1.2-0.5-1.8-1-3c1.3,0,1.8,0,2.7,0c6.7,0,10.8-0.3,13.2-1.1l2,3
			c-2.7,0.4-5.1,0.6-7.6,0.7c-1,1.4-1.8,2.3-3,3.4c0.5,0.4,0.6,0.5,1.2,0.9c2.2-2.2,2.9-2.9,3.8-4.3L521.8,194z M520.6,201.9
			c1.6,1.9,2.9,2.9,5.2,3.9c-0.9,1-1.4,1.7-2,2.8c-2.5-1.5-4.1-2.9-5.7-5.1L520.6,201.9z"/>
		<path class="st1" d="M542.2,206.5c0,1-0.3,1.7-0.9,2.1c-0.6,0.3-1.6,0.5-3.3,0.5c-0.2,0-0.2,0-1.4,0c-0.1-1.1-0.3-1.7-0.7-2.7
			c0.9,0.1,1.6,0.1,2.2,0.1c0.9,0,1-0.1,1-0.5v-0.6h-5.3c-1.5,0-2.3,0-3.1,0.1v-2.8c0.7,0.1,1.5,0.1,3,0.1h5.3c0-0.2,0-0.4,0-0.7h1
			c0.6-0.3,0.6-0.3,1.2-0.6H537c-1.1,0-1.7,0-2.3,0.1v-2.4c0.6,0.1,0.9,0.1,1.9,0.1h6.7c0.7,0,1.2,0,1.6-0.1l1.2,1.5
			c-0.3,0.2-0.5,0.3-1.1,0.8c-0.4,0.3-1.3,0.9-2.2,1.4h4.2c1.5,0,2.3,0,3.1-0.1v2.8c-0.8-0.1-1.6-0.1-3.1-0.1h-4.9L542.2,206.5
			L542.2,206.5z M537,194.8c1-0.3,1.2-0.3,1.8-0.6c-0.5-0.3-0.7-0.4-1.4-0.7l0.9-0.7c-0.5-0.6-0.7-0.8-1.3-1.3c1-0.3,1.3-0.5,2-0.8
			c-0.5-0.3-0.7-0.4-1.5-0.7l1.4-1.2c0.9,0.4,1.1,0.5,1.8,0.9c0.5-0.3,0.7-0.5,1.2-1.1l1.8,1.1c-0.6,0.6-0.9,0.7-1.2,1
			c0.4,0.3,0.6,0.4,1.2,0.8l-1.2,1l1.2,0.9c-0.6,0.5-0.8,0.6-1.2,0.8c0.4,0.3,0.6,0.4,1.1,0.8l-1.5,1.3h4l0-0.6H545
			c-0.6,0-0.9,0-1.1,0v-1.7c0.2,0,0.5,0,1.1,0h1.3l0-0.6H545c-0.6,0-0.9,0-1.1,0.1v-1.7c0.2,0,0.4,0,1.1,0h1.4l0-0.6h-1.3
			c-0.5,0-0.8,0-1.2,0v-2.2c0.3,0.1,0.8,0.1,1.5,0.1h2.5c0.6,0,1.1,0,1.5-0.1c0,0.5-0.1,1.1-0.1,1.5l-0.3,5.5c0.6,0,0.8,0,1.2-0.1
			c-0.1,0.5-0.1,1-0.1,1.8v0.9c0,0.8,0,1.2,0.1,1.7h-3v-2h-13.3v2h-3c0.1-0.6,0.1-1,0.1-1.8v-0.8c0-0.7,0-1.2-0.1-1.8
			c0.4,0,0.7,0,1.3,0.1l-0.2-5c0-0.7-0.1-1.1-0.1-1.5c1.9-0.1,3.6-0.6,4.5-1.1l1.2,2.2c-0.1,0-0.1,0-0.3,0.1
			c-0.5,0.2-1.7,0.5-2.6,0.6l0,0.5h1.3c0.6,0,0.9,0,1.1-0.1v1.7c-0.3,0-0.5,0-1.1,0h-1.2l0,0.5h1.2c0.6,0,0.9,0,1.1,0L537,194.8
			L537,194.8z M538.2,196.5c-0.4-0.7-0.7-1-1.2-1.5v0.9c-0.3,0-0.5,0-1.1,0h-1.1l0,0.6H538.2L538.2,196.5z M542,196.5
			c-0.6-0.6-0.8-0.7-1.2-1c-1,0.5-1.3,0.6-2.3,1H542z M541.6,192.7c-0.4-0.3-0.5-0.4-0.9-0.7c-0.6,0.4-0.8,0.5-1.3,0.7
			c0.5,0.2,0.7,0.3,1.2,0.6C541.1,193.1,541.2,193,541.6,192.7z"/>
		<path class="st1" d="M557.3,197.1c0-0.5,0-0.7,0-1.2c-0.3,0.1-0.5,0.2-1,0.4c-0.3-1.2-0.6-1.9-1.3-3.1c2-0.5,3.5-1.1,5.1-1.9
			c1.5-0.8,2.6-1.6,3.3-2.4h3.7c1.1,1,2.2,1.8,4,2.6c1.6,0.7,2.9,1.2,4.7,1.6c-0.6,1.1-0.9,1.8-1.3,3.2c-0.5-0.2-0.7-0.2-1.2-0.4
			c0,0.5,0,0.7,0,1.4v2.3c0,0.8,0,1.4,0.1,1.9c-0.7,0-1.3-0.1-2.2-0.1h-11.8c-0.9,0-1.4,0-2.2,0.1c0.1-0.5,0.1-1.1,0.1-1.9
			L557.3,197.1L557.3,197.1z M558.2,204.1c0-0.9,0-1.6-0.1-2.3c0.7,0,1.3,0.1,2.3,0.1h9.9c1,0,1.6,0,2.1-0.1
			c-0.1,0.5-0.1,0.9-0.1,2.2v2.3c0,1.2,0,2.1,0.1,2.7h-3.2v-0.7h-7.9v0.7h-3.2c0.1-0.7,0.1-1.4,0.1-2.6L558.2,204.1L558.2,204.1z
			 M571.1,195.2h0.9c-1-0.4-1.6-0.7-2.6-1.2v0.7c-0.6,0-1.1-0.1-1.6-0.1h-4.7c-0.9,0-1.2,0-1.7,0.1V194c-0.9,0.5-1.5,0.8-2.4,1.2
			L571.1,195.2L571.1,195.2z M560.2,197.1v2.3h1.4c-0.5-0.9-0.6-1.1-1-1.7l1.3-0.6L560.2,197.1L560.2,197.1z M561.3,204.3h7.9v-0.6
			h-7.9V204.3z M561.3,206.5h7.9v-0.6h-7.9V206.5z M562.6,197.1c0.7,0.9,0.7,1,1,1.6l-1.5,0.7h1.9v-2.3H562.6z M567.1,192.7
			c-0.9-0.6-1.2-0.8-2-1.5c-0.7,0.7-1,1-1.7,1.5H567.1z M566.5,197.1v2.3h1.9l-1.5-0.7c0.4-0.6,0.7-1,1-1.6H566.5z M570.3,199.4
			v-2.3h-1.8l1.5,0.6c-0.3,0.6-0.6,1.1-1,1.7H570.3z"/>
	</g>
	<g>
		<path class="st1" d="M178.2,92h-1.8V79.4h1.7V66.7h4.6h8.1V54h-8.1h-4.6h-8.1h-4.6h-8.1h-4.6v12.7h4.6h6.4v12.7h-3.3V92h-7.6v12.7
			h-5.1v12.7h6.9h5.8v12.7v12.7v12.7h5.1h7.6h5.1h7.6h5.1v-12.7v-12.7v-12.7v-12.7V92h-5.1H178.2z M173.1,142.8v-12.7v-12.7v-12.7
			h5.1v12.7h-0.1v12.7h0.1v12.7H173.1z"/>
		<polygon class="st1" points="310.8,116.3 305.8,116.3 305.8,129 305.8,141.7 302,141.7 302,154.4 297,154.4 297,167.1 302,167.1 
			309.7,167.1 314.7,167.1 314.7,154.4 318.5,154.4 318.5,141.7 323.5,141.7 323.5,129 323.5,116.3 318.5,116.3 		"/>
		<polygon class="st1" points="310.8,90.9 310.8,78.2 305,78.2 298.1,78.2 292.3,78.2 292.3,90.9 298.1,90.9 298.1,103.6 305,103.6 
			310.8,103.6 317.7,103.6 323.5,103.6 323.5,90.9 317.7,90.9 		"/>
		<polygon class="st1" points="298.1,52.9 298.1,65.6 310.8,65.6 310.8,74.3 323.5,74.3 323.5,65.6 323.5,61.6 323.5,52.9 
			310.8,52.9 		"/>
		<path class="st1" d="M375.4,131.4h8.2v-10.5v-2.2V106V93.3V80.6h-8.2h-4.5h-8.2H350h-12.7v2.3v10.4v2.3V106v2.2v0v10.4v2.2v10.5
			v2.2v10.5H350v-10.5h8.2h4.5h8.2h4.5L375.4,131.4L375.4,131.4z M362.7,120.9h-4.5H350v-2.2v-10.4v0V106V95.6v-2.3h12.7h8.2V106
			v12.7v2.2H362.7z"/>
		<polygon class="st1" points="471.8,127.7 470.2,127.7 459.1,127.7 457.5,127.7 457.5,140.4 459.1,140.4 459.1,153.1 461.3,153.1 
			471.8,153.1 474,153.1 474,140.4 471.8,140.4 		"/>
		<polygon class="st1" points="486.9,150.6 496.2,150.6 499.6,150.6 499.6,137.9 496.2,137.9 496.2,125.2 493.3,125.2 483.5,125.2 
			480.6,125.2 480.6,137.9 483.5,137.9 483.5,150.6 		"/>
		<polygon class="st1" points="516.2,122.7 507.7,122.7 503.6,122.7 503.6,135.4 507.7,135.4 507.7,148.1 511.2,148.1 520.4,148.1 
			523.9,148.1 523.9,135.4 520.4,135.4 520.4,122.7 		"/>
		<polygon class="st1" points="438.1,127.7 435.4,127.7 435.4,140.4 430.6,140.4 430.6,153.1 428.1,153.1 428.1,165.8 430.6,165.8 
			440.8,165.8 443.3,165.8 443.3,153.1 448.1,153.1 448.1,140.4 450.8,140.4 450.8,127.7 448.1,127.7 		"/>
		<path class="st1" d="M501.6,65.6h12.7H527h12.7V52.9H527h-12.7h-12.7h-12.7h-12.7h-12.7h-12.7h-12.7v5v7.7v5v7.7v5v7.7v5v7.7v5
			v7.7v5h12.7h12.7h12.7h12.7h12.7h12.7H527v6.4v6.4v6.4v6.4v6.2v0.1v1.7h-12.7h-12.7h-12.7h-2.2v12.7h2.2h12.7h12.7H527h12.7v-8
			v-6.4V153v-6.2v-6.4v-6.4v-6.4v-6.4v-12.7H527h-12.7h-12.7h-6.4V106v-2.4h3.6h2.9h12.7H527h8V90.9h-8h-12.7h-12.7h-2.9h-3.6v-7.7
			h6.4h4.1h8.5h4.1h8.5h8V70.6h-8h-8.5h-4.1h-8.5h-4.1h-6.4v-5H501.6z M450.8,65.6h12.7h12.7h6.3v5h-2.1h-4.1h-8.5h-4.1H455h-4.1
			V65.6z M450.8,83.3h4.1h8.5h4.1h8.5h4.1h2.1v7.7h0h-2.1h-4.1h-8.5h-4.1H455h-4.1V83.3z M482.5,108.7h-6.3h-12.7h-12.7v-5h4.1h8.5
			h4.1h8.5h4.1h2.1h0v2.4V108.7z"/>
		<polygon class="st1" points="405.2,52.9 397,52.9 392.5,52.9 384.3,52.9 379.8,52.9 371.6,52.9 367.1,52.9 358.9,52.9 354.4,52.9 
			346.2,52.9 341.7,52.9 335.4,52.9 329,52.9 329,65.6 335.4,65.6 341.7,65.6 346.2,65.6 354.4,65.6 358.9,65.6 367.1,65.6 
			371.6,65.6 379.8,65.6 384.3,65.6 392.5,65.6 397,65.6 397,78.2 397,90.9 397,103.6 397,116.3 397,121.4 397,129 397,134.1 
			397,141.7 397,146.8 397,152.4 397,152.4 397,153.7 384.3,153.7 371.6,153.7 371.6,166.4 384.3,166.4 397,166.4 409.7,166.4 
			409.7,159.4 409.7,152.4 409.7,152.4 409.7,146.8 409.7,141.7 409.7,134.1 409.7,129 409.7,121.4 409.7,116.3 409.7,103.6 
			409.7,90.9 409.7,78.2 409.7,65.6 417.9,65.6 417.9,52.9 409.7,52.9 		"/>
		<path class="st1" d="M260.6,54H255h-7h-5.7v-6.1h-12.7V54h-7h-5.7h-7h-5.7h-7v12.7h7h5.7h7h5.7h7v4h-7h-8.5h-4.2h-12.7V74v9.3v3.4
			V96v3.4v9.3v3.4h12.7v2.7h12.7h7v2.7h-7h-12.7h-12.7v12.7h12.7h12.7h12.7h12.7v2.7h-4.1h-8.6h-4.1h-8.6h-4.1h-8.6h-4.1h-8.6h-4.1
			v12.7h4.1h8.6h4.1h8.6h4.1h8.6h4.1h8.6h4.1v8.7h-12.7h-12.7v-5.2h-6.4h-6.4h-6.4v12.7h6.4h6.4h6.4v5.2h12.7h12.7h12.7v-8.7v-4l0,0
			v-8.7h8.6h4.1v-12.7h-4.1h-8.6v-2.7h12.7v-6.4v-6.4v-6.4h-12.7v-2.4h12.7V96V83.3V70.6h-12.7h-12.7h-5.7v-4h5.7h7h5.7h7h5.7V54
			h-5.7H260.6z M209.9,83.3h4.2h8.5h7v3.4h-7h-8.5h-4.2V83.3z M222.6,102.1h-12.7v-2.7h4.2h8.5h7v2.7H222.6z M260.6,117.4h-12.7
			h-5.7v-2.7h5.7h4.2h8.5V117.4z M260.6,102.1h-8.5h-4.2h-5.7v-2.7h5.7h12.7V102.1z M247.9,83.3h12.7v3.4h-12.7h-5.7v-3.4H247.9z"/>
		<polygon class="st1" points="124,153.6 124,140.9 111.3,140.9 111.3,128.2 102.5,128.2 102.5,115.5 110.7,115.5 119,115.5 
			119,102.8 123.4,102.8 123.4,90.1 131.7,90.1 131.7,77.4 123.4,77.4 119,77.4 110.7,77.4 110.7,90.1 106.3,90.1 106.3,102.8 
			102.5,102.8 98.7,102.8 98.7,115.5 98.7,115.5 89.8,115.5 89.8,102.8 89.8,90.1 89.8,77.4 77.1,77.4 77.1,90.1 77.1,102.8 
			77.1,115.5 73.3,115.5 73.3,102.8 67,102.8 67,90.1 59.3,90.1 55.8,90.1 55.8,77.4 53,77.4 53,67.2 60.6,67.2 66.9,67.2 
			73.3,67.2 79.6,67.2 86,67.2 92.3,67.2 98.7,67.2 105,67.2 111.3,67.2 119,67.2 124,67.2 131.7,67.2 131.7,54.5 124,54.5 
			119,54.5 111.3,54.5 105,54.5 98.7,54.5 92.3,54.5 86,54.5 79.6,54.5 73.3,54.5 66.9,54.5 60.6,54.5 53,54.5 53,48.2 49.2,48.2 
			40.3,48.2 36.5,48.2 36.5,54.5 35.2,54.5 27.6,54.5 22.5,54.5 14.9,54.5 14.9,67.2 22.5,67.2 27.6,67.2 35.2,67.2 36.5,67.2 
			36.5,77.4 34,77.4 34,90.1 32.7,90.1 26.4,90.1 26.4,102.7 20.2,102.7 20.2,115.4 20.1,115.4 20.1,115.5 13.8,115.5 13.8,128.2 
			26.5,128.2 26.5,128.1 32.8,128.1 32.8,115.5 39.1,115.5 39.1,102.8 45.4,102.8 45.4,90.1 46.6,90.1 46.6,102.8 51.7,102.8 
			51.7,115.5 59.1,115.5 66.9,115.5 67,115.5 67,128.2 60.7,128.2 54.3,128.2 48,128.2 48,140.9 47.9,140.9 41.6,140.9 35.2,140.9 
			35.2,153.6 28.9,153.6 22.5,153.6 16.2,153.6 16.2,166.3 22.5,166.3 28.9,166.3 35.2,166.3 41.6,166.3 47.9,166.3 47.9,153.6 
			54.3,153.6 60.6,153.6 60.6,140.9 60.7,140.9 67,140.9 73.4,140.9 79.7,140.9 79.7,128.2 89.8,128.2 91.4,128.2 91.4,140.9 
			98.7,140.9 98.7,153.6 111.3,153.6 111.3,166.3 124,166.3 131.7,166.3 136.7,166.3 136.7,153.6 131.7,153.6 		"/>
	</g>
</g>
</svg>
