<?xml version="1.0" encoding="utf-8"?>
<!-- Generator: Adobe Illustrator 23.0.0, SVG Export Plug-In . SVG Version: 6.00 Build 0)  -->
<svg version="1.1" xmlns="http://www.w3.org/2000/svg" xmlns:xlink="http://www.w3.org/1999/xlink" x="0px" y="0px"
	 viewBox="0 0 796.01 709.62" style="enable-background:new 0 0 796.01 709.62;" xml:space="preserve">
<style type="text/css">
	.st0{clip-path:url(#SVGID_2_);}
	.st1{fill:#153660;}
	.st2{opacity:0.8;}
	.st3{fill:url(#SVGID_3_);}
	.st4{fill:url(#SVGID_4_);}
	.st5{fill:url(#SVGID_5_);}
	.st6{fill:url(#SVGID_6_);}
	.st7{fill:url(#SVGID_7_);}
	.st8{fill:url(#SVGID_8_);}
	.st9{fill:url(#SVGID_9_);}
	.st10{fill:url(#SVGID_10_);}
	.st11{fill:url(#SVGID_11_);}
	.st12{fill:url(#SVGID_12_);}
	.st13{fill:url(#SVGID_13_);}
	.st14{fill:url(#SVGID_14_);}
	.st15{fill:url(#SVGID_15_);}
	.st16{fill:url(#SVGID_16_);}
	.st17{fill:url(#SVGID_17_);}
	.st18{fill:none;}
	.st19{fill:#E83632;}
	.st20{fill:url(#SVGID_18_);}
	.st21{fill:url(#SVGID_19_);}
	.st22{fill:url(#SVGID_20_);}
	.st23{fill:url(#SVGID_21_);}
	.st24{fill:url(#SVGID_22_);}
	.st25{fill:url(#SVGID_23_);}
	.st26{fill:url(#SVGID_24_);}
	.st27{fill:url(#SVGID_25_);}
	.st28{fill:url(#SVGID_26_);}
	.st29{fill:url(#SVGID_27_);}
	.st30{fill:url(#SVGID_28_);}
	.st31{fill:url(#SVGID_29_);}
	.st32{fill:url(#SVGID_30_);}
	.st33{fill:url(#SVGID_31_);}
	.st34{fill:url(#SVGID_32_);}
	.st35{fill:url(#SVGID_33_);}
	.st36{fill:url(#SVGID_34_);}
	.st37{fill:#69B1E2;}
	.st38{fill:#D03076;}
	.st39{fill:#D03277;}
	.st40{fill:#CF3377;}
	.st41{fill:#CF3578;}
	.st42{fill:#CF3678;}
	.st43{fill:#CE3779;}
	.st44{fill:#CE387A;}
	.st45{fill:#CE3A7A;}
	.st46{fill:#CD3B7B;}
	.st47{fill:#CD3C7B;}
	.st48{fill:#CD3D7C;}
	.st49{fill:#CD3F7C;}
	.st50{fill:#CC407D;}
	.st51{fill:#CC417D;}
	.st52{fill:#CC427E;}
	.st53{fill:#CB437E;}
	.st54{fill:#CB447F;}
	.st55{fill:#CB457F;}
	.st56{fill:#CA4680;}
	.st57{fill:#CA4780;}
	.st58{fill:#CA4981;}
	.st59{fill:#C94A82;}
	.st60{fill:#C94B82;}
	.st61{fill:#C94C83;}
	.st62{fill:#C84D84;}
	.st63{fill:#C84E84;}
	.st64{fill:#C84F85;}
	.st65{fill:#C75085;}
	.st66{fill:#C75186;}
	.st67{fill:#C75286;}
	.st68{fill:#C65387;}
	.st69{fill:#C65487;}
	.st70{fill:#C55588;}
	.st71{fill:#C55688;}
	.st72{fill:#C55789;}
	.st73{fill:#C4578A;}
	.st74{fill:#C4588A;}
	.st75{fill:#C4598B;}
	.st76{fill:#C35A8B;}
	.st77{fill:#C35B8C;}
	.st78{fill:#C35C8C;}
	.st79{fill:#C25D8D;}
	.st80{fill:#C25E8E;}
	.st81{fill:#C15F8F;}
	.st82{fill:#C1608F;}
	.st83{fill:#C16190;}
	.st84{fill:#C06290;}
	.st85{fill:#C06291;}
	.st86{fill:#C06392;}
	.st87{fill:#BF6492;}
	.st88{fill:#BF6593;}
	.st89{fill:#BF6693;}
	.st90{fill:#BE6694;}
	.st91{fill:#BE6794;}
	.st92{fill:#BE6895;}
	.st93{fill:#BD6996;}
	.st94{fill:#BD6A96;}
	.st95{fill:#BC6A97;}
	.st96{fill:#BC6B97;}
	.st97{fill:#BC6C98;}
	.st98{fill:#BB6D98;}
	.st99{fill:#BB6D99;}
	.st100{fill:#BA6E9A;}
	.st101{fill:#BA6F9A;}
	.st102{fill:#BA709B;}
	.st103{fill:#B9709B;}
	.st104{fill:#B9719C;}
	.st105{fill:#B9729D;}
	.st106{fill:#B8729D;}
	.st107{fill:#B8739E;}
	.st108{fill:#B7749E;}
	.st109{fill:#B7759F;}
	.st110{fill:#B775A0;}
	.st111{fill:#B676A0;}
	.st112{fill:#B677A1;}
	.st113{fill:#B577A1;}
	.st114{fill:#B578A2;}
	.st115{fill:#B579A3;}
	.st116{fill:#B47AA3;}
	.st117{fill:#B47AA4;}
	.st118{fill:#B37BA4;}
	.st119{fill:#B37CA5;}
	.st120{fill:#B37CA6;}
	.st121{fill:#B27DA6;}
	.st122{fill:#B27EA7;}
	.st123{fill:#B17EA7;}
	.st124{fill:#B17FA8;}
	.st125{fill:#B080A9;}
	.st126{fill:#AF81AA;}
	.st127{fill:#AE82AB;}
	.st128{fill:#AE83AC;}
	.st129{fill:#AD84AD;}
	.st130{fill:#AD85AD;}
	.st131{fill:#AC85AE;}
	.st132{fill:#AC86AF;}
	.st133{fill:#AB86AF;}
	.st134{fill:#AB87B0;}
	.st135{fill:#AA88B0;}
	.st136{fill:#AA88B1;}
	.st137{fill:#A989B2;}
	.st138{fill:#A88AB3;}
	.st139{fill:#A88BB3;}
	.st140{fill:#A78BB4;}
	.st141{fill:#A78CB4;}
	.st142{fill:#A68CB5;}
	.st143{fill:#A68DB6;}
	.st144{fill:#A58EB6;}
	.st145{fill:#A58EB7;}
	.st146{fill:#A48FB7;}
	.st147{fill:#A48FB8;}
	.st148{fill:#A390B9;}
	.st149{fill:#A291BA;}
	.st150{fill:#A191BA;}
	.st151{fill:#A192BB;}
	.st152{fill:#A093BC;}
	.st153{fill:#9F94BD;}
	.st154{fill:#9E95BE;}
	.st155{fill:#9D95BF;}
	.st156{fill:#9D96BF;}
	.st157{fill:#9C96C0;}
	.st158{fill:#9C97C0;}
	.st159{fill:#9B97C1;}
	.st160{fill:#9A98C1;}
	.st161{fill:#9A98C2;}
	.st162{fill:#9999C3;}
	.st163{fill:#989AC4;}
	.st164{fill:#979AC4;}
	.st165{fill:#979BC5;}
	.st166{fill:#969BC6;}
	.st167{fill:#959CC6;}
	.st168{fill:#959CC7;}
	.st169{fill:#949DC7;}
	.st170{fill:#939DC8;}
	.st171{fill:#939EC8;}
	.st172{fill:#929EC9;}
	.st173{fill:#919FCA;}
	.st174{fill:#90A0CB;}
	.st175{fill:#8FA0CB;}
	.st176{fill:#8EA1CC;}
	.st177{fill:#8DA2CD;}
	.st178{fill:#8CA2CE;}
	.st179{fill:#8BA2CE;}
	.st180{fill:#8BA3CF;}
	.st181{fill:#8AA3CF;}
	.st182{fill:#89A4D0;}
	.st183{fill:#88A4D0;}
	.st184{fill:#88A5D1;}
	.st185{fill:#87A5D2;}
	.st186{fill:#86A5D2;}
	.st187{fill:#85A6D3;}
	.st188{fill:#84A6D3;}
	.st189{fill:#84A7D4;}
	.st190{fill:#83A7D4;}
	.st191{fill:#82A7D5;}
	.st192{fill:#81A8D5;}
	.st193{fill:#80A8D6;}
	.st194{fill:#7FA9D7;}
	.st195{fill:#7EA9D8;}
	.st196{fill:#7DAAD8;}
	.st197{fill:#7CAAD9;}
	.st198{fill:#7BABD9;}
	.st199{fill:#7AABDA;}
	.st200{fill:#79ABDA;}
	.st201{fill:#78ACDB;}
	.st202{fill:#77ACDB;}
	.st203{fill:#76ACDC;}
	.st204{fill:#75ADDC;}
	.st205{fill:#74ADDD;}
	.st206{fill:#73ADDE;}
	.st207{fill:#72AEDE;}
	.st208{fill:#71AEDF;}
	.st209{fill:#70AFDF;}
	.st210{fill:#6FAFE0;}
	.st211{fill:#6EAFE0;}
	.st212{fill:#6DB0E0;}
	.st213{fill:#6CB0E1;}
	.st214{fill:#6BB0E1;}
	.st215{fill:#6AB1E2;}
	.st216{fill:url(#SVGID_35_);}
	.st217{fill:url(#SVGID_36_);}
	.st218{fill:url(#SVGID_37_);}
	.st219{fill:url(#SVGID_38_);}
	.st220{fill:url(#SVGID_39_);}
	.st221{fill:url(#SVGID_40_);}
	.st222{fill:url(#SVGID_41_);}
	.st223{fill:url(#SVGID_42_);}
	.st224{fill:url(#SVGID_43_);}
	.st225{fill:url(#SVGID_44_);}
	.st226{fill:url(#SVGID_45_);}
	.st227{fill:url(#SVGID_46_);}
	.st228{fill:url(#SVGID_47_);}
	.st229{fill:url(#SVGID_48_);}
	.st230{fill:#F4F4F4;}
	.st231{clip-path:url(#SVGID_2_);fill:#69B1E2;}
	.st232{fill:url(#SVGID_49_);}
	.st233{fill:url(#SVGID_50_);}
	.st234{fill:url(#SVGID_51_);}
	.st235{fill:url(#SVGID_52_);}
	.st236{fill:url(#SVGID_53_);}
	.st237{fill:url(#SVGID_54_);}
	.st238{fill:url(#SVGID_55_);}
	.st239{fill:url(#SVGID_56_);}
	.st240{fill:url(#SVGID_57_);}
	.st241{fill:url(#SVGID_58_);}
	.st242{fill:url(#SVGID_59_);}
	.st243{fill:url(#SVGID_60_);}
	.st244{fill:url(#SVGID_61_);}
	.st245{fill:url(#SVGID_62_);}
	.st246{fill:url(#SVGID_63_);}
	.st247{fill:url(#SVGID_64_);}
	.st248{fill:url(#SVGID_65_);}
	.st249{fill:url(#SVGID_66_);}
	.st250{fill:url(#SVGID_67_);}
	.st251{fill:url(#SVGID_68_);}
	.st252{fill:url(#SVGID_69_);}
	.st253{fill:url(#SVGID_70_);}
	.st254{fill:url(#SVGID_71_);}
	.st255{fill:url(#SVGID_72_);}
	.st256{fill:url(#SVGID_73_);}
	.st257{fill:url(#SVGID_74_);}
	.st258{fill:url(#SVGID_75_);}
	.st259{fill:url(#SVGID_76_);}
	.st260{fill:url(#SVGID_77_);}
	.st261{fill:url(#SVGID_78_);}
	.st262{fill:url(#SVGID_79_);}
	.st263{fill:url(#SVGID_80_);}
	.st264{fill:url(#SVGID_81_);}
	.st265{fill:url(#SVGID_82_);}
	.st266{fill:url(#SVGID_83_);}
	.st267{fill:url(#SVGID_84_);}
	.st268{fill:url(#SVGID_85_);}
	.st269{fill:url(#SVGID_86_);}
	.st270{fill:url(#SVGID_87_);}
	.st271{fill:url(#SVGID_88_);}
	.st272{fill:url(#SVGID_89_);}
	.st273{fill:url(#SVGID_90_);}
	.st274{fill:url(#SVGID_91_);}
	.st275{fill:url(#SVGID_92_);}
	.st276{fill:url(#SVGID_93_);}
	.st277{fill:url(#SVGID_94_);}
	.st278{fill:url(#SVGID_95_);}
	.st279{fill:url(#SVGID_96_);}
	.st280{fill:url(#SVGID_97_);}
	.st281{fill:url(#SVGID_98_);}
	.st282{fill:url(#SVGID_99_);}
	.st283{fill:url(#SVGID_100_);}
	.st284{fill:url(#SVGID_101_);}
	.st285{fill:url(#SVGID_102_);}
	.st286{fill:url(#SVGID_103_);}
	.st287{fill:url(#SVGID_104_);}
	.st288{fill:url(#SVGID_105_);}
	.st289{fill:url(#SVGID_106_);}
	.st290{fill:url(#SVGID_107_);}
	.st291{fill:url(#SVGID_108_);}
	.st292{fill:url(#SVGID_109_);}
	.st293{fill:url(#SVGID_110_);}
	.st294{fill:url(#SVGID_111_);}
	.st295{fill:url(#SVGID_112_);}
	.st296{fill:url(#SVGID_113_);}
	.st297{fill:url(#SVGID_114_);}
	.st298{fill:url(#SVGID_115_);}
	.st299{fill:url(#SVGID_116_);}
	.st300{fill:url(#SVGID_117_);}
	.st301{fill:url(#SVGID_118_);}
	.st302{fill:url(#SVGID_119_);}
	.st303{fill:url(#SVGID_120_);}
	.st304{fill:url(#SVGID_121_);}
	.st305{fill:url(#SVGID_122_);}
	.st306{fill:url(#SVGID_123_);}
	.st307{fill:url(#SVGID_124_);}
	.st308{fill:url(#SVGID_125_);}
	.st309{fill:url(#SVGID_126_);}
	.st310{fill:url(#SVGID_127_);}
	.st311{fill:url(#SVGID_128_);}
	.st312{fill:url(#SVGID_129_);}
	.st313{fill:url(#SVGID_130_);}
	.st314{fill:url(#SVGID_131_);}
	.st315{fill:url(#SVGID_132_);}
	.st316{fill:url(#SVGID_133_);}
	.st317{fill:url(#SVGID_134_);}
	.st318{fill:url(#SVGID_135_);}
	.st319{fill:url(#SVGID_136_);}
	.st320{fill:url(#SVGID_137_);}
	.st321{fill:url(#SVGID_138_);}
	.st322{fill:url(#SVGID_139_);}
	.st323{fill:url(#SVGID_140_);}
	.st324{fill:url(#SVGID_141_);}
	.st325{fill:#040000;}
	.st326{fill:url(#SVGID_142_);}
	.st327{fill:url(#SVGID_143_);}
	.st328{fill:url(#SVGID_144_);}
	.st329{fill:url(#SVGID_145_);}
	.st330{fill:url(#SVGID_146_);}
	.st331{fill:url(#SVGID_147_);}
	.st332{fill:url(#SVGID_148_);}
	.st333{fill:url(#SVGID_149_);}
	.st334{fill:url(#SVGID_150_);}
	.st335{fill:url(#SVGID_151_);}
	.st336{fill:url(#SVGID_152_);}
	.st337{fill:url(#SVGID_153_);}
	.st338{fill:url(#SVGID_154_);}
	.st339{fill:url(#SVGID_155_);}
	.st340{fill:#C23370;}
	.st341{fill:#69A8D5;}
	.st342{fill:#FFFFFF;}
	.st343{fill:url(#SVGID_156_);}
	.st344{fill:url(#SVGID_157_);}
	.st345{fill:url(#SVGID_158_);}
	.st346{fill:url(#SVGID_159_);}
	.st347{fill:url(#SVGID_160_);}
	.st348{fill:url(#SVGID_161_);}
	.st349{fill:url(#SVGID_162_);}
	.st350{fill:url(#SVGID_163_);}
	.st351{fill:url(#SVGID_164_);}
	.st352{fill:url(#SVGID_165_);}
	.st353{fill:url(#SVGID_166_);}
	.st354{fill:url(#SVGID_167_);}
	.st355{fill:url(#SVGID_168_);}
	.st356{fill:url(#SVGID_169_);}
	.st357{fill:url(#SVGID_170_);}
	.st358{fill:url(#SVGID_171_);}
	.st359{fill:url(#SVGID_172_);}
	.st360{fill:url(#SVGID_173_);}
	.st361{fill:url(#SVGID_174_);}
	.st362{fill:url(#SVGID_175_);}
	.st363{fill:url(#SVGID_176_);}
	.st364{fill:url(#SVGID_177_);}
	.st365{fill:url(#SVGID_178_);}
	.st366{fill:url(#SVGID_179_);}
	.st367{fill:url(#SVGID_180_);}
	.st368{fill:url(#SVGID_181_);}
	.st369{fill:url(#SVGID_182_);}
	.st370{fill:url(#SVGID_183_);}
	.st371{fill:url(#SVGID_184_);}
	.st372{fill:url(#SVGID_185_);}
	.st373{fill:url(#SVGID_186_);}
	.st374{fill:url(#SVGID_187_);}
	.st375{fill:url(#SVGID_188_);}
	.st376{fill:url(#SVGID_189_);}
	.st377{fill:url(#SVGID_190_);}
	.st378{fill:url(#SVGID_191_);}
	.st379{fill:url(#SVGID_192_);}
	.st380{fill:url(#SVGID_193_);}
	.st381{fill:url(#SVGID_194_);}
	.st382{fill:url(#SVGID_195_);}
	.st383{fill:url(#SVGID_196_);}
	.st384{fill:url(#SVGID_197_);}
	.st385{fill:url(#SVGID_198_);}
	.st386{fill:url(#SVGID_199_);}
</style>
<g id="圖層_1">
</g>
<g id="圖層_2">
</g>
<g id="圖層_3">
	<g id="圖層_4">
	</g>
	<g id="圖層_5">
	</g>
	<g>
		<g>
			<path class="st37" d="M107.64,514.58l6.66-8.11c3.49,2.97,8.04,5.01,11.93,5.01c4.35,0,6.4-1.65,6.4-4.29
				c0-2.84-2.7-3.76-6.92-5.54l-6.26-2.64c-5.14-2.04-9.96-6.33-9.96-13.45c0-8.24,7.39-14.84,17.8-14.84
				c5.67,0,11.67,2.18,15.96,6.46l-5.87,7.38c-3.23-2.44-6.26-3.76-10.09-3.76c-3.63,0-5.87,1.45-5.87,4.09
				c0,2.7,3.1,3.76,7.45,5.47l6.13,2.44c6.07,2.44,9.69,6.53,9.69,13.45c0,8.18-6.86,15.36-18.73,15.36
				C119.57,521.63,112.72,519.26,107.64,514.58z"/>
			<path class="st37" d="M162.95,503.37l-14.77-31.72h12.53l4.09,10.88c1.32,3.69,2.57,7.12,3.96,10.95h0.26
				c1.38-3.82,2.7-7.25,4.09-10.95l4.09-10.88h12.33l-14.84,31.72v17.34h-11.74V503.37z"/>
			<path class="st37" d="M197.56,471.65h12.73l7.78,21.17c0.99,2.84,1.78,5.93,2.7,8.97h0.33c0.99-3.03,1.78-6.13,2.7-8.97
				l7.52-21.17h12.79v49.06h-10.75V503.9c0-4.88,0.92-12.2,1.52-17.01h-0.26l-4.09,11.74l-6.59,17.93h-6.46l-6.66-17.93l-3.96-11.74
				h-0.26c0.59,4.81,1.52,12.13,1.52,17.01v16.81h-10.55V471.65z"/>
			<path class="st37" d="M258.41,471.65h17.14c10.15,0,18.26,2.7,18.26,12.13c0,4.35-2.44,9.1-6.4,10.62v0.26
				c4.95,1.32,8.7,5.01,8.7,11.54c0,10.02-8.51,14.51-19.19,14.51h-18.53V471.65z M275.09,491.1c5.01,0,7.25-2.18,7.25-5.54
				c0-3.49-2.31-4.95-7.25-4.95h-4.88v10.48H275.09z M276.08,511.68c5.67,0,8.57-2.04,8.57-6.26c0-4.02-2.84-5.6-8.57-5.6h-5.87
				v11.87H276.08z"/>
			<path class="st37" d="M307.26,471.65h11.8v49.06h-11.8V471.65z"/>
			<path class="st37" d="M331.12,495.92c0-16.09,9.1-25.19,22.48-25.19s22.48,9.17,22.48,25.19c0,16.09-9.1,25.72-22.48,25.72
				S331.12,512.01,331.12,495.92z M364.09,495.92c0-9.49-4.02-15.1-10.48-15.1s-10.42,5.6-10.42,15.1c0,9.56,3.96,15.56,10.42,15.56
				S364.09,505.48,364.09,495.92z"/>
			<path class="st37" d="M395.54,481.41h-13.25v-9.76h38.37v9.76h-13.32v39.3h-11.8V481.41z"/>
			<path class="st37" d="M431.26,471.65h31.12v9.76h-19.32v9.1h16.42v9.89h-16.42v10.42h20.05v9.89h-31.85V471.65z"/>
		</g>
		<path class="st37" d="M392.84,419.08v-43.92h48.08v-19.42h-48.08V325.7h55.94v-19.65h-55.94V144.01c3.29-2.75,5.38-6.88,5.38-11.5
			c0-8.27-6.71-14.98-14.98-14.98c-8.27,0-14.98,6.71-14.98,14.98c0,4.51,2.01,8.55,5.17,11.3v162.24h-38.83l12.48-34.21H326.5
			l-29.12,80.21h20.8l9.71-26.35h45.54v30.05h-45.77v19.42h45.77v43.92h-70.27v19.65h159.96v-19.65H392.84z"/>
		<g>
			<rect x="574.88" y="366.32" class="st37" width="76.69" height="35.36"/>
			<path class="st37" d="M775.75,415.03c-6.28,0-11.65,3.87-13.88,9.36H639.3l6.57-13.15h-15.56l-6.35,13.15h-19.94l-6.79-13.15
				h-15.56l6.79,13.15h-29.56v-66.83h104.28v-13.8h-90.94v-9.2h84.59v-54.78h-24.76v-11.83H619.8v11.83h-12.93v-11.83h-12.71v11.83
				h-24.54v37.91h-5.24v-46.89h-60.6v46.89h-14.36v30.68h13.59v215.51c-4.29,2.71-7.15,7.48-7.15,12.93
				c0,8.45,6.85,15.29,15.29,15.29c8.45,0,15.29-6.85,15.29-15.29c0-5.51-2.92-10.32-7.29-13.01V500v-8.83v-83.43h23.59v33.09h16.15
				v-2.41h204.44c2.69,3.97,7.25,6.58,12.41,6.58c8.27,0,14.98-6.71,14.98-14.98C790.73,421.74,784.03,415.03,775.75,415.03z
				 M632.07,291.39h13.15v8.98h-13.15V291.39z M632.07,313.3h13.15v9.42h-13.15V313.3z M606.87,291.39h12.93v8.98h-12.93V291.39z
				 M606.87,313.3h12.93v9.42h-12.93V313.3z M581.24,291.39h12.93v8.98h-12.93V291.39z M581.24,313.3h12.93v9.42h-12.93V313.3z
				 M518.14,283.06h25.64v10.3H524.3v24.32h-6.15V283.06z M543.78,304.97v12.71h-6.15v-12.71H543.78z M542.76,393.93h-23.59v-13.15
				h23.59V393.93z M542.76,366.98h-23.59v-11.17h23.59V366.98z M557.11,342h-52.3v-11.17h52.3V342z"/>
		</g>
		<g>
			<polygon class="st37" points="213.74,404.75 239.4,437.34 263.2,437.34 237.31,404.75 			"/>
			<polygon class="st37" points="107.64,437.34 130.75,437.34 154.79,404.75 131.68,404.75 			"/>
			<path class="st37" d="M227.14,366.61v-47.85h33.52V300.5h-33.52v-29.82h-18.26v29.82h-49.47v-29.82h-18.26v29.82h-33.52v18.26
				h33.52v47.85H31.6c-2.75-3.19-6.81-5.22-11.35-5.22c-8.27,0-14.98,6.71-14.98,14.98c0,8.27,6.71,14.98,14.98,14.98
				c5.01,0,9.44-2.47,12.16-6.25h238.65v-18.49H227.14z M208.88,366.61h-49.47v-47.85h49.47V366.61z"/>
		</g>
	</g>
</g>
</svg>
