<svg id="圖層_1" data-name="圖層 1" xmlns="http://www.w3.org/2000/svg" xmlns:xlink="http://www.w3.org/1999/xlink" viewBox="0 0 348 341">
  <defs>
    <style>
      .cls-1 {
        fill: url(#未命名漸層_3);
      }

      .cls-2 {
        fill: url(#未命名漸層_4);
      }

      .cls-3 {
        fill: url(#未命名漸層_5);
      }

      .cls-4 {
        fill: url(#未命名漸層_6);
      }

      .cls-5 {
        fill: url(#未命名漸層_7);
      }

      .cls-6 {
        fill: url(#未命名漸層_8);
      }

      .cls-7 {
        fill: url(#未命名漸層_13);
      }

      .cls-8 {
        fill: url(#未命名漸層_14);
      }

      .cls-9 {
        fill: url(#未命名漸層_15);
      }

      .cls-10 {
        fill: #e73632;
      }

      .cls-11 {
        fill: url(#未命名漸層_16);
      }

      .cls-12 {
        fill: url(#未命名漸層_17);
      }

      .cls-13 {
        fill: url(#未命名漸層_18);
      }

      .cls-14 {
        fill: url(#未命名漸層_19);
      }

      .cls-15 {
        fill: url(#未命名漸層_20);
      }
    </style>
    <radialGradient id="未命名漸層_3" data-name="未命名漸層 3" cx="1336.62" cy="-453.37" r="90.65" gradientTransform="matrix(1, 0, 0, -1, 0, 317)" gradientUnits="userSpaceOnUse">
      <stop offset="0" stop-color="#21abda"/>
      <stop offset="1" stop-color="#e52676"/>
    </radialGradient>
    <radialGradient id="未命名漸層_4" data-name="未命名漸層 4" cx="1418.09" cy="-627.73" r="6.38" xlink:href="#未命名漸層_3"/>
    <radialGradient id="未命名漸層_5" data-name="未命名漸層 5" cx="1460.14" cy="-569.74" r="15.91" xlink:href="#未命名漸層_3"/>
    <radialGradient id="未命名漸層_6" data-name="未命名漸層 6" cx="1249.36" cy="-591.52" r="36.73" xlink:href="#未命名漸層_3"/>
    <radialGradient id="未命名漸層_7" data-name="未命名漸層 7" cx="1224.24" cy="-529.51" r="85.81" xlink:href="#未命名漸層_3"/>
    <radialGradient id="未命名漸層_8" data-name="未命名漸層 8" cx="1419.42" cy="-511.18" r="108.9" xlink:href="#未命名漸層_3"/>
    <radialGradient id="未命名漸層_13" data-name="未命名漸層 13" cx="1344.15" cy="-508.74" r="153.3" xlink:href="#未命名漸層_3"/>
    <radialGradient id="未命名漸層_14" data-name="未命名漸層 14" cx="1387.47" cy="-511.93" r="103.27" xlink:href="#未命名漸層_3"/>
    <radialGradient id="未命名漸層_15" data-name="未命名漸層 15" cx="1242.27" cy="-531.63" r="77.25" xlink:href="#未命名漸層_3"/>
    <linearGradient id="未命名漸層_16" data-name="未命名漸層 16" x1="1378.51" y1="-543.02" x2="1379.04" y2="-671.51" gradientTransform="matrix(0, -1, -1, 0, -345.26, 1550.15)" gradientUnits="userSpaceOnUse">
      <stop offset="0" stop-color="#21abda"/>
      <stop offset="0.11" stop-color="#24a9d8"/>
      <stop offset="0.19" stop-color="#2ea2d3"/>
      <stop offset="0.27" stop-color="#4096ca"/>
      <stop offset="0.35" stop-color="#5886be"/>
      <stop offset="0.42" stop-color="#7771ae"/>
      <stop offset="0.49" stop-color="#9d579b"/>
      <stop offset="0.56" stop-color="#ca3884"/>
      <stop offset="0.6" stop-color="#e52676"/>
    </linearGradient>
    <linearGradient id="未命名漸層_17" data-name="未命名漸層 17" x1="1409.05" y1="-541.72" x2="1419.64" y2="-808.7" gradientTransform="matrix(0, -1, -1, 0, -345.26, 1550.15)" xlink:href="#未命名漸層_3"/>
    <linearGradient id="未命名漸層_18" data-name="未命名漸層 18" x1="1319.71" y1="-545.26" x2="1330.29" y2="-812.24" gradientTransform="matrix(0, -1, -1, 0, -345.26, 1550.15)" xlink:href="#未命名漸層_3"/>
    <linearGradient id="未命名漸層_19" data-name="未命名漸層 19" x1="1375.26" y1="-543.06" x2="1385.85" y2="-810.04" gradientTransform="matrix(0, -1, -1, 0, -345.26, 1550.15)" xlink:href="#未命名漸層_3"/>
    <linearGradient id="未命名漸層_20" data-name="未命名漸層 20" x1="1337.77" y1="-544.54" x2="1348.35" y2="-811.53" gradientTransform="matrix(0, -1, -1, 0, -345.26, 1550.15)" xlink:href="#未命名漸層_3"/>
  </defs>
  <title>section1_point</title>
  <path class="cls-1" d="M110.9,281.5a125.4,125.4,0,0,0,41.2,15l.4-2.3a123,123,0,0,1-40.5-14.8,124.8,124.8,0,0,1-54.6-65A123.5,123.5,0,0,1,50,172h0A123.6,123.6,0,0,1,79.1,92.3a125,125,0,0,1,33-27.7l-1.1-2a127.3,127.3,0,0,0-55.6,66.2A125.8,125.8,0,0,0,47.7,172h0a125.8,125.8,0,0,0,29.6,81.2A127.3,127.3,0,0,0,110.9,281.5Z"/>
  <path class="cls-2" d="M270.9,90.8l-1.8,1.5a124.4,124.4,0,0,1,9.6,13.1l1.1-2.6A129.3,129.3,0,0,0,270.9,90.8Z"/>
  <path class="cls-3" d="M195.7,49.8a123,123,0,0,1,40.5,14.8l1.2-2a125.4,125.4,0,0,0-41.2-15Z"/>
  <path class="cls-4" d="M269.1,251.7a125,125,0,0,1-33,27.7,123,123,0,0,1-40.5,14.8l.4,2.3a125.4,125.4,0,0,0,41.3-15,127.4,127.4,0,0,0,43.6-41.8l-1.1-2.6A123.8,123.8,0,0,1,269.1,251.7Z"/>
  <path class="cls-5" d="M287.6,267.2a149.6,149.6,0,0,1-39.4,33.1A148,148,0,0,1,60.6,267.2l-1.8,1.5a151.7,151.7,0,0,0,40,33.6,150.3,150.3,0,0,0,150.6,0,151.6,151.6,0,0,0,40-33.6l4.3-5.4-1.3-2.1Z"/>
  <path class="cls-6" d="M289.4,75.3a151.6,151.6,0,0,0-40-33.6A150.5,150.5,0,0,0,23.6,172h2.3A147.5,147.5,0,0,1,60.6,76.8,149.4,149.4,0,0,1,100,43.6,147.2,147.2,0,0,1,148.4,26a149.1,149.1,0,0,1,51.5,0,147.2,147.2,0,0,1,48.4,17.6,149.6,149.6,0,0,1,39.4,33.1L291,81l1.3-2.1Z"/>
  <path class="cls-7" d="M298.4,67.7A162.1,162.1,0,0,0,93,31.5a163.4,163.4,0,0,0-71.4,85A161.8,161.8,0,0,0,11.8,172h0a161.5,161.5,0,0,0,38,104.3,162.5,162.5,0,0,0,152.5,55.6l-.2-1.1a162.4,162.4,0,0,1-56,0,160.3,160.3,0,0,1-52.6-19.2,162.1,162.1,0,0,1-70.9-84.4A160.3,160.3,0,0,1,12.9,172h0A160.5,160.5,0,0,1,50.7,68.4a162.3,162.3,0,0,1,42.8-36,160.3,160.3,0,0,1,52.6-19.2,162.4,162.4,0,0,1,56,0,160.3,160.3,0,0,1,52.6,19.2,162.5,162.5,0,0,1,42.8,36l1,1.2.7-1Z"/>
  <path class="cls-8" d="M274.1,88.1l.9-.7A131.7,131.7,0,0,0,50.4,127a131.2,131.2,0,0,0-7.9,45h0a131.2,131.2,0,0,0,7.9,45l1.1-.4A129.9,129.9,0,0,1,43.6,172h0A130,130,0,0,1,74.1,88.1a130.4,130.4,0,0,1,199.9,0Z"/>
  <path class="cls-9" d="M274.1,255.9A131.7,131.7,0,0,1,239.4,285,130.4,130.4,0,0,1,74.1,255.8l-.9.7a132.8,132.8,0,0,0,35,29.4,130.8,130.8,0,0,0,43,15.7,132.4,132.4,0,0,0,45.7,0,131.7,131.7,0,0,0,86.5-56.5l-.6-1.2A132.4,132.4,0,0,1,274.1,255.9Z"/>
  <path class="cls-10" d="M336.4,172h0A161.4,161.4,0,0,0,299.2,68.7l-.7,1A160.1,160.1,0,0,1,335.3,172h0A160,160,0,0,1,300,272.5l.7,1A161.1,161.1,0,0,0,336.4,172Z"/>
  <path class="cls-11" d="M276.5,172a102.2,102.2,0,0,0-6.2-35l-.7-1.8c-.9,4.2-39.7,7.5-40.3,11.9s33,.8,37.1,12.1c1.2,3.4-29.9,5.6-3,13.8,6.8,2-40.4,4.9-43.5,8.8s44.8.8,29.3,11.6c-3.5,2.4,20,10,21,14.1,0-.1.1-.2.1-.4A102.2,102.2,0,0,0,276.5,172Z"/>
  <path class="cls-12" d="M298.2,172h2.3a125.5,125.5,0,0,0-20.7-69.2l-1.1,2.6A123.5,123.5,0,0,1,298.2,172Z"/>
  <path class="cls-13" d="M290.7,214.5a123.5,123.5,0,0,1-11,22.6l1.1,2.6a126,126,0,0,0,12-24.4Z"/>
  <path class="cls-14" d="M324.6,172h0a149.5,149.5,0,0,0-32.4-93.1L291,81a147.4,147.4,0,0,1,31.4,91h0a147.3,147.3,0,0,1-30,89.3l1.3,2.1a149.6,149.6,0,0,0,31-91.4Z"/>
  <path class="cls-15" d="M305.8,172h-1.2a129.2,129.2,0,0,1-21.8,72l.6,1.2A130.5,130.5,0,0,0,305.8,172Z"/>
</svg>
