<?xml version="1.0" encoding="utf-8"?>
<!-- Generator: Adobe Illustrator 23.0.0, SVG Export Plug-In . SVG Version: 6.00 Build 0)  -->
<svg version="1.1" xmlns="http://www.w3.org/2000/svg" xmlns:xlink="http://www.w3.org/1999/xlink" x="0px" y="0px"
	 viewBox="0 0 796.01 709.62" style="enable-background:new 0 0 796.01 709.62;" xml:space="preserve">
<style type="text/css">
	.st0{clip-path:url(#SVGID_2_);}
	.st1{fill:#153660;}
	.st2{opacity:0.8;}
	.st3{fill:url(#SVGID_3_);}
	.st4{fill:url(#SVGID_4_);}
	.st5{fill:url(#SVGID_5_);}
	.st6{fill:url(#SVGID_6_);}
	.st7{fill:url(#SVGID_7_);}
	.st8{fill:url(#SVGID_8_);}
	.st9{fill:url(#SVGID_9_);}
	.st10{fill:url(#SVGID_10_);}
	.st11{fill:url(#SVGID_11_);}
	.st12{fill:url(#SVGID_12_);}
	.st13{fill:url(#SVGID_13_);}
	.st14{fill:url(#SVGID_14_);}
	.st15{fill:url(#SVGID_15_);}
	.st16{fill:url(#SVGID_16_);}
	.st17{fill:url(#SVGID_17_);}
	.st18{fill:none;}
	.st19{fill:#E83632;}
	.st20{fill:url(#SVGID_18_);}
	.st21{fill:url(#SVGID_19_);}
	.st22{fill:url(#SVGID_20_);}
	.st23{fill:url(#SVGID_21_);}
	.st24{fill:url(#SVGID_22_);}
	.st25{fill:url(#SVGID_23_);}
	.st26{fill:url(#SVGID_24_);}
	.st27{fill:url(#SVGID_25_);}
	.st28{fill:url(#SVGID_26_);}
	.st29{fill:url(#SVGID_27_);}
	.st30{fill:url(#SVGID_28_);}
	.st31{fill:url(#SVGID_29_);}
	.st32{fill:url(#SVGID_30_);}
	.st33{fill:url(#SVGID_31_);}
	.st34{fill:url(#SVGID_32_);}
	.st35{fill:url(#SVGID_33_);}
	.st36{fill:url(#SVGID_34_);}
	.st37{fill:#69B1E2;}
	.st38{fill:#D03076;}
	.st39{fill:#D03277;}
	.st40{fill:#CF3377;}
	.st41{fill:#CF3578;}
	.st42{fill:#CF3678;}
	.st43{fill:#CE3779;}
	.st44{fill:#CE387A;}
	.st45{fill:#CE3A7A;}
	.st46{fill:#CD3B7B;}
	.st47{fill:#CD3C7B;}
	.st48{fill:#CD3D7C;}
	.st49{fill:#CD3F7C;}
	.st50{fill:#CC407D;}
	.st51{fill:#CC417D;}
	.st52{fill:#CC427E;}
	.st53{fill:#CB437E;}
	.st54{fill:#CB447F;}
	.st55{fill:#CB457F;}
	.st56{fill:#CA4680;}
	.st57{fill:#CA4780;}
	.st58{fill:#CA4981;}
	.st59{fill:#C94A82;}
	.st60{fill:#C94B82;}
	.st61{fill:#C94C83;}
	.st62{fill:#C84D84;}
	.st63{fill:#C84E84;}
	.st64{fill:#C84F85;}
	.st65{fill:#C75085;}
	.st66{fill:#C75186;}
	.st67{fill:#C75286;}
	.st68{fill:#C65387;}
	.st69{fill:#C65487;}
	.st70{fill:#C55588;}
	.st71{fill:#C55688;}
	.st72{fill:#C55789;}
	.st73{fill:#C4578A;}
	.st74{fill:#C4588A;}
	.st75{fill:#C4598B;}
	.st76{fill:#C35A8B;}
	.st77{fill:#C35B8C;}
	.st78{fill:#C35C8C;}
	.st79{fill:#C25D8D;}
	.st80{fill:#C25E8E;}
	.st81{fill:#C15F8F;}
	.st82{fill:#C1608F;}
	.st83{fill:#C16190;}
	.st84{fill:#C06290;}
	.st85{fill:#C06291;}
	.st86{fill:#C06392;}
	.st87{fill:#BF6492;}
	.st88{fill:#BF6593;}
	.st89{fill:#BF6693;}
	.st90{fill:#BE6694;}
	.st91{fill:#BE6794;}
	.st92{fill:#BE6895;}
	.st93{fill:#BD6996;}
	.st94{fill:#BD6A96;}
	.st95{fill:#BC6A97;}
	.st96{fill:#BC6B97;}
	.st97{fill:#BC6C98;}
	.st98{fill:#BB6D98;}
	.st99{fill:#BB6D99;}
	.st100{fill:#BA6E9A;}
	.st101{fill:#BA6F9A;}
	.st102{fill:#BA709B;}
	.st103{fill:#B9709B;}
	.st104{fill:#B9719C;}
	.st105{fill:#B9729D;}
	.st106{fill:#B8729D;}
	.st107{fill:#B8739E;}
	.st108{fill:#B7749E;}
	.st109{fill:#B7759F;}
	.st110{fill:#B775A0;}
	.st111{fill:#B676A0;}
	.st112{fill:#B677A1;}
	.st113{fill:#B577A1;}
	.st114{fill:#B578A2;}
	.st115{fill:#B579A3;}
	.st116{fill:#B47AA3;}
	.st117{fill:#B47AA4;}
	.st118{fill:#B37BA4;}
	.st119{fill:#B37CA5;}
	.st120{fill:#B37CA6;}
	.st121{fill:#B27DA6;}
	.st122{fill:#B27EA7;}
	.st123{fill:#B17EA7;}
	.st124{fill:#B17FA8;}
	.st125{fill:#B080A9;}
	.st126{fill:#AF81AA;}
	.st127{fill:#AE82AB;}
	.st128{fill:#AE83AC;}
	.st129{fill:#AD84AD;}
	.st130{fill:#AD85AD;}
	.st131{fill:#AC85AE;}
	.st132{fill:#AC86AF;}
	.st133{fill:#AB86AF;}
	.st134{fill:#AB87B0;}
	.st135{fill:#AA88B0;}
	.st136{fill:#AA88B1;}
	.st137{fill:#A989B2;}
	.st138{fill:#A88AB3;}
	.st139{fill:#A88BB3;}
	.st140{fill:#A78BB4;}
	.st141{fill:#A78CB4;}
	.st142{fill:#A68CB5;}
	.st143{fill:#A68DB6;}
	.st144{fill:#A58EB6;}
	.st145{fill:#A58EB7;}
	.st146{fill:#A48FB7;}
	.st147{fill:#A48FB8;}
	.st148{fill:#A390B9;}
	.st149{fill:#A291BA;}
	.st150{fill:#A191BA;}
	.st151{fill:#A192BB;}
	.st152{fill:#A093BC;}
	.st153{fill:#9F94BD;}
	.st154{fill:#9E95BE;}
	.st155{fill:#9D95BF;}
	.st156{fill:#9D96BF;}
	.st157{fill:#9C96C0;}
	.st158{fill:#9C97C0;}
	.st159{fill:#9B97C1;}
	.st160{fill:#9A98C1;}
	.st161{fill:#9A98C2;}
	.st162{fill:#9999C3;}
	.st163{fill:#989AC4;}
	.st164{fill:#979AC4;}
	.st165{fill:#979BC5;}
	.st166{fill:#969BC6;}
	.st167{fill:#959CC6;}
	.st168{fill:#959CC7;}
	.st169{fill:#949DC7;}
	.st170{fill:#939DC8;}
	.st171{fill:#939EC8;}
	.st172{fill:#929EC9;}
	.st173{fill:#919FCA;}
	.st174{fill:#90A0CB;}
	.st175{fill:#8FA0CB;}
	.st176{fill:#8EA1CC;}
	.st177{fill:#8DA2CD;}
	.st178{fill:#8CA2CE;}
	.st179{fill:#8BA2CE;}
	.st180{fill:#8BA3CF;}
	.st181{fill:#8AA3CF;}
	.st182{fill:#89A4D0;}
	.st183{fill:#88A4D0;}
	.st184{fill:#88A5D1;}
	.st185{fill:#87A5D2;}
	.st186{fill:#86A5D2;}
	.st187{fill:#85A6D3;}
	.st188{fill:#84A6D3;}
	.st189{fill:#84A7D4;}
	.st190{fill:#83A7D4;}
	.st191{fill:#82A7D5;}
	.st192{fill:#81A8D5;}
	.st193{fill:#80A8D6;}
	.st194{fill:#7FA9D7;}
	.st195{fill:#7EA9D8;}
	.st196{fill:#7DAAD8;}
	.st197{fill:#7CAAD9;}
	.st198{fill:#7BABD9;}
	.st199{fill:#7AABDA;}
	.st200{fill:#79ABDA;}
	.st201{fill:#78ACDB;}
	.st202{fill:#77ACDB;}
	.st203{fill:#76ACDC;}
	.st204{fill:#75ADDC;}
	.st205{fill:#74ADDD;}
	.st206{fill:#73ADDE;}
	.st207{fill:#72AEDE;}
	.st208{fill:#71AEDF;}
	.st209{fill:#70AFDF;}
	.st210{fill:#6FAFE0;}
	.st211{fill:#6EAFE0;}
	.st212{fill:#6DB0E0;}
	.st213{fill:#6CB0E1;}
	.st214{fill:#6BB0E1;}
	.st215{fill:#6AB1E2;}
	.st216{fill:url(#SVGID_35_);}
	.st217{fill:url(#SVGID_36_);}
	.st218{fill:url(#SVGID_37_);}
	.st219{fill:url(#SVGID_38_);}
	.st220{fill:url(#SVGID_39_);}
	.st221{fill:url(#SVGID_40_);}
	.st222{fill:url(#SVGID_41_);}
	.st223{fill:url(#SVGID_42_);}
	.st224{fill:url(#SVGID_43_);}
	.st225{fill:url(#SVGID_44_);}
	.st226{fill:url(#SVGID_45_);}
	.st227{fill:url(#SVGID_46_);}
	.st228{fill:url(#SVGID_47_);}
	.st229{fill:url(#SVGID_48_);}
	.st230{fill:#F4F4F4;}
	.st231{clip-path:url(#SVGID_2_);fill:#69B1E2;}
	.st232{fill:url(#SVGID_49_);}
	.st233{fill:url(#SVGID_50_);}
	.st234{fill:url(#SVGID_51_);}
	.st235{fill:url(#SVGID_52_);}
	.st236{fill:url(#SVGID_53_);}
	.st237{fill:url(#SVGID_54_);}
	.st238{fill:url(#SVGID_55_);}
	.st239{fill:url(#SVGID_56_);}
	.st240{fill:url(#SVGID_57_);}
	.st241{fill:url(#SVGID_58_);}
	.st242{fill:url(#SVGID_59_);}
	.st243{fill:url(#SVGID_60_);}
	.st244{fill:url(#SVGID_61_);}
	.st245{fill:url(#SVGID_62_);}
	.st246{fill:url(#SVGID_63_);}
	.st247{fill:url(#SVGID_64_);}
	.st248{fill:url(#SVGID_65_);}
	.st249{fill:url(#SVGID_66_);}
	.st250{fill:url(#SVGID_67_);}
	.st251{fill:url(#SVGID_68_);}
	.st252{fill:url(#SVGID_69_);}
	.st253{fill:url(#SVGID_70_);}
	.st254{fill:url(#SVGID_71_);}
	.st255{fill:url(#SVGID_72_);}
	.st256{fill:url(#SVGID_73_);}
	.st257{fill:url(#SVGID_74_);}
	.st258{fill:url(#SVGID_75_);}
	.st259{fill:url(#SVGID_76_);}
	.st260{fill:url(#SVGID_77_);}
	.st261{fill:url(#SVGID_78_);}
	.st262{fill:url(#SVGID_79_);}
	.st263{fill:url(#SVGID_80_);}
	.st264{fill:url(#SVGID_81_);}
	.st265{fill:url(#SVGID_82_);}
	.st266{fill:url(#SVGID_83_);}
	.st267{fill:url(#SVGID_84_);}
	.st268{fill:url(#SVGID_85_);}
	.st269{fill:url(#SVGID_86_);}
	.st270{fill:url(#SVGID_87_);}
	.st271{fill:url(#SVGID_88_);}
	.st272{fill:url(#SVGID_89_);}
	.st273{fill:url(#SVGID_90_);}
	.st274{fill:url(#SVGID_91_);}
	.st275{fill:url(#SVGID_92_);}
	.st276{fill:url(#SVGID_93_);}
	.st277{fill:url(#SVGID_94_);}
	.st278{fill:url(#SVGID_95_);}
	.st279{fill:url(#SVGID_96_);}
	.st280{fill:url(#SVGID_97_);}
	.st281{fill:url(#SVGID_98_);}
	.st282{fill:url(#SVGID_99_);}
	.st283{fill:url(#SVGID_100_);}
	.st284{fill:url(#SVGID_101_);}
	.st285{fill:url(#SVGID_102_);}
	.st286{fill:url(#SVGID_103_);}
	.st287{fill:url(#SVGID_104_);}
	.st288{fill:url(#SVGID_105_);}
	.st289{fill:url(#SVGID_106_);}
	.st290{fill:url(#SVGID_107_);}
	.st291{fill:url(#SVGID_108_);}
	.st292{fill:url(#SVGID_109_);}
	.st293{fill:url(#SVGID_110_);}
	.st294{fill:url(#SVGID_111_);}
	.st295{fill:url(#SVGID_112_);}
	.st296{fill:url(#SVGID_113_);}
	.st297{fill:url(#SVGID_114_);}
	.st298{fill:url(#SVGID_115_);}
	.st299{fill:url(#SVGID_116_);}
	.st300{fill:url(#SVGID_117_);}
	.st301{fill:url(#SVGID_118_);}
	.st302{fill:url(#SVGID_119_);}
	.st303{fill:url(#SVGID_120_);}
	.st304{fill:url(#SVGID_121_);}
	.st305{fill:url(#SVGID_122_);}
	.st306{fill:url(#SVGID_123_);}
	.st307{fill:url(#SVGID_124_);}
	.st308{fill:url(#SVGID_125_);}
	.st309{fill:url(#SVGID_126_);}
	.st310{fill:url(#SVGID_127_);}
	.st311{fill:url(#SVGID_128_);}
	.st312{fill:url(#SVGID_129_);}
	.st313{fill:url(#SVGID_130_);}
	.st314{fill:url(#SVGID_131_);}
	.st315{fill:url(#SVGID_132_);}
	.st316{fill:url(#SVGID_133_);}
	.st317{fill:url(#SVGID_134_);}
	.st318{fill:url(#SVGID_135_);}
	.st319{fill:url(#SVGID_136_);}
	.st320{fill:url(#SVGID_137_);}
	.st321{fill:url(#SVGID_138_);}
	.st322{fill:url(#SVGID_139_);}
	.st323{fill:url(#SVGID_140_);}
	.st324{fill:url(#SVGID_141_);}
	.st325{fill:#040000;}
	.st326{fill:url(#SVGID_142_);}
	.st327{fill:url(#SVGID_143_);}
	.st328{fill:url(#SVGID_144_);}
	.st329{fill:url(#SVGID_145_);}
	.st330{fill:url(#SVGID_146_);}
	.st331{fill:url(#SVGID_147_);}
	.st332{fill:url(#SVGID_148_);}
	.st333{fill:url(#SVGID_149_);}
	.st334{fill:url(#SVGID_150_);}
	.st335{fill:url(#SVGID_151_);}
	.st336{fill:url(#SVGID_152_);}
	.st337{fill:url(#SVGID_153_);}
	.st338{fill:url(#SVGID_154_);}
	.st339{fill:url(#SVGID_155_);}
	.st340{fill:#C23370;}
	.st341{fill:#69A8D5;}
	.st342{fill:#FFFFFF;}
	.st343{fill:url(#SVGID_156_);}
	.st344{fill:url(#SVGID_157_);}
	.st345{fill:url(#SVGID_158_);}
	.st346{fill:url(#SVGID_159_);}
	.st347{fill:url(#SVGID_160_);}
	.st348{fill:url(#SVGID_161_);}
	.st349{fill:url(#SVGID_162_);}
	.st350{fill:url(#SVGID_163_);}
	.st351{fill:url(#SVGID_164_);}
	.st352{fill:url(#SVGID_165_);}
	.st353{fill:url(#SVGID_166_);}
	.st354{fill:url(#SVGID_167_);}
	.st355{fill:url(#SVGID_168_);}
	.st356{fill:url(#SVGID_169_);}
	.st357{fill:url(#SVGID_170_);}
	.st358{fill:url(#SVGID_171_);}
	.st359{fill:url(#SVGID_172_);}
	.st360{fill:url(#SVGID_173_);}
	.st361{fill:url(#SVGID_174_);}
	.st362{fill:url(#SVGID_175_);}
	.st363{fill:url(#SVGID_176_);}
	.st364{fill:url(#SVGID_177_);}
	.st365{fill:url(#SVGID_178_);}
	.st366{fill:url(#SVGID_179_);}
	.st367{fill:url(#SVGID_180_);}
	.st368{fill:url(#SVGID_181_);}
	.st369{fill:url(#SVGID_182_);}
	.st370{fill:url(#SVGID_183_);}
	.st371{fill:url(#SVGID_184_);}
	.st372{fill:url(#SVGID_185_);}
	.st373{fill:url(#SVGID_186_);}
	.st374{fill:url(#SVGID_187_);}
	.st375{fill:url(#SVGID_188_);}
	.st376{fill:url(#SVGID_189_);}
	.st377{fill:url(#SVGID_190_);}
	.st378{fill:url(#SVGID_191_);}
	.st379{fill:url(#SVGID_192_);}
	.st380{fill:url(#SVGID_193_);}
	.st381{fill:url(#SVGID_194_);}
	.st382{fill:url(#SVGID_195_);}
	.st383{fill:url(#SVGID_196_);}
	.st384{fill:url(#SVGID_197_);}
	.st385{fill:url(#SVGID_198_);}
	.st386{fill:url(#SVGID_199_);}
</style>
<g id="圖層_1">
</g>
<g id="圖層_2">
</g>
<g id="圖層_3">
	<g id="圖層_4">
	</g>
	<g id="圖層_5">
	</g>
	<g>
		<g>
			<g>
				<g>
					<linearGradient id="SVGID_2_" gradientUnits="userSpaceOnUse" x1="100.9375" y1="457.3965" x2="137.6587" y2="457.3965">
						<stop  offset="0" style="stop-color:#2CA1CB"/>
						<stop  offset="1" style="stop-color:#D52D70"/>
					</linearGradient>
					<path style="fill:url(#SVGID_2_);" d="M100.94,475.65l6.6-8.05c3.46,2.94,7.97,4.97,11.83,4.97c4.31,0,6.34-1.64,6.34-4.25
						c0-2.81-2.68-3.73-6.86-5.5l-6.21-2.62c-5.1-2.03-9.87-6.28-9.87-13.35c0-8.18,7.32-14.72,17.64-14.72
						c5.62,0,11.57,2.16,15.81,6.41l-5.81,7.33c-3.2-2.42-6.21-3.73-10-3.73c-3.59,0-5.82,1.44-5.82,4.06
						c0,2.68,3.07,3.73,7.38,5.43l6.08,2.42c6.01,2.42,9.6,6.48,9.6,13.35c0,8.11-6.8,15.24-18.56,15.24
						C112.76,482.65,105.97,480.29,100.94,475.65z"/>
					<linearGradient id="SVGID_3_" gradientUnits="userSpaceOnUse" x1="141.1145" y1="457.397" x2="182.0823" y2="457.397">
						<stop  offset="0" style="stop-color:#2CA1CB"/>
						<stop  offset="1" style="stop-color:#D52D70"/>
					</linearGradient>
					<path class="st3" d="M155.75,464.53l-14.64-31.47h12.41l4.05,10.79c1.31,3.66,2.55,7.07,3.92,10.86h0.26
						c1.37-3.79,2.68-7.2,4.05-10.86l4.05-10.79h12.22l-14.7,31.47v17.21h-11.63V464.53z"/>
					<linearGradient id="SVGID_4_" gradientUnits="userSpaceOnUse" x1="190.044" y1="457.397" x2="236.1735" y2="457.397">
						<stop  offset="0" style="stop-color:#2CA1CB"/>
						<stop  offset="1" style="stop-color:#D52D70"/>
					</linearGradient>
					<path class="st4" d="M190.04,433.06h12.61l7.71,21c0.98,2.81,1.76,5.89,2.68,8.9h0.33c0.98-3.01,1.76-6.08,2.68-8.9l7.45-21
						h12.68v48.67h-10.65v-16.68c0-4.84,0.91-12.1,1.5-16.88h-0.26l-4.05,11.64l-6.53,17.79h-6.4l-6.6-17.79l-3.92-11.64H199
						c0.59,4.78,1.5,12.04,1.5,16.88v16.68h-10.45V433.06z"/>
					<linearGradient id="SVGID_5_" gradientUnits="userSpaceOnUse" x1="250.343" y1="457.397" x2="287.7169" y2="457.397">
						<stop  offset="0" style="stop-color:#2CA1CB"/>
						<stop  offset="1" style="stop-color:#D52D70"/>
					</linearGradient>
					<path class="st5" d="M250.34,433.06h16.99c10.06,0,18.1,2.68,18.1,12.04c0,4.32-2.42,9.03-6.34,10.53v0.26
						c4.9,1.31,8.62,4.97,8.62,11.45c0,9.94-8.43,14.39-19.01,14.39h-18.36V433.06z M266.87,452.36c4.97,0,7.19-2.16,7.19-5.5
						c0-3.47-2.29-4.91-7.19-4.91h-4.84v10.4H266.87z M267.85,472.77c5.62,0,8.49-2.03,8.49-6.22c0-3.99-2.81-5.56-8.49-5.56h-5.82
						v11.78H267.85z"/>
					<linearGradient id="SVGID_6_" gradientUnits="userSpaceOnUse" x1="298.7516" y1="457.397" x2="310.4474" y2="457.397">
						<stop  offset="0" style="stop-color:#2CA1CB"/>
						<stop  offset="1" style="stop-color:#D52D70"/>
					</linearGradient>
					<path class="st6" d="M298.75,433.06h11.7v48.67h-11.7V433.06z"/>
					<linearGradient id="SVGID_7_" gradientUnits="userSpaceOnUse" x1="322.3974" y1="457.3965" x2="366.959" y2="457.3965">
						<stop  offset="0" style="stop-color:#2CA1CB"/>
						<stop  offset="1" style="stop-color:#D52D70"/>
					</linearGradient>
					<path class="st7" d="M322.4,457.13c0-15.96,9.02-24.99,22.28-24.99c13.26,0,22.28,9.09,22.28,24.99
						c0,15.96-9.02,25.51-22.28,25.51C331.41,482.65,322.4,473.1,322.4,457.13z M355.07,457.13c0-9.42-3.99-14.98-10.39-14.98
						c-6.4,0-10.32,5.56-10.32,14.98c0,9.49,3.92,15.44,10.32,15.44C351.08,472.57,355.07,466.62,355.07,457.13z"/>
					<linearGradient id="SVGID_8_" gradientUnits="userSpaceOnUse" x1="373.0925" y1="457.397" x2="411.119" y2="457.397">
						<stop  offset="0" style="stop-color:#2CA1CB"/>
						<stop  offset="1" style="stop-color:#D52D70"/>
					</linearGradient>
					<path class="st8" d="M386.23,442.74h-13.13v-9.68h38.03v9.68h-13.2v38.99h-11.7V442.74z"/>
					<linearGradient id="SVGID_9_" gradientUnits="userSpaceOnUse" x1="421.6308" y1="457.397" x2="453.1902" y2="457.397">
						<stop  offset="0" style="stop-color:#2CA1CB"/>
						<stop  offset="1" style="stop-color:#D52D70"/>
					</linearGradient>
					<path class="st9" d="M421.63,433.06h30.84v9.68h-19.15v9.03h16.27v9.81h-16.27v10.34h19.86v9.81h-31.56V433.06z"/>
				</g>
				<linearGradient id="SVGID_10_" gradientUnits="userSpaceOnUse" x1="288.957" y1="241.0586" x2="453.1902" y2="241.0586">
					<stop  offset="0" style="stop-color:#2CA1CB"/>
					<stop  offset="1" style="stop-color:#D52D70"/>
				</linearGradient>
				<path class="st10" d="M383.56,380.9v-43.57h47.64v-19.26h-47.64v-29.81h55.43v-19.49h-55.43V107.99
					c3.26-2.73,5.33-6.82,5.33-11.4c0-8.21-6.65-14.86-14.85-14.86c-8.2,0-14.85,6.65-14.85,14.86c0,4.48,1.99,8.49,5.12,11.21
					v160.96h-38.48l12.37-33.94h-20.39l-28.86,79.58h20.61l9.62-26.14h45.12v29.81h-45.35v19.26h45.35v43.57h-69.63v19.49h158.51
					V380.9H383.56z"/>
				<g>
					<linearGradient id="SVGID_11_" gradientUnits="userSpaceOnUse" x1="563.9464" y1="346.101" x2="639.9412" y2="346.101">
						<stop  offset="0" style="stop-color:#2CA1CB"/>
						<stop  offset="1" style="stop-color:#D52D70"/>
					</linearGradient>
					<rect x="563.95" y="328.56" class="st11" width="75.99" height="35.08"/>
					<linearGradient id="SVGID_12_" gradientUnits="userSpaceOnUse" x1="479.2666" y1="391.7512" x2="777.8413" y2="391.7512">
						<stop  offset="0" style="stop-color:#2CA1CB"/>
						<stop  offset="1" style="stop-color:#D52D70"/>
					</linearGradient>
					<path class="st12" d="M763,376.89c-6.23,0-11.55,3.84-13.75,9.28H627.78l6.51-13.04h-15.42l-6.3,13.04h-19.76l-6.73-13.04
						h-15.42l6.73,13.04h-29.29v-66.3h103.33v-13.7h-90.12v-9.13h83.82v-54.35h-24.54v-11.74h-12.16v11.74h-12.81v-11.74h-12.59
						v11.74h-24.32v37.61h-5.19v-46.52h-60.05v46.52h-14.23v30.44h13.47v213.82c-4.25,2.69-7.08,7.42-7.08,12.83
						c0,8.38,6.79,15.17,15.16,15.17c8.37,0,15.15-6.79,15.15-15.17c0-5.46-2.89-10.24-7.22-12.91v-63.28v-8.76v-82.77h23.37v32.83
						h16.01v-2.39H750.7c2.67,3.94,7.18,6.53,12.29,6.53c8.2,0,14.85-6.65,14.85-14.86C777.84,383.54,771.19,376.89,763,376.89z
						 M620.62,254.21h13.03v8.91h-13.03V254.21z M620.62,275.95h13.03v9.35h-13.03V275.95z M595.65,254.21h12.81v8.91h-12.81V254.21
						z M595.65,275.95h12.81v9.35h-12.81V275.95z M570.24,254.21h12.81v8.91h-12.81V254.21z M570.24,275.95h12.81v9.35h-12.81
						V275.95z M507.72,245.95h25.41v10.22h-19.31v24.13h-6.1V245.95z M533.13,267.69v12.61h-6.1v-12.61H533.13z M532.11,355.95
						h-23.37v-13.04h23.37V355.95z M532.11,329.21h-23.37v-11.09h23.37V329.21z M546.34,304.43h-51.83v-11.09h51.83V304.43z"/>
				</g>
				<g>
					<linearGradient id="SVGID_13_" gradientUnits="userSpaceOnUse" x1="206.0745" y1="382.8527" x2="255.0933" y2="382.8527">
						<stop  offset="0" style="stop-color:#2CA1CB"/>
						<stop  offset="1" style="stop-color:#D52D70"/>
					</linearGradient>
					<polygon class="st13" points="206.07,366.68 231.5,399.02 255.09,399.02 229.44,366.68 					"/>
					<linearGradient id="SVGID_14_" gradientUnits="userSpaceOnUse" x1="100.9375" y1="382.8527" x2="147.6652" y2="382.8527">
						<stop  offset="0" style="stop-color:#2CA1CB"/>
						<stop  offset="1" style="stop-color:#D52D70"/>
					</linearGradient>
					<polygon class="st14" points="100.94,399.02 123.84,399.02 147.67,366.68 124.76,366.68 					"/>
					<linearGradient id="SVGID_15_" gradientUnits="userSpaceOnUse" x1="-0.5" y1="293.5333" x2="262.8807" y2="293.5333">
						<stop  offset="0" style="stop-color:#2CA1CB"/>
						<stop  offset="1" style="stop-color:#D52D70"/>
					</linearGradient>
					<path class="st15" d="M219.36,328.84v-47.47h33.21v-18.12h-33.21v-29.58h-18.1v29.58h-49.02v-29.58h-18.1v29.58h-33.21v18.12
						h33.21v47.47H25.59c-2.72-3.16-6.74-5.17-11.24-5.17c-8.2,0-14.85,6.65-14.85,14.86c0,8.21,6.65,14.86,14.85,14.86
						c4.97,0,9.36-2.45,12.05-6.21h236.48v-18.35H219.36z M201.27,328.84h-49.02v-47.47h49.02V328.84z"/>
				</g>
			</g>
			<g>
				<g>
					<path class="st230" d="M108.33,475.65l6.6-8.05c3.46,2.94,7.97,4.97,11.83,4.97c4.31,0,6.34-1.64,6.34-4.25
						c0-2.81-2.68-3.73-6.86-5.5l-6.21-2.62c-5.1-2.03-9.87-6.28-9.87-13.35c0-8.18,7.32-14.72,17.64-14.72
						c5.62,0,11.57,2.16,15.81,6.41l-5.81,7.33c-3.2-2.42-6.21-3.73-10-3.73c-3.59,0-5.82,1.44-5.82,4.06
						c0,2.68,3.07,3.73,7.38,5.43l6.08,2.42c6.01,2.42,9.6,6.48,9.6,13.35c0,8.11-6.8,15.24-18.56,15.24
						C120.16,482.65,113.36,480.29,108.33,475.65z"/>
					<path class="st230" d="M163.14,464.53l-14.64-31.47h12.41l4.05,10.79c1.31,3.66,2.55,7.07,3.92,10.86h0.26
						c1.37-3.79,2.68-7.2,4.05-10.86l4.05-10.79h12.22l-14.7,31.47v17.21h-11.63V464.53z"/>
					<path class="st230" d="M197.44,433.06h12.61l7.71,21c0.98,2.81,1.76,5.89,2.68,8.9h0.33c0.98-3.01,1.76-6.08,2.68-8.9l7.45-21
						h12.68v48.67h-10.65v-16.68c0-4.84,0.91-12.1,1.5-16.88h-0.26l-4.05,11.64l-6.53,17.79h-6.4l-6.6-17.79l-3.92-11.64h-0.26
						c0.59,4.78,1.5,12.04,1.5,16.88v16.68h-10.45V433.06z"/>
					<path class="st230" d="M257.74,433.06h16.99c10.06,0,18.1,2.68,18.1,12.04c0,4.32-2.42,9.03-6.34,10.53v0.26
						c4.9,1.31,8.62,4.97,8.62,11.45c0,9.94-8.43,14.39-19.01,14.39h-18.36V433.06z M274.27,452.36c4.97,0,7.19-2.16,7.19-5.5
						c0-3.47-2.29-4.91-7.19-4.91h-4.84v10.4H274.27z M275.25,472.77c5.62,0,8.49-2.03,8.49-6.22c0-3.99-2.81-5.56-8.49-5.56h-5.82
						v11.78H275.25z"/>
					<path class="st230" d="M306.15,433.06h11.7v48.67h-11.7V433.06z"/>
					<path class="st230" d="M329.79,457.13c0-15.96,9.02-24.99,22.28-24.99s22.28,9.09,22.28,24.99c0,15.96-9.02,25.51-22.28,25.51
						S329.79,473.1,329.79,457.13z M362.46,457.13c0-9.42-3.99-14.98-10.39-14.98s-10.32,5.56-10.32,14.98
						c0,9.49,3.92,15.44,10.32,15.44S362.46,466.62,362.46,457.13z"/>
					<path class="st230" d="M393.62,442.74h-13.13v-9.68h38.03v9.68h-13.2v38.99h-11.7V442.74z"/>
					<path class="st230" d="M429.03,433.06h30.84v9.68h-19.15v9.03h16.27v9.81h-16.27v10.34h19.86v9.81h-31.56V433.06z"/>
				</g>
				<path class="st230" d="M390.95,380.9v-43.57h47.64v-19.26h-47.64v-29.81h55.43v-19.49h-55.43V107.99
					c3.26-2.73,5.33-6.82,5.33-11.4c0-8.21-6.65-14.86-14.85-14.86c-8.2,0-14.85,6.65-14.85,14.86c0,4.48,1.99,8.49,5.12,11.21
					v160.96h-38.48l12.37-33.94h-20.39l-28.86,79.58h20.61l9.62-26.14h45.12v29.81h-45.35v19.26h45.35v43.57h-69.63v19.49h158.51
					V380.9H390.95z"/>
				<g>
					<rect x="571.34" y="328.56" class="st230" width="75.99" height="35.08"/>
					<path class="st230" d="M770.39,376.89c-6.23,0-11.55,3.84-13.75,9.28H635.18l6.51-13.04h-15.42l-6.3,13.04h-19.76l-6.73-13.04
						h-15.42l6.73,13.04h-29.29v-66.3h103.33v-13.7h-90.12v-9.13h83.82v-54.35h-24.54v-11.74h-12.16v11.74h-12.81v-11.74h-12.59
						v11.74h-24.32v37.61h-5.19v-46.52h-60.05v46.52h-14.23v30.44h13.47v213.82c-4.25,2.69-7.08,7.42-7.08,12.83
						c0,8.38,6.79,15.17,15.16,15.17c8.37,0,15.15-6.79,15.15-15.17c0-5.46-2.89-10.24-7.22-12.91v-63.28v-8.76v-82.77h23.37v32.83
						h16.01v-2.39H758.1c2.67,3.94,7.18,6.53,12.29,6.53c8.2,0,14.85-6.65,14.85-14.86C785.24,383.54,778.59,376.89,770.39,376.89z
						 M628.01,254.21h13.03v8.91h-13.03V254.21z M628.01,275.95h13.03v9.35h-13.03V275.95z M603.04,254.21h12.81v8.91h-12.81V254.21
						z M603.04,275.95h12.81v9.35h-12.81V275.95z M577.64,254.21h12.81v8.91h-12.81V254.21z M577.64,275.95h12.81v9.35h-12.81
						V275.95z M515.12,245.95h25.41v10.22h-19.31v24.13h-6.1V245.95z M540.52,267.69v12.61h-6.1v-12.61H540.52z M539.51,355.95
						h-23.37v-13.04h23.37V355.95z M539.51,329.21h-23.37v-11.09h23.37V329.21z M553.73,304.43h-51.83v-11.09h51.83V304.43z"/>
				</g>
				<g>
					<polygon class="st230" points="213.47,366.68 238.9,399.02 262.49,399.02 236.83,366.68 					"/>
					<polygon class="st230" points="108.33,399.02 131.24,399.02 155.06,366.68 132.15,366.68 					"/>
					<path class="st230" d="M226.75,328.84v-47.47h33.21v-18.12h-33.21v-29.58h-18.1v29.58h-49.02v-29.58h-18.1v29.58h-33.21v18.12
						h33.21v47.47H32.98c-2.72-3.16-6.74-5.17-11.24-5.17c-8.2,0-14.85,6.65-14.85,14.86c0,8.21,6.65,14.86,14.85,14.86
						c4.97,0,9.36-2.45,12.05-6.21h236.48v-18.35H226.75z M208.66,328.84h-49.02v-47.47h49.02V328.84z"/>
				</g>
			</g>
		</g>
		<g>
			<path class="st342" d="M424.12,161.93h3.75V150h-3.07v-1.7c1.61-0.3,2.75-0.7,3.73-1.31h2.03v14.93h3.35v2.21h-9.78V161.93z"/>
			<path class="st342" d="M436.49,155.5c0-5.94,2.17-8.83,5.54-8.83c3.35,0,5.54,2.91,5.54,8.83c0,5.96-2.19,8.94-5.54,8.94
				C438.66,164.44,436.49,161.46,436.49,155.5z M445.01,155.5c0-4.91-1.23-6.71-2.98-6.71c-1.75,0-2.98,1.79-2.98,6.71
				c0,4.96,1.23,6.82,2.98,6.82C443.78,162.32,445.01,160.46,445.01,155.5z"/>
			<path class="st342" d="M451.12,159.95v-6.47h-1.86v-2l1.98-0.14l0.3-3.54h2.26v3.54h3.33v2.14h-3.33v6.5
				c0,1.54,0.53,2.33,1.86,2.33c0.44,0,1-0.14,1.37-0.3l0.49,1.98c-0.72,0.23-1.58,0.47-2.51,0.47
				C452.13,164.44,451.12,162.65,451.12,159.95z"/>
			<path class="st342" d="M459.93,145.58h2.66v4.92l-0.09,2.54c1.12-1.07,2.4-2.03,4.15-2.03c2.72,0,3.94,1.82,3.94,5.08v8.06h-2.68
				v-7.73c0-2.21-0.65-3.1-2.17-3.1c-1.19,0-2,0.61-3.14,1.75v9.08h-2.66V145.58z"/>
			<path class="st342" d="M478.3,162.67l1.26-1.72c1.14,0.91,2.26,1.47,3.63,1.47c1.54,0,2.26-0.75,2.26-1.72
				c0-1.16-1.45-1.68-2.84-2.21c-1.7-0.65-3.66-1.56-3.66-3.73c0-2.14,1.72-3.75,4.54-3.75c1.72,0,3.12,0.7,4.17,1.51l-1.26,1.65
				c-0.89-0.65-1.79-1.12-2.86-1.12c-1.4,0-2.05,0.7-2.05,1.58c0,1.09,1.33,1.52,2.72,2.03c1.79,0.68,3.77,1.47,3.77,3.89
				c0,2.14-1.7,3.89-4.87,3.89C481.34,164.44,479.53,163.7,478.3,162.67z"/>
			<path class="st342" d="M490.74,159.95v-6.47h-1.86v-2l1.98-0.14l0.3-3.54h2.26v3.54h3.33v2.14h-3.33v6.5
				c0,1.54,0.53,2.33,1.86,2.33c0.44,0,1-0.14,1.37-0.3l0.49,1.98c-0.72,0.23-1.58,0.47-2.51,0.47
				C491.74,164.44,490.74,162.65,490.74,159.95z"/>
			<path class="st342" d="M499.38,159.39v-8.06h2.68v7.73c0,2.21,0.63,3.07,2.14,3.07c1.19,0,2-0.56,3.07-1.91v-8.9h2.68v12.81
				h-2.19l-0.21-1.93h-0.07c-1.16,1.35-2.42,2.23-4.19,2.23C500.57,164.44,499.38,162.65,499.38,159.39z"/>
			<path class="st342" d="M513.13,157.76c0-4.17,2.63-6.75,5.5-6.75c1.47,0,2.4,0.56,3.45,1.44l-0.12-2.12v-4.75h2.68v18.56h-2.19
				l-0.23-1.45h-0.07c-0.95,0.98-2.28,1.75-3.73,1.75C515.21,164.44,513.13,162,513.13,157.76z M521.96,160.67v-6.26
				c-0.96-0.86-1.86-1.17-2.82-1.17c-1.79,0-3.24,1.7-3.24,4.47c0,2.91,1.14,4.52,3.14,4.52
				C520.12,162.23,521.03,161.74,521.96,160.67z"/>
			<path class="st342" d="M527.77,157.76c0-4.17,2.84-6.75,5.85-6.75c3.4,0,5.22,2.44,5.22,6.08c0,0.51-0.05,1.05-0.12,1.35h-8.31
				c0.21,2.44,1.75,3.91,3.96,3.91c1.14,0,2.12-0.35,3.05-0.96l0.93,1.7c-1.19,0.79-2.66,1.35-4.33,1.35
				C530.54,164.44,527.77,161.97,527.77,157.76z M536.52,156.59c0-2.21-1-3.49-2.86-3.49c-1.61,0-3.03,1.23-3.28,3.49H536.52z"/>
			<path class="st342" d="M541.84,151.33h2.19l0.21,1.77h0.07c1.19-1.14,2.49-2.1,4.24-2.1c2.72,0,3.93,1.82,3.93,5.08v8.06h-2.68
				v-7.73c0-2.21-0.65-3.1-2.17-3.1c-1.19,0-2,0.61-3.14,1.75v9.08h-2.66V151.33z"/>
			<path class="st342" d="M556.8,159.95v-6.47h-1.86v-2l1.98-0.14l0.3-3.54h2.26v3.54h3.33v2.14h-3.33v6.5
				c0,1.54,0.53,2.33,1.86,2.33c0.44,0,1-0.14,1.37-0.3l0.49,1.98c-0.72,0.23-1.58,0.47-2.51,0.47
				C557.8,164.44,556.8,162.65,556.8,159.95z"/>
			<path class="st342" d="M563.91,156.57h6.15v1.98h-6.15V156.57z"/>
			<path class="st342" d="M572.25,157.76c0-4.29,2.87-6.75,6.03-6.75c3.17,0,6.03,2.47,6.03,6.75c0,4.24-2.87,6.68-6.03,6.68
				C575.11,164.44,572.25,162,572.25,157.76z M581.57,157.76c0-2.73-1.26-4.54-3.28-4.54c-2,0-3.26,1.82-3.26,4.54
				c0,2.7,1.26,4.49,3.26,4.49C580.31,162.25,581.57,160.46,581.57,157.76z"/>
			<path class="st342" d="M587.46,151.33h2.19l0.21,2.31h0.07c0.91-1.65,2.26-2.63,3.63-2.63c0.63,0,1.05,0.09,1.44,0.28l-0.49,2.33
				c-0.44-0.14-0.77-0.21-1.28-0.21c-1.05,0-2.31,0.72-3.12,2.75v7.99h-2.66V151.33z"/>
			<path class="st342" d="M595.81,166.51c0-1.07,0.68-2.07,1.86-2.79v-0.12c-0.65-0.4-1.17-1.07-1.17-2.12c0-1,0.72-1.86,1.42-2.38
				v-0.09c-0.86-0.67-1.68-1.89-1.68-3.4c0-2.91,2.31-4.61,4.96-4.61c0.72,0,1.37,0.14,1.86,0.33h4.54v2h-2.45
				c0.49,0.51,0.84,1.37,0.84,2.35c0,2.79-2.12,4.4-4.8,4.4c-0.58,0-1.23-0.14-1.79-0.4c-0.42,0.37-0.7,0.75-0.7,1.35
				c0,0.77,0.51,1.26,2.14,1.26h2.35c3.03,0,4.61,0.93,4.61,3.12c0,2.47-2.61,4.47-6.71,4.47
				C598.05,169.89,595.81,168.75,595.81,166.51z M605.24,165.84c0-1.07-0.84-1.4-2.4-1.4h-1.93c-0.61,0-1.19-0.07-1.72-0.19
				c-0.77,0.56-1.09,1.21-1.09,1.86c0,1.26,1.3,2,3.42,2C603.75,168.12,605.24,167.03,605.24,165.84z M603.64,155.61
				c0-1.72-1.07-2.72-2.42-2.72c-1.35,0-2.42,0.98-2.42,2.72c0,1.7,1.09,2.75,2.42,2.75C602.54,158.36,603.64,157.31,603.64,155.61z
				"/>
			<path class="st342" d="M609.02,160.74c0-2.75,2.33-4.17,7.66-4.75c-0.02-1.49-0.56-2.79-2.45-2.79c-1.35,0-2.61,0.61-3.7,1.3
				l-1-1.82c1.33-0.84,3.12-1.68,5.17-1.68c3.19,0,4.66,2.03,4.66,5.43v7.71h-2.19l-0.23-1.47h-0.07c-1.17,1-2.54,1.77-4.08,1.77
				C610.58,164.44,609.02,163,609.02,160.74z M616.68,160.83v-3.14c-3.8,0.47-5.08,1.42-5.08,2.87c0,1.26,0.86,1.77,2,1.77
				C614.73,162.32,615.63,161.79,616.68,160.83z"/>
			<path class="st342" d="M623.16,151.33h2.19l0.21,1.77h0.07c1.19-1.14,2.49-2.1,4.24-2.1c2.72,0,3.93,1.82,3.93,5.08v8.06h-2.68
				v-7.73c0-2.21-0.65-3.1-2.17-3.1c-1.19,0-2,0.61-3.14,1.75v9.08h-2.66V151.33z"/>
			<path class="st342" d="M637.34,147.35c0-0.96,0.72-1.58,1.7-1.58s1.72,0.63,1.72,1.58c0,0.93-0.74,1.58-1.72,1.58
				S637.34,148.28,637.34,147.35z M637.71,151.33h2.66v12.81h-2.66V151.33z"/>
			<path class="st342" d="M643.23,162.69l6.31-9.22h-5.61v-2.14h8.99v1.42l-6.31,9.25h6.52v2.14h-9.9V162.69z"/>
			<path class="st342" d="M654.65,157.76c0-4.17,2.84-6.75,5.85-6.75c3.4,0,5.22,2.44,5.22,6.08c0,0.51-0.05,1.05-0.12,1.35h-8.31
				c0.21,2.44,1.75,3.91,3.96,3.91c1.14,0,2.12-0.35,3.05-0.96l0.93,1.7c-1.19,0.79-2.66,1.35-4.33,1.35
				C657.42,164.44,654.65,161.97,654.65,157.76z M663.41,156.59c0-2.21-1-3.49-2.86-3.49c-1.61,0-3.03,1.23-3.28,3.49H663.41z"/>
			<path class="st342" d="M667.86,157.76c0-4.17,2.63-6.75,5.5-6.75c1.47,0,2.4,0.56,3.45,1.44l-0.12-2.12v-4.75h2.68v18.56h-2.19
				l-0.23-1.45h-0.07c-0.95,0.98-2.28,1.75-3.73,1.75C669.93,164.44,667.86,162,667.86,157.76z M676.69,160.67v-6.26
				c-0.96-0.86-1.86-1.17-2.82-1.17c-1.79,0-3.24,1.7-3.24,4.47c0,2.91,1.14,4.52,3.14,4.52
				C674.85,162.23,675.75,161.74,676.69,160.67z"/>
			<path class="st342" d="M687.25,151.33h2.7l1.7,6.94c0.25,1.23,0.46,2.42,0.7,3.63h0.09c0.28-1.21,0.53-2.42,0.84-3.63l1.79-6.94
				h2.49l1.84,6.94c0.3,1.23,0.56,2.42,0.86,3.63h0.09c0.26-1.21,0.47-2.4,0.75-3.63l1.65-6.94h2.52l-3.31,12.81h-3.21l-1.63-6.34
				c-0.3-1.21-0.54-2.38-0.81-3.7h-0.12c-0.25,1.33-0.49,2.51-0.81,3.73l-1.56,6.31h-3.1L687.25,151.33z"/>
			<path class="st342" d="M706.89,157.76c0-4.29,2.86-6.75,6.03-6.75s6.03,2.47,6.03,6.75c0,4.24-2.86,6.68-6.03,6.68
				S706.89,162,706.89,157.76z M716.21,157.76c0-2.73-1.26-4.54-3.28-4.54c-2,0-3.26,1.82-3.26,4.54c0,2.7,1.26,4.49,3.26,4.49
				C714.95,162.25,716.21,160.46,716.21,157.76z"/>
			<path class="st342" d="M722.11,151.33h2.19l0.21,2.31h0.07c0.91-1.65,2.26-2.63,3.63-2.63c0.63,0,1.05,0.09,1.44,0.28l-0.49,2.33
				c-0.44-0.14-0.77-0.21-1.28-0.21c-1.05,0-2.31,0.72-3.12,2.75v7.99h-2.66V151.33z"/>
			<path class="st342" d="M731.64,145.58h2.61v11.97h0.07l5.03-6.22h2.96l-4.36,5.19l4.84,7.62h-2.91l-3.47-5.8l-2.16,2.49v3.31
				h-2.61V145.58z"/>
			<path class="st342" d="M743.69,162.67l1.26-1.72c1.14,0.91,2.26,1.47,3.63,1.47c1.54,0,2.26-0.75,2.26-1.72
				c0-1.16-1.45-1.68-2.84-2.21c-1.7-0.65-3.66-1.56-3.66-3.73c0-2.14,1.72-3.75,4.54-3.75c1.72,0,3.12,0.7,4.17,1.51l-1.26,1.65
				c-0.89-0.65-1.79-1.12-2.86-1.12c-1.4,0-2.05,0.7-2.05,1.58c0,1.09,1.33,1.52,2.72,2.03c1.79,0.68,3.77,1.47,3.77,3.89
				c0,2.14-1.7,3.89-4.87,3.89C746.74,164.44,744.92,163.7,743.69,162.67z"/>
			<path class="st342" d="M756.22,145.58h2.66v4.92l-0.09,2.54c1.12-1.07,2.4-2.03,4.15-2.03c2.72,0,3.93,1.82,3.93,5.08v8.06h-2.68
				v-7.73c0-2.21-0.65-3.1-2.17-3.1c-1.19,0-2,0.61-3.14,1.75v9.08h-2.66V145.58z"/>
			<path class="st342" d="M769.78,157.76c0-4.29,2.87-6.75,6.03-6.75c3.17,0,6.03,2.47,6.03,6.75c0,4.24-2.87,6.68-6.03,6.68
				C772.65,164.44,769.78,162,769.78,157.76z M779.1,157.76c0-2.73-1.26-4.54-3.28-4.54c-2,0-3.26,1.82-3.26,4.54
				c0,2.7,1.26,4.49,3.26,4.49C777.84,162.25,779.1,160.46,779.1,157.76z"/>
			<path class="st342" d="M785,151.33h2.19l0.21,1.4h0.07c1.12-0.93,2.52-1.72,3.94-1.72c3.26,0,5.08,2.59,5.08,6.52
				c0,4.4-2.63,6.92-5.52,6.92c-1.14,0-2.28-0.51-3.38-1.44l0.07,2.19v4.14H785V151.33z M793.71,157.57c0-2.68-0.86-4.33-3-4.33
				c-1,0-1.96,0.51-3.05,1.56v6.26c1,0.86,2,1.17,2.79,1.17C792.31,162.23,793.71,160.58,793.71,157.57z"/>
			<path class="st342" d="M423.23,185.72c0-4.29,2.87-6.75,6.03-6.75s6.03,2.47,6.03,6.75c0,4.24-2.86,6.68-6.03,6.68
				S423.23,189.96,423.23,185.72z M432.55,185.72c0-2.73-1.26-4.54-3.28-4.54c-2,0-3.26,1.82-3.26,4.54c0,2.7,1.26,4.49,3.26,4.49
				C431.29,190.22,432.55,188.42,432.55,185.72z"/>
			<path class="st342" d="M438.45,179.29h2.19l0.21,1.77h0.07c1.19-1.14,2.49-2.1,4.24-2.1c2.73,0,3.94,1.82,3.94,5.08v8.06h-2.68
				v-7.73c0-2.21-0.65-3.1-2.17-3.1c-1.19,0-2,0.61-3.14,1.75v9.08h-2.65V179.29z"/>
			<path class="st342" d="M458.23,173.54h2.66v4.92l-0.09,2.54c1.12-1.07,2.4-2.03,4.15-2.03c2.72,0,3.93,1.82,3.93,5.08v8.06h-2.68
				v-7.73c0-2.21-0.65-3.1-2.17-3.1c-1.19,0-2,0.61-3.14,1.75v9.08h-2.66V173.54z"/>
			<path class="st342" d="M472.54,187.35v-8.06h2.68v7.73c0,2.21,0.63,3.07,2.14,3.07c1.19,0,2-0.56,3.07-1.91v-8.9h2.68v12.81
				h-2.19l-0.21-1.93h-0.07c-1.16,1.35-2.42,2.23-4.19,2.23C473.73,192.4,472.54,190.61,472.54,187.35z"/>
			<path class="st342" d="M487.15,179.29h2.19l0.21,1.79h0.07c1.09-1.17,2.38-2.12,3.96-2.12c1.91,0,2.98,0.89,3.54,2.35
				c1.26-1.35,2.56-2.35,4.17-2.35c2.68,0,3.93,1.82,3.93,5.08v8.06h-2.68v-7.73c0-2.21-0.7-3.1-2.14-3.1
				c-0.89,0-1.82,0.58-2.89,1.75v9.08h-2.68v-7.73c0-2.21-0.68-3.1-2.14-3.1c-0.86,0-1.82,0.58-2.89,1.75v9.08h-2.66V179.29z"/>
			<path class="st342" d="M508.36,188.7c0-2.75,2.33-4.17,7.66-4.75c-0.02-1.49-0.56-2.79-2.45-2.79c-1.35,0-2.61,0.61-3.7,1.3
				l-1-1.82c1.33-0.84,3.12-1.68,5.17-1.68c3.19,0,4.66,2.03,4.66,5.43v7.71h-2.19l-0.23-1.47h-0.07c-1.17,1-2.54,1.77-4.08,1.77
				C509.92,192.4,508.36,190.96,508.36,188.7z M516.02,188.8v-3.14c-3.8,0.47-5.08,1.42-5.08,2.87c0,1.26,0.86,1.77,2,1.77
				C514.06,190.29,514.97,189.75,516.02,188.8z"/>
			<path class="st342" d="M522.5,179.29h2.19l0.21,1.77h0.07c1.19-1.14,2.49-2.1,4.24-2.1c2.72,0,3.93,1.82,3.93,5.08v8.06h-2.68
				v-7.73c0-2.21-0.65-3.1-2.17-3.1c-1.19,0-2,0.61-3.14,1.75v9.08h-2.66V179.29z"/>
			<path class="st342" d="M536.11,184.53h6.15v1.98h-6.15V184.53z"/>
			<path class="st342" d="M544.45,185.72c0-4.29,2.96-6.75,6.34-6.75c1.63,0,2.82,0.65,3.75,1.47l-1.33,1.75
				c-0.7-0.63-1.42-1-2.31-1c-2.14,0-3.68,1.82-3.68,4.54c0,2.7,1.47,4.49,3.61,4.49c1.07,0,2.03-0.51,2.8-1.17l1.09,1.77
				c-1.17,1.05-2.68,1.58-4.15,1.58C547.11,192.4,544.45,189.96,544.45,185.72z"/>
			<path class="st342" d="M555.89,185.72c0-4.29,2.87-6.75,6.03-6.75c3.17,0,6.03,2.47,6.03,6.75c0,4.24-2.87,6.68-6.03,6.68
				C558.76,192.4,555.89,189.96,555.89,185.72z M565.21,185.72c0-2.73-1.26-4.54-3.28-4.54c-2,0-3.26,1.82-3.26,4.54
				c0,2.7,1.26,4.49,3.26,4.49C563.95,190.22,565.21,188.42,565.21,185.72z"/>
			<path class="st342" d="M571.11,179.29h2.19l0.21,1.79h0.07c1.09-1.17,2.38-2.12,3.96-2.12c1.91,0,2.98,0.89,3.54,2.35
				c1.26-1.35,2.56-2.35,4.17-2.35c2.68,0,3.93,1.82,3.93,5.08v8.06h-2.68v-7.73c0-2.21-0.7-3.1-2.14-3.1
				c-0.89,0-1.82,0.58-2.89,1.75v9.08h-2.68v-7.73c0-2.21-0.68-3.1-2.14-3.1c-0.86,0-1.82,0.58-2.89,1.75v9.08h-2.66V179.29z"/>
			<path class="st342" d="M593.06,179.29h2.19l0.21,1.4h0.07c1.12-0.93,2.52-1.72,3.94-1.72c3.26,0,5.08,2.59,5.08,6.52
				c0,4.4-2.63,6.92-5.52,6.92c-1.14,0-2.28-0.51-3.38-1.44l0.07,2.19v4.14h-2.66V179.29z M601.77,185.53c0-2.68-0.86-4.33-3-4.33
				c-1,0-1.96,0.51-3.05,1.56v6.26c1,0.86,2,1.17,2.79,1.17C600.37,190.19,601.77,188.54,601.77,185.53z"/>
			<path class="st342" d="M607.58,187.35v-8.06h2.68v7.73c0,2.21,0.63,3.07,2.14,3.07c1.19,0,2-0.56,3.07-1.91v-8.9h2.68v12.81
				h-2.19l-0.21-1.93h-0.07c-1.16,1.35-2.42,2.23-4.19,2.23C608.77,192.4,607.58,190.61,607.58,187.35z"/>
			<path class="st342" d="M622.61,187.91v-6.47h-1.86v-2l1.98-0.14l0.3-3.54h2.26v3.54h3.33v2.14h-3.33v6.5
				c0,1.54,0.53,2.33,1.86,2.33c0.44,0,1-0.14,1.37-0.3l0.49,1.98c-0.72,0.23-1.58,0.47-2.51,0.47
				C623.61,192.4,622.61,190.61,622.61,187.91z"/>
			<path class="st342" d="M630.11,185.72c0-4.17,2.84-6.75,5.85-6.75c3.4,0,5.22,2.44,5.22,6.08c0,0.51-0.05,1.05-0.12,1.35h-8.31
				c0.21,2.44,1.75,3.91,3.96,3.91c1.14,0,2.12-0.35,3.05-0.96l0.93,1.7c-1.19,0.79-2.66,1.35-4.33,1.35
				C632.88,192.4,630.11,189.94,630.11,185.72z M638.87,184.56c0-2.21-1-3.49-2.86-3.49c-1.61,0-3.03,1.23-3.29,3.49H638.87z"/>
			<path class="st342" d="M644.18,179.29h2.19l0.21,2.31h0.07c0.91-1.65,2.26-2.63,3.63-2.63c0.63,0,1.05,0.09,1.44,0.28l-0.49,2.33
				c-0.44-0.14-0.77-0.21-1.28-0.21c-1.05,0-2.31,0.72-3.12,2.75v7.99h-2.66V179.29z"/>
			<path class="st342" d="M658.59,175.31c0-0.96,0.72-1.58,1.7-1.58c0.98,0,1.72,0.63,1.72,1.58c0,0.93-0.74,1.58-1.72,1.58
				C659.31,176.89,658.59,176.24,658.59,175.31z M658.96,179.29h2.66v12.81h-2.66V179.29z"/>
			<path class="st342" d="M665.65,179.29h2.19l0.21,1.77h0.07c1.19-1.14,2.49-2.1,4.24-2.1c2.72,0,3.93,1.82,3.93,5.08v8.06h-2.68
				v-7.73c0-2.21-0.65-3.1-2.17-3.1c-1.19,0-2,0.61-3.14,1.75v9.08h-2.66V179.29z"/>
			<path class="st342" d="M680.61,187.91v-6.47h-1.86v-2l1.98-0.14l0.3-3.54h2.26v3.54h3.33v2.14h-3.33v6.5
				c0,1.54,0.53,2.33,1.86,2.33c0.44,0,1-0.14,1.37-0.3l0.49,1.98c-0.72,0.23-1.58,0.47-2.51,0.47
				C681.61,192.4,680.61,190.61,680.61,187.91z"/>
			<path class="st342" d="M688.11,185.72c0-4.17,2.84-6.75,5.85-6.75c3.4,0,5.22,2.44,5.22,6.08c0,0.51-0.05,1.05-0.12,1.35h-8.31
				c0.21,2.44,1.75,3.91,3.96,3.91c1.14,0,2.12-0.35,3.05-0.96l0.93,1.7c-1.19,0.79-2.66,1.35-4.33,1.35
				C690.88,192.4,688.11,189.94,688.11,185.72z M696.87,184.56c0-2.21-1-3.49-2.86-3.49c-1.61,0-3.03,1.23-3.28,3.49H696.87z"/>
			<path class="st342" d="M702.18,179.29h2.19l0.21,2.31h0.07c0.91-1.65,2.26-2.63,3.63-2.63c0.63,0,1.05,0.09,1.44,0.28l-0.49,2.33
				c-0.44-0.14-0.77-0.21-1.28-0.21c-1.05,0-2.31,0.72-3.12,2.75v7.99h-2.66V179.29z"/>
			<path class="st342" d="M710.32,188.7c0-2.75,2.33-4.17,7.66-4.75c-0.02-1.49-0.56-2.79-2.45-2.79c-1.35,0-2.61,0.61-3.7,1.3
				l-1-1.82c1.33-0.84,3.12-1.68,5.17-1.68c3.19,0,4.66,2.03,4.66,5.43v7.71h-2.19l-0.23-1.47h-0.07c-1.17,1-2.54,1.77-4.08,1.77
				C711.88,192.4,710.32,190.96,710.32,188.7z M717.98,188.8v-3.14c-3.8,0.47-5.08,1.42-5.08,2.87c0,1.26,0.86,1.77,2,1.77
				C716.02,190.29,716.93,189.75,717.98,188.8z"/>
			<path class="st342" d="M723.55,185.72c0-4.29,2.96-6.75,6.34-6.75c1.63,0,2.82,0.65,3.75,1.47l-1.33,1.75
				c-0.7-0.63-1.42-1-2.31-1c-2.14,0-3.68,1.82-3.68,4.54c0,2.7,1.47,4.49,3.61,4.49c1.07,0,2.03-0.51,2.8-1.17l1.09,1.77
				c-1.17,1.05-2.68,1.58-4.15,1.58C726.21,192.4,723.55,189.96,723.55,185.72z"/>
			<path class="st342" d="M736.67,187.91v-6.47h-1.86v-2l1.98-0.14l0.3-3.54h2.26v3.54h3.33v2.14h-3.33v6.5
				c0,1.54,0.53,2.33,1.86,2.33c0.44,0,1-0.14,1.37-0.3l0.49,1.98c-0.72,0.23-1.58,0.47-2.51,0.47
				C737.68,192.4,736.67,190.61,736.67,187.91z"/>
			<path class="st342" d="M745.11,175.31c0-0.96,0.72-1.58,1.7-1.58s1.72,0.63,1.72,1.58c0,0.93-0.74,1.58-1.72,1.58
				S745.11,176.24,745.11,175.31z M745.48,179.29h2.66v12.81h-2.66V179.29z"/>
			<path class="st342" d="M751.26,185.72c0-4.29,2.86-6.75,6.03-6.75c3.17,0,6.03,2.47,6.03,6.75c0,4.24-2.87,6.68-6.03,6.68
				C754.13,192.4,751.26,189.96,751.26,185.72z M760.58,185.72c0-2.73-1.26-4.54-3.28-4.54c-2,0-3.26,1.82-3.26,4.54
				c0,2.7,1.26,4.49,3.26,4.49C759.32,190.22,760.58,188.42,760.58,185.72z"/>
			<path class="st342" d="M766.48,179.29h2.19l0.21,1.77h0.07c1.19-1.14,2.49-2.1,4.24-2.1c2.72,0,3.93,1.82,3.93,5.08v8.06h-2.68
				v-7.73c0-2.21-0.65-3.1-2.17-3.1c-1.19,0-2,0.61-3.14,1.75v9.08h-2.66V179.29z"/>
		</g>
		<g>
			<path class="st342" d="M456.63,98.12h-5.91c0.89,0.72,1.81,1.54,2.36,2.15l-2.46,2.15h2.8v8.64h-10.83v2.02h12.5
				c0,0-0.03,0.99-0.1,1.47c-0.34,4.54-0.75,6.76-1.64,7.65c-0.72,0.82-1.54,1.09-2.6,1.19c-0.96,0.1-2.56,0.14-4.34,0.07
				c-0.07-1.2-0.48-2.7-1.13-3.69c1.44,0.14,2.87,0.17,3.49,0.14c0.51,0,0.85-0.03,1.16-0.31c0.34-0.34,0.61-1.26,0.82-3.14h-8.16
				v8.44h-4v-6.66c-2.87,2.8-6.66,5.12-10.38,6.53c-0.58-0.99-1.71-2.46-2.56-3.21c3.55-1.06,7.24-2.94,9.91-5.09h-7.34
				c0.51-2.33,1.02-5.88,1.26-8.75h9.12v-1.95h-10.38v-3.35h6.97c-0.75-0.96-2.08-2.22-3.14-3.14l1.3-1.13h-2.02
				c-1.09,1.71-2.32,3.25-3.48,4.41c-0.58-0.68-1.95-2.12-2.73-2.73c2.02-1.77,3.89-4.47,4.95-7.17l3.59,1.03
				c-0.17,0.45-0.38,0.92-0.61,1.37h7.52v3.11h-4.88c0.92,0.79,1.81,1.64,2.32,2.26l-2.19,2.02h14.42
				c-0.75-0.92-2.22-2.15-3.31-3.04l1.47-1.26h-2.8c-0.82,1.3-1.74,2.43-2.66,3.32c-0.68-0.68-2.15-1.85-3.04-2.36
				c1.88-1.61,3.42-4,4.27-6.42l3.69,0.92c-0.17,0.48-0.38,0.99-0.58,1.47h9.4V98.12z M438.6,111.07h-5.57
				c-0.1,0.68-0.17,1.37-0.27,2.02h5.84V111.07z M449.39,105.77h-6.8v1.95h6.8V105.77z"/>
			<path class="st342" d="M494.17,109.47h-13.36v15.4h-4.44v-15.4h-13.15v-4.24h13.15V93h4.44v12.23h13.36V109.47z"/>
			<path class="st342" d="M529.72,104.58h-22c0,5.91-0.58,14.79-4.17,20.43c-0.79-0.65-2.6-1.74-3.62-2.12
				c3.42-5.23,3.66-12.88,3.66-18.31V94.53h26.13V104.58z M525.62,98.19h-17.9v2.7h17.9V98.19z M530.33,107.28v17.63h-3.86v-1.23
				h-17.73v-16.4h3.89v12.85h13.84v-12.85H530.33z M517.76,115.03v-3.35h-3.38v-3.28h3.38v-3.01h3.69v3.01h3.42v3.28h-3.42v3.35
				h4.07v3.28h-11.89v-3.28H517.76z"/>
			<path class="st342" d="M555.77,93c-0.03,1.44-0.1,3.28-0.24,5.33c0.48,4.61,2.56,17.49,14.48,22.75
				c-1.26,0.99-2.42,2.36-2.97,3.52c-7.58-3.62-11.38-10.28-13.36-16.16c-1.88,6.01-5.47,12.2-12.57,16.36
				c-0.72-1.09-2.02-2.39-3.38-3.32c13.87-7.41,13.22-22.72,13.36-28.49H555.77z"/>
			<path class="st342" d="M583.7,112.3c-0.28-0.82-0.82-2.08-1.4-3.31v15.88h-3.49v-13.19c-0.68,2.39-1.47,4.55-2.32,6.11
				c-0.31-1.16-1.06-2.97-1.57-4.03c1.57-2.43,2.94-6.83,3.69-10.69h-2.8v-3.76h3v-6.35h3.49v6.35h2.29v3.76h-2.29v1.5
				c0.75,1.06,2.7,4.2,3.14,5.02L583.7,112.3z M605.32,114.66c-0.99,1.88-2.26,3.56-3.76,5.02c0.65,0.72,1.33,1.13,2.12,1.23
				c0.65,0.07,1.06-1.16,1.3-3.56c0.58,0.79,1.91,1.78,2.56,2.15c-0.89,4.24-2.26,5.43-3.72,5.33c-2.01-0.17-3.69-1.2-5.02-2.9
				c-1.61,1.13-3.45,2.08-5.4,2.84c-0.44-0.72-1.4-1.95-2.08-2.6c2.19-0.75,4.17-1.81,5.88-3.07c-0.72-1.57-1.27-3.38-1.74-5.47
				h-4.65c-0.03,0.24-0.03,0.51-0.07,0.75c1.4,1.13,3.35,2.7,4.34,3.69l-2.46,2.39c-0.58-0.68-1.57-1.57-2.56-2.46
				c-0.79,2.43-2.19,4.88-4.65,6.83c-0.51-0.65-1.95-1.91-2.7-2.32c3.62-2.66,4.55-6.15,4.65-8.88h-2.02v-3.11h9.53
				c-0.58-3.48-0.92-7.52-1.16-11.96c-1.33,2.53-3.01,5.09-4.65,7.1l1.91-0.21c-0.17-0.51-0.31-1.06-0.45-1.54l2.36-0.61
				c0.55,1.61,1.13,3.66,1.37,4.92l-2.53,0.75c-0.04-0.31-0.1-0.72-0.21-1.16c-4.1,0.61-4.88,0.85-5.36,1.06
				c-0.17-0.55-0.61-2.02-0.96-2.77c0.58-0.14,1.13-0.68,1.71-1.5c0.31-0.38,0.92-1.3,1.64-2.5c-1.81,0.24-2.39,0.41-2.73,0.58
				c-0.17-0.61-0.65-1.98-0.96-2.73c0.45-0.14,0.85-0.55,1.23-1.23c0.38-0.62,1.64-3.08,2.29-5.47l2.9,0.75
				c-0.78,1.98-1.88,4.07-2.94,5.71l1.54-0.14c0.34-0.68,0.68-1.4,0.95-2.12l2.84,0.96c-0.07-1.64-0.14-3.42-0.21-5.19h3.35
				c0.14,6.7,0.58,12.64,1.43,17.29h3.14c-0.58-0.51-1.23-1.02-1.77-1.47l1.54-1.26c-1.61,0.27-2.12,0.45-2.43,0.61
				c-0.14-0.58-0.61-2.05-0.92-2.8c0.55-0.17,1.06-0.72,1.67-1.57c0.31-0.34,0.92-1.27,1.57-2.43c-1.78,0.24-2.33,0.41-2.66,0.58
				c-0.21-0.62-0.65-1.95-0.99-2.73c0.45-0.1,0.82-0.55,1.2-1.16c0.34-0.58,1.47-2.9,2.05-5.16l2.9,0.79
				c-0.68,1.84-1.67,3.72-2.66,5.26l1.54-0.1c0.31-0.68,0.61-1.44,0.89-2.12l2.94,0.96c-1.26,2.56-2.94,5.2-4.54,7.24l1.88-0.21
				c-0.17-0.48-0.31-0.99-0.48-1.44l2.33-0.65c0.58,1.6,1.3,3.72,1.57,4.95l-2.43,0.85c-0.07-0.41-0.17-0.89-0.31-1.4
				c-0.85,0.14-1.57,0.24-2.15,0.34c0.92,0.68,2.02,1.5,2.6,2.09l-0.89,0.82h2.73v3.11h-3.96L605.32,114.66z M598.9,113.63
				c0.27,1.13,0.58,2.08,0.92,2.97c0.79-0.92,1.47-1.91,2.02-2.97H598.9z"/>
			<path class="st342" d="M644.6,120.06v3.96h-31.05v-3.96h18.86c0.21-1.4,0.45-2.87,0.68-4.41h-15.17
				c1.3-4.58,2.94-11.68,3.93-17.42h-7.28v-3.89h29v3.89h-17.29c-0.31,1.47-0.58,2.94-0.85,4.48h9.8l0.68-0.17l3.11,0.38
				c-0.51,4.92-1.5,11.54-2.39,17.15H644.6z M633.66,111.86c0.28-1.88,0.51-3.76,0.72-5.37h-9.77c-0.41,1.88-0.82,3.72-1.2,5.37
				H633.66z"/>
			<path class="st342" d="M681.79,100.65c0,0-0.03,1.33-0.03,1.81c-0.31,13.97-0.58,18.93-1.67,20.5c-0.78,1.13-1.57,1.47-2.7,1.71
				c-1.03,0.2-2.6,0.17-4.24,0.14c-0.07-1.13-0.51-2.77-1.2-3.89c1.5,0.14,2.8,0.17,3.45,0.17c0.51,0,0.86-0.14,1.16-0.58
				c0.72-0.92,1.06-5.09,1.26-16.12h-3.07c-0.45,9.15-2.01,16.19-7.76,20.73c-0.51-0.82-1.5-1.95-2.39-2.7
				c-4.92,0.51-9.84,1.03-13.53,1.33l-0.48-3.42c1.91-0.14,4.31-0.31,6.93-0.48v-2.05h-6.01v-2.87h6.01v-1.33h-5.87v-10.56h5.87
				v-1.33h-6.73v-2.94h6.73V97.4c-1.98,0.14-3.93,0.24-5.77,0.27c-0.14-0.82-0.51-2.08-0.89-2.87c5.05-0.28,10.97-0.85,14.72-1.67
				l1.77,3.04c-1.81,0.38-3.93,0.68-6.15,0.92v1.67h6.56v1.88h3.21c0.03-2.26,0.03-4.61,0.03-7.14h3.9c0,2.5,0,4.88-0.07,7.14
				H681.79z M654.87,107.11h2.66v-1.5h-2.66V107.11z M657.53,111.07v-1.54h-2.66v1.54H657.53z M661.22,119.54
				c1.95-0.13,3.96-0.31,5.94-0.48c2.66-3.69,3.48-8.57,3.72-14.69h-3.11v-2.66h-6.56v1.33h6.05v10.56h-6.05v1.33h6.18v2.87h-6.18
				V119.54z M663.89,107.11v-1.5h-2.66v1.5H663.89z M661.22,109.53v1.54h2.66v-1.54H661.22z"/>
			<path class="st342" d="M719.76,118.42v4.1h-31.05v-4.1h13.02v-17.66h-11.17v-4.24h27.29v4.24h-11.48v17.66H719.76z"/>
			<path class="st342" d="M737.24,94.33c-0.89,2.39-2.02,4.82-3.28,7.11v23.4h-4.1v-17.08c-0.72,0.85-1.44,1.71-2.12,2.46
				c-0.38-0.99-1.54-3.32-2.25-4.34c3.11-3.07,6.08-7.93,7.79-12.78L737.24,94.33z M748.07,102.39v3.59h8.85v3.69h-8.85v3.86h9.29
				v3.76h-9.29v7.58h-4.17v-22.48h-1.3c-1.37,2.53-2.94,4.85-4.48,6.63c-0.65-0.75-2.26-2.19-3.11-2.84
				c3.01-3.07,5.71-7.99,7.24-12.88l3.93,0.99c-0.48,1.43-1.02,2.83-1.67,4.24h13.26v3.86H748.07z"/>
			<path class="st342" d="M783.89,102.56v4.13h9.77c0,0-0.03,1.19-0.07,1.71c-0.41,9.39-0.82,13.19-1.95,14.48
				c-0.79,1.06-1.64,1.4-2.9,1.54c-1.02,0.17-2.87,0.17-4.68,0.1c-0.07-1.2-0.61-2.87-1.33-4c1.74,0.14,3.35,0.17,4.1,0.17
				c0.61,0,0.96-0.1,1.3-0.48c0.65-0.68,1.02-3.35,1.3-9.77h-5.71c-0.58,4.95-2.6,10.42-8.98,14.41c-0.72-0.89-2.05-2.08-3.11-2.8
				c7.24-4.61,8.2-10.66,8.2-15.17v-4.34h-4.95v2.43h-3.28v8.03c1.2-0.41,2.36-0.85,3.52-1.23l0.78,3.76
				c-4.03,1.61-8.33,3.21-11.75,4.51l-0.92-4.27c1.23-0.34,2.73-0.82,4.41-1.4v-9.39h-3.76v-3.82h3.76v-7.55h3.96v7.55h3.18v-2.5
				h9.12c-0.27-1.37-0.92-3.52-1.47-5.13l3.82-0.92c0.62,1.61,1.37,3.79,1.71,5.09l-3.52,0.96h10.79v3.89H783.89z"/>
		</g>
	</g>
</g>
</svg>
