<?xml version="1.0" encoding="utf-8"?>
<!-- Generator: Adobe Illustrator 23.0.0, SVG Export Plug-In . SVG Version: 6.00 Build 0)  -->
<svg version="1.1" xmlns="http://www.w3.org/2000/svg" xmlns:xlink="http://www.w3.org/1999/xlink" x="0px" y="0px"
	 viewBox="0 0 686.46 763.74" style="enable-background:new 0 0 686.46 763.74;" xml:space="preserve">
<style type="text/css">
	.st0{clip-path:url(#SVGID_2_);}
	.st1{fill:#153660;}
	.st2{opacity:0.8;}
	.st3{fill:url(#SVGID_3_);}
	.st4{fill:url(#SVGID_4_);}
	.st5{fill:url(#SVGID_5_);}
	.st6{fill:url(#SVGID_6_);}
	.st7{fill:url(#SVGID_7_);}
	.st8{fill:url(#SVGID_8_);}
	.st9{fill:url(#SVGID_9_);}
	.st10{fill:url(#SVGID_10_);}
	.st11{fill:url(#SVGID_11_);}
	.st12{fill:url(#SVGID_12_);}
	.st13{fill:url(#SVGID_13_);}
	.st14{fill:url(#SVGID_14_);}
	.st15{fill:url(#SVGID_15_);}
	.st16{fill:url(#SVGID_16_);}
	.st17{fill:url(#SVGID_17_);}
	.st18{fill:none;}
	.st19{fill:#E83632;}
	.st20{fill:url(#SVGID_18_);}
	.st21{fill:url(#SVGID_19_);}
	.st22{fill:url(#SVGID_20_);}
	.st23{fill:url(#SVGID_21_);}
	.st24{fill:url(#SVGID_22_);}
	.st25{fill:url(#SVGID_23_);}
	.st26{fill:url(#SVGID_24_);}
	.st27{fill:url(#SVGID_25_);}
	.st28{fill:url(#SVGID_26_);}
	.st29{fill:url(#SVGID_27_);}
	.st30{fill:url(#SVGID_28_);}
	.st31{fill:url(#SVGID_29_);}
	.st32{fill:url(#SVGID_30_);}
	.st33{fill:url(#SVGID_31_);}
	.st34{fill:url(#SVGID_32_);}
	.st35{fill:url(#SVGID_33_);}
	.st36{fill:url(#SVGID_34_);}
	.st37{fill:#69B1E2;}
	.st38{fill:#D03076;}
	.st39{fill:#D03277;}
	.st40{fill:#CF3377;}
	.st41{fill:#CF3578;}
	.st42{fill:#CF3678;}
	.st43{fill:#CE3779;}
	.st44{fill:#CE387A;}
	.st45{fill:#CE3A7A;}
	.st46{fill:#CD3B7B;}
	.st47{fill:#CD3C7B;}
	.st48{fill:#CD3D7C;}
	.st49{fill:#CD3F7C;}
	.st50{fill:#CC407D;}
	.st51{fill:#CC417D;}
	.st52{fill:#CC427E;}
	.st53{fill:#CB437E;}
	.st54{fill:#CB447F;}
	.st55{fill:#CB457F;}
	.st56{fill:#CA4680;}
	.st57{fill:#CA4780;}
	.st58{fill:#CA4981;}
	.st59{fill:#C94A82;}
	.st60{fill:#C94B82;}
	.st61{fill:#C94C83;}
	.st62{fill:#C84D84;}
	.st63{fill:#C84E84;}
	.st64{fill:#C84F85;}
	.st65{fill:#C75085;}
	.st66{fill:#C75186;}
	.st67{fill:#C75286;}
	.st68{fill:#C65387;}
	.st69{fill:#C65487;}
	.st70{fill:#C55588;}
	.st71{fill:#C55688;}
	.st72{fill:#C55789;}
	.st73{fill:#C4578A;}
	.st74{fill:#C4588A;}
	.st75{fill:#C4598B;}
	.st76{fill:#C35A8B;}
	.st77{fill:#C35B8C;}
	.st78{fill:#C35C8C;}
	.st79{fill:#C25D8D;}
	.st80{fill:#C25E8E;}
	.st81{fill:#C15F8F;}
	.st82{fill:#C1608F;}
	.st83{fill:#C16190;}
	.st84{fill:#C06290;}
	.st85{fill:#C06291;}
	.st86{fill:#C06392;}
	.st87{fill:#BF6492;}
	.st88{fill:#BF6593;}
	.st89{fill:#BF6693;}
	.st90{fill:#BE6694;}
	.st91{fill:#BE6794;}
	.st92{fill:#BE6895;}
	.st93{fill:#BD6996;}
	.st94{fill:#BD6A96;}
	.st95{fill:#BC6A97;}
	.st96{fill:#BC6B97;}
	.st97{fill:#BC6C98;}
	.st98{fill:#BB6D98;}
	.st99{fill:#BB6D99;}
	.st100{fill:#BA6E9A;}
	.st101{fill:#BA6F9A;}
	.st102{fill:#BA709B;}
	.st103{fill:#B9709B;}
	.st104{fill:#B9719C;}
	.st105{fill:#B9729D;}
	.st106{fill:#B8729D;}
	.st107{fill:#B8739E;}
	.st108{fill:#B7749E;}
	.st109{fill:#B7759F;}
	.st110{fill:#B775A0;}
	.st111{fill:#B676A0;}
	.st112{fill:#B677A1;}
	.st113{fill:#B577A1;}
	.st114{fill:#B578A2;}
	.st115{fill:#B579A3;}
	.st116{fill:#B47AA3;}
	.st117{fill:#B47AA4;}
	.st118{fill:#B37BA4;}
	.st119{fill:#B37CA5;}
	.st120{fill:#B37CA6;}
	.st121{fill:#B27DA6;}
	.st122{fill:#B27EA7;}
	.st123{fill:#B17EA7;}
	.st124{fill:#B17FA8;}
	.st125{fill:#B080A9;}
	.st126{fill:#AF81AA;}
	.st127{fill:#AE82AB;}
	.st128{fill:#AE83AC;}
	.st129{fill:#AD84AD;}
	.st130{fill:#AD85AD;}
	.st131{fill:#AC85AE;}
	.st132{fill:#AC86AF;}
	.st133{fill:#AB86AF;}
	.st134{fill:#AB87B0;}
	.st135{fill:#AA88B0;}
	.st136{fill:#AA88B1;}
	.st137{fill:#A989B2;}
	.st138{fill:#A88AB3;}
	.st139{fill:#A88BB3;}
	.st140{fill:#A78BB4;}
	.st141{fill:#A78CB4;}
	.st142{fill:#A68CB5;}
	.st143{fill:#A68DB6;}
	.st144{fill:#A58EB6;}
	.st145{fill:#A58EB7;}
	.st146{fill:#A48FB7;}
	.st147{fill:#A48FB8;}
	.st148{fill:#A390B9;}
	.st149{fill:#A291BA;}
	.st150{fill:#A191BA;}
	.st151{fill:#A192BB;}
	.st152{fill:#A093BC;}
	.st153{fill:#9F94BD;}
	.st154{fill:#9E95BE;}
	.st155{fill:#9D95BF;}
	.st156{fill:#9D96BF;}
	.st157{fill:#9C96C0;}
	.st158{fill:#9C97C0;}
	.st159{fill:#9B97C1;}
	.st160{fill:#9A98C1;}
	.st161{fill:#9A98C2;}
	.st162{fill:#9999C3;}
	.st163{fill:#989AC4;}
	.st164{fill:#979AC4;}
	.st165{fill:#979BC5;}
	.st166{fill:#969BC6;}
	.st167{fill:#959CC6;}
	.st168{fill:#959CC7;}
	.st169{fill:#949DC7;}
	.st170{fill:#939DC8;}
	.st171{fill:#939EC8;}
	.st172{fill:#929EC9;}
	.st173{fill:#919FCA;}
	.st174{fill:#90A0CB;}
	.st175{fill:#8FA0CB;}
	.st176{fill:#8EA1CC;}
	.st177{fill:#8DA2CD;}
	.st178{fill:#8CA2CE;}
	.st179{fill:#8BA2CE;}
	.st180{fill:#8BA3CF;}
	.st181{fill:#8AA3CF;}
	.st182{fill:#89A4D0;}
	.st183{fill:#88A4D0;}
	.st184{fill:#88A5D1;}
	.st185{fill:#87A5D2;}
	.st186{fill:#86A5D2;}
	.st187{fill:#85A6D3;}
	.st188{fill:#84A6D3;}
	.st189{fill:#84A7D4;}
	.st190{fill:#83A7D4;}
	.st191{fill:#82A7D5;}
	.st192{fill:#81A8D5;}
	.st193{fill:#80A8D6;}
	.st194{fill:#7FA9D7;}
	.st195{fill:#7EA9D8;}
	.st196{fill:#7DAAD8;}
	.st197{fill:#7CAAD9;}
	.st198{fill:#7BABD9;}
	.st199{fill:#7AABDA;}
	.st200{fill:#79ABDA;}
	.st201{fill:#78ACDB;}
	.st202{fill:#77ACDB;}
	.st203{fill:#76ACDC;}
	.st204{fill:#75ADDC;}
	.st205{fill:#74ADDD;}
	.st206{fill:#73ADDE;}
	.st207{fill:#72AEDE;}
	.st208{fill:#71AEDF;}
	.st209{fill:#70AFDF;}
	.st210{fill:#6FAFE0;}
	.st211{fill:#6EAFE0;}
	.st212{fill:#6DB0E0;}
	.st213{fill:#6CB0E1;}
	.st214{fill:#6BB0E1;}
	.st215{fill:#6AB1E2;}
	.st216{fill:url(#SVGID_35_);}
	.st217{fill:url(#SVGID_36_);}
	.st218{fill:url(#SVGID_37_);}
	.st219{fill:url(#SVGID_38_);}
	.st220{fill:url(#SVGID_39_);}
	.st221{fill:url(#SVGID_40_);}
	.st222{fill:url(#SVGID_41_);}
	.st223{fill:url(#SVGID_42_);}
	.st224{fill:url(#SVGID_43_);}
	.st225{fill:url(#SVGID_44_);}
	.st226{fill:url(#SVGID_45_);}
	.st227{fill:url(#SVGID_46_);}
	.st228{fill:url(#SVGID_47_);}
	.st229{fill:url(#SVGID_48_);}
	.st230{fill:#F4F4F4;}
	.st231{clip-path:url(#SVGID_2_);fill:#69B1E2;}
	.st232{fill:url(#SVGID_49_);}
	.st233{fill:url(#SVGID_50_);}
	.st234{fill:url(#SVGID_51_);}
	.st235{fill:url(#SVGID_52_);}
	.st236{fill:url(#SVGID_53_);}
	.st237{fill:url(#SVGID_54_);}
	.st238{fill:url(#SVGID_55_);}
	.st239{fill:url(#SVGID_56_);}
	.st240{fill:url(#SVGID_57_);}
	.st241{fill:url(#SVGID_58_);}
	.st242{fill:url(#SVGID_59_);}
	.st243{fill:url(#SVGID_60_);}
	.st244{fill:url(#SVGID_61_);}
	.st245{fill:url(#SVGID_62_);}
	.st246{fill:url(#SVGID_63_);}
	.st247{fill:url(#SVGID_64_);}
	.st248{fill:url(#SVGID_65_);}
	.st249{fill:url(#SVGID_66_);}
	.st250{fill:url(#SVGID_67_);}
	.st251{fill:url(#SVGID_68_);}
	.st252{fill:url(#SVGID_69_);}
	.st253{fill:url(#SVGID_70_);}
	.st254{fill:url(#SVGID_71_);}
	.st255{fill:url(#SVGID_72_);}
	.st256{fill:url(#SVGID_73_);}
	.st257{fill:url(#SVGID_74_);}
	.st258{fill:url(#SVGID_75_);}
	.st259{fill:url(#SVGID_76_);}
	.st260{fill:url(#SVGID_77_);}
	.st261{fill:url(#SVGID_78_);}
	.st262{fill:url(#SVGID_79_);}
	.st263{fill:url(#SVGID_80_);}
	.st264{fill:url(#SVGID_81_);}
	.st265{fill:url(#SVGID_82_);}
	.st266{fill:url(#SVGID_83_);}
	.st267{fill:url(#SVGID_84_);}
	.st268{fill:url(#SVGID_85_);}
	.st269{fill:url(#SVGID_86_);}
	.st270{fill:url(#SVGID_87_);}
	.st271{fill:url(#SVGID_88_);}
	.st272{fill:url(#SVGID_89_);}
	.st273{fill:url(#SVGID_90_);}
	.st274{fill:url(#SVGID_91_);}
	.st275{fill:url(#SVGID_92_);}
	.st276{fill:url(#SVGID_93_);}
	.st277{fill:url(#SVGID_94_);}
	.st278{fill:url(#SVGID_95_);}
	.st279{fill:url(#SVGID_96_);}
	.st280{fill:url(#SVGID_97_);}
	.st281{fill:url(#SVGID_98_);}
	.st282{fill:url(#SVGID_99_);}
	.st283{fill:url(#SVGID_100_);}
	.st284{fill:url(#SVGID_101_);}
	.st285{fill:url(#SVGID_102_);}
	.st286{fill:url(#SVGID_103_);}
	.st287{fill:url(#SVGID_104_);}
	.st288{fill:url(#SVGID_105_);}
	.st289{fill:url(#SVGID_106_);}
	.st290{fill:url(#SVGID_107_);}
	.st291{fill:url(#SVGID_108_);}
	.st292{fill:url(#SVGID_109_);}
	.st293{fill:url(#SVGID_110_);}
	.st294{fill:url(#SVGID_111_);}
	.st295{fill:url(#SVGID_112_);}
	.st296{fill:url(#SVGID_113_);}
	.st297{fill:url(#SVGID_114_);}
	.st298{fill:url(#SVGID_115_);}
	.st299{fill:url(#SVGID_116_);}
	.st300{fill:url(#SVGID_117_);}
	.st301{fill:url(#SVGID_118_);}
	.st302{fill:url(#SVGID_119_);}
	.st303{fill:url(#SVGID_120_);}
	.st304{fill:url(#SVGID_121_);}
	.st305{fill:url(#SVGID_122_);}
	.st306{fill:url(#SVGID_123_);}
	.st307{fill:url(#SVGID_124_);}
	.st308{fill:url(#SVGID_125_);}
	.st309{fill:url(#SVGID_126_);}
	.st310{fill:url(#SVGID_127_);}
	.st311{fill:url(#SVGID_128_);}
	.st312{fill:url(#SVGID_129_);}
	.st313{fill:url(#SVGID_130_);}
	.st314{fill:url(#SVGID_131_);}
	.st315{fill:url(#SVGID_132_);}
	.st316{fill:url(#SVGID_133_);}
	.st317{fill:url(#SVGID_134_);}
	.st318{fill:url(#SVGID_135_);}
	.st319{fill:url(#SVGID_136_);}
	.st320{fill:url(#SVGID_137_);}
	.st321{fill:url(#SVGID_138_);}
	.st322{fill:url(#SVGID_139_);}
	.st323{fill:url(#SVGID_140_);}
	.st324{fill:url(#SVGID_141_);}
	.st325{fill:#040000;}
	.st326{fill:url(#SVGID_142_);}
	.st327{fill:url(#SVGID_143_);}
	.st328{fill:url(#SVGID_144_);}
	.st329{fill:url(#SVGID_145_);}
	.st330{fill:url(#SVGID_146_);}
	.st331{fill:url(#SVGID_147_);}
	.st332{fill:url(#SVGID_148_);}
	.st333{fill:url(#SVGID_149_);}
	.st334{fill:url(#SVGID_150_);}
	.st335{fill:url(#SVGID_151_);}
	.st336{fill:url(#SVGID_152_);}
	.st337{fill:url(#SVGID_153_);}
	.st338{fill:url(#SVGID_154_);}
	.st339{fill:url(#SVGID_155_);}
	.st340{fill:#C23370;}
	.st341{fill:#69A8D5;}
	.st342{fill:#FFFFFF;}
	.st343{fill:url(#SVGID_156_);}
	.st344{fill:url(#SVGID_157_);}
	.st345{fill:url(#SVGID_158_);}
	.st346{fill:url(#SVGID_159_);}
	.st347{fill:url(#SVGID_160_);}
	.st348{fill:url(#SVGID_161_);}
	.st349{fill:url(#SVGID_162_);}
	.st350{fill:url(#SVGID_163_);}
	.st351{fill:url(#SVGID_164_);}
	.st352{fill:url(#SVGID_165_);}
	.st353{fill:url(#SVGID_166_);}
	.st354{fill:url(#SVGID_167_);}
	.st355{fill:url(#SVGID_168_);}
	.st356{fill:url(#SVGID_169_);}
	.st357{fill:url(#SVGID_170_);}
	.st358{fill:url(#SVGID_171_);}
	.st359{fill:url(#SVGID_172_);}
	.st360{fill:url(#SVGID_173_);}
	.st361{fill:url(#SVGID_174_);}
	.st362{fill:url(#SVGID_175_);}
	.st363{fill:url(#SVGID_176_);}
	.st364{fill:url(#SVGID_177_);}
	.st365{fill:url(#SVGID_178_);}
	.st366{fill:url(#SVGID_179_);}
	.st367{fill:url(#SVGID_180_);}
	.st368{fill:url(#SVGID_181_);}
	.st369{fill:url(#SVGID_182_);}
	.st370{fill:url(#SVGID_183_);}
	.st371{fill:url(#SVGID_184_);}
	.st372{fill:url(#SVGID_185_);}
	.st373{fill:url(#SVGID_186_);}
	.st374{fill:url(#SVGID_187_);}
	.st375{fill:url(#SVGID_188_);}
	.st376{fill:url(#SVGID_189_);}
	.st377{fill:url(#SVGID_190_);}
	.st378{fill:url(#SVGID_191_);}
	.st379{fill:url(#SVGID_192_);}
	.st380{fill:url(#SVGID_193_);}
	.st381{fill:url(#SVGID_194_);}
	.st382{fill:url(#SVGID_195_);}
	.st383{fill:url(#SVGID_196_);}
	.st384{fill:url(#SVGID_197_);}
	.st385{fill:url(#SVGID_198_);}
	.st386{fill:url(#SVGID_199_);}
</style>
<g id="圖層_1">
</g>
<g id="圖層_2">
</g>
<g id="圖層_3">
	<g id="圖層_4">
	</g>
	<g id="圖層_5">
	</g>
	<rect x="120.81" y="149.17" class="st18" width="7.89" height="46.32"/>
	<g>
		<g>
			<rect x="120.82" y="250.17" class="st18" width="7.89" height="46.32"/>
			<g>
				<g>
					<g>
						<linearGradient id="SVGID_2_" gradientUnits="userSpaceOnUse" x1="265.9616" y1="280.358" x2="514.6537" y2="280.358">
							<stop  offset="0" style="stop-color:#21ACDA"/>
							<stop  offset="1" style="stop-color:#E62676"/>
						</linearGradient>
						<path style="fill:url(#SVGID_2_);" d="M366.2,349.89h73.78v20.63H272.03v-20.63h73.78v-46.11h-48.06v-20.39h48.06v-31.55H298
							l-10.19,27.67h-21.84l30.58-84.22h21.6l-13.11,35.92h40.77v-41.02h20.39v41.02h148.46v20.63H366.2v31.55h50.48v20.39H366.2
							V349.89z"/>
						<g>
							<linearGradient id="SVGID_3_" gradientUnits="userSpaceOnUse" x1="53.1396" y1="352.2979" x2="101.7429" y2="352.2979">
								<stop  offset="0" style="stop-color:#21ACDA"/>
								<stop  offset="1" style="stop-color:#E62676"/>
							</linearGradient>
							<polygon class="st3" points="53.14,369.09 76.96,369.09 101.74,335.5 77.92,335.5 							"/>
							<linearGradient id="SVGID_4_" gradientUnits="userSpaceOnUse" x1="162.4973" y1="352.2979" x2="213.4827" y2="352.2979">
								<stop  offset="0" style="stop-color:#21ACDA"/>
								<stop  offset="1" style="stop-color:#E62676"/>
							</linearGradient>
							<polygon class="st4" points="162.5,335.5 188.94,369.09 213.48,369.09 186.8,335.5 							"/>
							<linearGradient id="SVGID_5_" gradientUnits="userSpaceOnUse" x1="42.4184" y1="159.4255" x2="221.5836" y2="159.4255">
								<stop  offset="0" style="stop-color:#21ACDA"/>
								<stop  offset="1" style="stop-color:#E62676"/>
							</linearGradient>
							<path class="st5" d="M176.32,296.19v-49.32h34.55v-18.82h-34.55v-30.74h-18.82v30.74h-50.99V33.63
								c4.12-3.03,6.81-7.89,6.81-13.4c0-9.18-7.45-16.63-16.63-16.63c-9.18,0-16.63,7.45-16.63,16.63c0,5.86,3.04,11.01,7.62,13.97
								v193.85H53.14v18.82h34.55v49.32H42.42v19.06h179.17v-19.06H176.32z M157.49,296.19h-50.99v-49.32h50.99V296.19z"/>
						</g>
						<g>
							<linearGradient id="SVGID_6_" gradientUnits="userSpaceOnUse" x1="257.9561" y1="583.9091" x2="451.1783" y2="583.9091">
								<stop  offset="0" style="stop-color:#21ACDA"/>
								<stop  offset="1" style="stop-color:#E62676"/>
							</linearGradient>
							<path class="st6" d="M290.3,650.4v-90.72h25.65v35.98h17.56v-2.62h117.67v-15.25h-30.26l7.15-14.3h-16.92l-6.91,14.3h-21.68
								l-7.39-14.3h-16.92l7.39,14.3h-32.14v-72.67h113.38v-15.01H348v-10.01h91.98v-59.56h-26.92v-12.87h-13.34v12.87h-14.06
								v-12.87h-13.82v12.87h-26.68v41.22h-5.7v-50.99h-65.89v50.99h-15.61v33.36h14.78v234.34c-4.66,2.95-7.77,8.13-7.77,14.06
								c0,9.18,7.45,16.63,16.63,16.63c9.18,0,16.63-7.45,16.63-16.63c0-5.99-3.18-11.22-7.92-14.15V660V650.4z M413.06,433.17h14.3
								v9.77h-14.3V433.17z M413.06,457h14.3v10.24h-14.3V457z M385.66,433.17h14.06v9.77h-14.06V433.17z M385.66,457h14.06v10.24
								h-14.06V457z M357.78,433.17h14.06v9.77h-14.06V433.17z M357.78,457h14.06v10.24h-14.06V457z M315.94,544.67H290.3v-14.3
								h25.65V544.67z M315.94,515.37H290.3v-12.15h25.65V515.37z M289.18,424.12h27.88v11.2h-21.19v26.45h-6.69V424.12z
								 M317.06,447.94v13.82h-6.69v-13.82H317.06z M274.68,488.21v-12.15h56.87v12.15H274.68z"/>
							<linearGradient id="SVGID_7_" gradientUnits="userSpaceOnUse" x1="350.8747" y1="533.8784" x2="434.2632" y2="533.8784">
								<stop  offset="0" style="stop-color:#21ACDA"/>
								<stop  offset="1" style="stop-color:#E62676"/>
							</linearGradient>
							<rect x="350.87" y="514.65" class="st7" width="83.39" height="38.45"/>
						</g>
					</g>
					<g>
						<linearGradient id="SVGID_8_" gradientUnits="userSpaceOnUse" x1="44.8269" y1="440.6606" x2="79.5162" y2="440.6606">
							<stop  offset="0" style="stop-color:#21ACDA"/>
							<stop  offset="1" style="stop-color:#E62676"/>
						</linearGradient>
						<path class="st8" d="M44.83,457.88l6.23-7.59c3.27,2.78,7.53,4.69,11.17,4.69c4.07,0,5.99-1.54,5.99-4.01
							c0-2.65-2.53-3.52-6.48-5.19l-5.86-2.47c-4.81-1.91-9.32-5.93-9.32-12.59c0-7.72,6.91-13.89,16.67-13.89
							c5.31,0,10.93,2.04,14.94,6.05l-5.49,6.91c-3.02-2.28-5.86-3.52-9.44-3.52c-3.4,0-5.49,1.36-5.49,3.83
							c0,2.53,2.9,3.52,6.98,5.12l5.74,2.28c5.68,2.28,9.07,6.11,9.07,12.59c0,7.65-6.42,14.38-17.53,14.38
							C56,464.49,49.58,462.26,44.83,457.88z"/>
						<linearGradient id="SVGID_9_" gradientUnits="userSpaceOnUse" x1="80.5694" y1="440.6606" x2="119.2714" y2="440.6606">
							<stop  offset="0" style="stop-color:#21ACDA"/>
							<stop  offset="1" style="stop-color:#E62676"/>
						</linearGradient>
						<path class="st9" d="M94.4,447.39L80.57,417.7H92.3l3.83,10.18c1.24,3.46,2.41,6.67,3.7,10.25h0.25
							c1.3-3.58,2.53-6.79,3.83-10.25l3.83-10.18h11.54l-13.89,29.69v16.23H94.4V447.39z"/>
						<linearGradient id="SVGID_10_" gradientUnits="userSpaceOnUse" x1="124.5836" y1="440.6606" x2="168.1634" y2="440.6606">
							<stop  offset="0" style="stop-color:#21ACDA"/>
							<stop  offset="1" style="stop-color:#E62676"/>
						</linearGradient>
						<path class="st10" d="M124.58,417.7h11.91l7.28,19.81c0.93,2.65,1.66,5.56,2.53,8.39h0.31c0.93-2.84,1.67-5.74,2.53-8.39
							l7.04-19.81h11.98v45.92H158.1v-15.74c0-4.57,0.86-11.42,1.42-15.93h-0.25l-3.83,10.99l-6.17,16.79h-6.05l-6.23-16.79
							l-3.7-10.99h-0.25c0.55,4.51,1.42,11.36,1.42,15.93v15.74h-9.88V417.7z"/>
						<linearGradient id="SVGID_11_" gradientUnits="userSpaceOnUse" x1="177.1194" y1="445.753" x2="194.5882" y2="445.753">
							<stop  offset="0" style="stop-color:#21ACDA"/>
							<stop  offset="1" style="stop-color:#E62676"/>
						</linearGradient>
						<path class="st11" d="M177.12,441.9h17.47v7.72h-17.47V441.9z"/>
						<linearGradient id="SVGID_12_" gradientUnits="userSpaceOnUse" x1="47.7277" y1="514.7399" x2="83.0359" y2="514.7399">
							<stop  offset="0" style="stop-color:#21ACDA"/>
							<stop  offset="1" style="stop-color:#E62676"/>
						</linearGradient>
						<path class="st12" d="M47.73,491.78h16.05c9.51,0,17.1,2.53,17.1,11.36c0,4.07-2.28,8.52-5.99,9.94v0.25
							c4.63,1.23,8.15,4.69,8.15,10.8c0,9.38-7.96,13.58-17.96,13.58H47.73V491.78z M63.34,509.99c4.69,0,6.79-2.04,6.79-5.18
							c0-3.27-2.16-4.63-6.79-4.63h-4.57v9.81H63.34z M64.27,529.25c5.31,0,8.02-1.91,8.02-5.86c0-3.77-2.65-5.25-8.02-5.25h-5.49
							v11.11H64.27z"/>
						<linearGradient id="SVGID_13_" gradientUnits="userSpaceOnUse" x1="91.2489" y1="514.7399" x2="102.2973" y2="514.7399">
							<stop  offset="0" style="stop-color:#21ACDA"/>
							<stop  offset="1" style="stop-color:#E62676"/>
						</linearGradient>
						<path class="st13" d="M91.25,491.78h11.05v45.92H91.25V491.78z"/>
						<linearGradient id="SVGID_14_" gradientUnits="userSpaceOnUse" x1="111.3721" y1="514.7399" x2="153.4695" y2="514.7399">
							<stop  offset="0" style="stop-color:#21ACDA"/>
							<stop  offset="1" style="stop-color:#E62676"/>
						</linearGradient>
						<path class="st14" d="M111.37,514.49c0-15.06,8.52-23.58,21.05-23.58s21.05,8.58,21.05,23.58c0,15.06-8.52,24.07-21.05,24.07
							S111.37,529.55,111.37,514.49z M142.24,514.49c0-8.89-3.77-14.14-9.82-14.14c-6.05,0-9.75,5.25-9.75,14.14
							c0,8.95,3.7,14.57,9.75,14.57C138.47,529.06,142.24,523.44,142.24,514.49z"/>
						<linearGradient id="SVGID_15_" gradientUnits="userSpaceOnUse" x1="157.0548" y1="514.7399" x2="192.9782" y2="514.7399">
							<stop  offset="0" style="stop-color:#21ACDA"/>
							<stop  offset="1" style="stop-color:#E62676"/>
						</linearGradient>
						<path class="st15" d="M169.46,500.91h-12.41v-9.14h35.92v9.14h-12.47v36.79h-11.05V500.91z"/>
						<linearGradient id="SVGID_16_" gradientUnits="userSpaceOnUse" x1="200.7002" y1="514.7399" x2="230.5134" y2="514.7399">
							<stop  offset="0" style="stop-color:#21ACDA"/>
							<stop  offset="1" style="stop-color:#E62676"/>
						</linearGradient>
						<path class="st16" d="M200.7,491.78h29.13v9.14h-18.09v8.52h15.37v9.26h-15.37v9.75h18.76v9.26H200.7V491.78z"/>
					</g>
				</g>
				<g>
					<g>
						<path class="st230" d="M375.09,349.89h73.78v20.63H280.92v-20.63h73.78v-46.11h-48.06v-20.39h48.06v-31.55h-47.81
							l-10.19,27.67h-21.84l30.58-84.22h21.6l-13.11,35.92h40.77v-41.02h20.39v41.02h148.46v20.63H375.09v31.55h50.48v20.39h-50.48
							V349.89z"/>
						<g>
							<polygon class="st230" points="62.03,369.09 85.86,369.09 110.64,335.5 86.81,335.5 							"/>
							<polygon class="st230" points="171.39,335.5 197.84,369.09 222.38,369.09 195.69,335.5 							"/>
							<path class="st230" d="M185.21,296.19v-49.32h34.55v-18.82h-34.55v-30.74h-18.82v30.74H115.4V33.63
								c4.12-3.03,6.81-7.89,6.81-13.4c0-9.18-7.45-16.63-16.63-16.63c-9.18,0-16.63,7.45-16.63,16.63c0,5.86,3.04,11.01,7.62,13.97
								v193.85H62.03v18.82h34.55v49.32H51.31v19.06h179.17v-19.06H185.21z M166.39,296.19H115.4v-49.32h50.99V296.19z"/>
						</g>
						<g>
							<path class="st230" d="M299.19,650.4v-90.72h25.65v35.98h17.56v-2.62h117.67v-15.25h-30.26l7.15-14.3h-16.92l-6.91,14.3
								h-21.68l-7.39-14.3h-16.92l7.39,14.3H342.4v-72.67h113.38v-15.01H356.9v-10.01h91.98v-59.56h-26.92v-12.87h-13.34v12.87
								h-14.06v-12.87h-13.82v12.87h-26.68v41.22h-5.7v-50.99h-65.89v50.99h-15.61v33.36h14.78v234.34
								c-4.66,2.95-7.77,8.13-7.77,14.06c0,9.18,7.45,16.63,16.63,16.63c9.18,0,16.63-7.45,16.63-16.63
								c0-5.99-3.18-11.22-7.92-14.15V660V650.4z M421.95,433.17h14.3v9.77h-14.3V433.17z M421.95,457h14.3v10.24h-14.3V457z
								 M394.55,433.17h14.06v9.77h-14.06V433.17z M394.55,457h14.06v10.24h-14.06V457z M366.68,433.17h14.06v9.77h-14.06V433.17z
								 M366.68,457h14.06v10.24h-14.06V457z M324.84,544.67h-25.65v-14.3h25.65V544.67z M324.84,515.37h-25.65v-12.15h25.65V515.37
								z M298.08,424.12h27.88v11.2h-21.19v26.45h-6.69V424.12z M325.96,447.94v13.82h-6.69v-13.82H325.96z M283.58,488.21v-12.15
								h56.87v12.15H283.58z"/>
							<rect x="359.77" y="514.65" class="st230" width="83.39" height="38.45"/>
						</g>
					</g>
					<g>
						<path class="st230" d="M53.72,457.88l6.23-7.59c3.27,2.78,7.53,4.69,11.17,4.69c4.07,0,5.99-1.54,5.99-4.01
							c0-2.65-2.53-3.52-6.48-5.19l-5.86-2.47c-4.81-1.91-9.32-5.93-9.32-12.59c0-7.72,6.91-13.89,16.67-13.89
							c5.31,0,10.93,2.04,14.94,6.05l-5.49,6.91c-3.02-2.28-5.86-3.52-9.44-3.52c-3.4,0-5.49,1.36-5.49,3.83
							c0,2.53,2.9,3.52,6.98,5.12l5.74,2.28c5.68,2.28,9.07,6.11,9.07,12.59c0,7.65-6.42,14.38-17.53,14.38
							C64.89,464.49,58.47,462.26,53.72,457.88z"/>
						<path class="st230" d="M103.29,447.39L89.46,417.7h11.73l3.83,10.18c1.24,3.46,2.41,6.67,3.7,10.25h0.25
							c1.3-3.58,2.53-6.79,3.83-10.25l3.83-10.18h11.54l-13.89,29.69v16.23h-10.99V447.39z"/>
						<path class="st230" d="M133.48,417.7h11.91l7.28,19.81c0.93,2.65,1.66,5.56,2.53,8.39h0.31c0.93-2.84,1.67-5.74,2.53-8.39
							l7.04-19.81h11.98v45.92H167v-15.74c0-4.57,0.86-11.42,1.42-15.93h-0.25l-3.83,10.99l-6.17,16.79h-6.05l-6.23-16.79
							l-3.7-10.99h-0.25c0.55,4.51,1.42,11.36,1.42,15.93v15.74h-9.88V417.7z"/>
						<path class="st230" d="M186.01,441.9h17.47v7.72h-17.47V441.9z"/>
						<path class="st230" d="M56.62,491.78h16.05c9.51,0,17.1,2.53,17.1,11.36c0,4.07-2.28,8.52-5.99,9.94v0.25
							c4.63,1.23,8.15,4.69,8.15,10.8c0,9.38-7.96,13.58-17.96,13.58H56.62V491.78z M72.24,509.99c4.69,0,6.79-2.04,6.79-5.18
							c0-3.27-2.16-4.63-6.79-4.63h-4.57v9.81H72.24z M73.17,529.25c5.31,0,8.02-1.91,8.02-5.86c0-3.77-2.65-5.25-8.02-5.25h-5.49
							v11.11H73.17z"/>
						<path class="st230" d="M100.14,491.78h11.05v45.92h-11.05V491.78z"/>
						<path class="st230" d="M120.27,514.49c0-15.06,8.52-23.58,21.05-23.58c12.53,0,21.05,8.58,21.05,23.58
							c0,15.06-8.52,24.07-21.05,24.07C128.79,538.57,120.27,529.55,120.27,514.49z M151.13,514.49c0-8.89-3.77-14.14-9.82-14.14
							c-6.05,0-9.75,5.25-9.75,14.14c0,8.95,3.7,14.57,9.75,14.57C147.37,529.06,151.13,523.44,151.13,514.49z"/>
						<path class="st230" d="M178.36,500.91h-12.41v-9.14h35.92v9.14H189.4v36.79h-11.05V500.91z"/>
						<path class="st230" d="M209.6,491.78h29.13v9.14h-18.09v8.52h15.37v9.26h-15.37v9.75h18.76v9.26H209.6V491.78z"/>
					</g>
				</g>
			</g>
			<g>
				<path class="st342" d="M158.5,109.38h4.89V93.84h-4.01v-2.22c2.09-0.39,3.58-0.91,4.86-1.7h2.64v19.47h4.37v2.88H158.5V109.38z"
					/>
				<path class="st342" d="M174.64,101c0-7.74,2.82-11.51,7.23-11.51c4.37,0,7.23,3.8,7.23,11.51c0,7.77-2.85,11.66-7.23,11.66
					C177.46,112.66,174.64,108.78,174.64,101z M185.75,101c0-6.41-1.61-8.74-3.88-8.74c-2.28,0-3.89,2.34-3.89,8.74
					c0,6.47,1.61,8.9,3.89,8.9C184.14,109.9,185.75,107.47,185.75,101z"/>
				<path class="st342" d="M193.72,106.8v-8.44h-2.43v-2.61l2.58-0.18l0.39-4.62h2.95v4.62h4.34v2.8h-4.34v8.47
					c0,2.01,0.7,3.04,2.43,3.04c0.58,0,1.31-0.18,1.79-0.39l0.64,2.58c-0.94,0.31-2.07,0.61-3.28,0.61
					C195.02,112.66,193.72,110.33,193.72,106.8z"/>
				<path class="st342" d="M205.2,88.06h3.46v6.41l-0.12,3.31c1.46-1.4,3.13-2.64,5.41-2.64c3.55,0,5.13,2.37,5.13,6.62v10.51h-3.49
					v-10.08c0-2.88-0.85-4.04-2.82-4.04c-1.55,0-2.61,0.79-4.1,2.28v11.84h-3.46V88.06z"/>
				<path class="st342" d="M229.15,110.35l1.64-2.25c1.49,1.18,2.95,1.91,4.74,1.91c2,0,2.95-0.97,2.95-2.25
					c0-1.52-1.88-2.19-3.71-2.88c-2.22-0.85-4.77-2.04-4.77-4.86c0-2.8,2.25-4.89,5.92-4.89c2.25,0,4.07,0.91,5.44,1.97l-1.64,2.16
					c-1.15-0.85-2.34-1.46-3.73-1.46c-1.82,0-2.67,0.91-2.67,2.07c0,1.43,1.73,1.98,3.55,2.64c2.34,0.88,4.92,1.91,4.92,5.07
					c0,2.79-2.22,5.07-6.35,5.07C233.12,112.66,230.75,111.69,229.15,110.35z"/>
				<path class="st342" d="M245.37,106.8v-8.44h-2.43v-2.61l2.58-0.18l0.39-4.62h2.95v4.62h4.34v2.8h-4.34v8.47
					c0,2.01,0.7,3.04,2.43,3.04c0.58,0,1.31-0.18,1.79-0.39l0.64,2.58c-0.94,0.31-2.07,0.61-3.28,0.61
					C246.68,112.66,245.37,110.33,245.37,106.8z"/>
				<path class="st342" d="M256.64,106.07V95.57h3.49v10.08c0,2.88,0.82,4.01,2.79,4.01c1.55,0,2.61-0.73,4.01-2.49v-11.6h3.49v16.7
					h-2.85l-0.27-2.52h-0.09c-1.52,1.76-3.16,2.91-5.47,2.91C258.19,112.66,256.64,110.33,256.64,106.07z"/>
				<path class="st342" d="M274.57,103.95c0-5.44,3.43-8.81,7.17-8.81c1.91,0,3.13,0.73,4.5,1.88l-0.15-2.76v-6.2h3.49v24.2h-2.85
					l-0.3-1.88h-0.09c-1.24,1.28-2.98,2.28-4.86,2.28C277.28,112.66,274.57,109.47,274.57,103.95z M286.08,107.74v-8.17
					c-1.25-1.12-2.43-1.52-3.68-1.52c-2.34,0-4.22,2.22-4.22,5.83c0,3.8,1.49,5.89,4.1,5.89
					C283.68,109.78,284.87,109.14,286.08,107.74z"/>
				<path class="st342" d="M293.65,103.95c0-5.44,3.71-8.81,7.62-8.81c4.43,0,6.8,3.19,6.8,7.93c0,0.67-0.06,1.37-0.15,1.76h-10.84
					c0.27,3.19,2.28,5.1,5.16,5.1c1.49,0,2.76-0.46,3.98-1.25l1.22,2.22c-1.55,1.03-3.46,1.76-5.65,1.76
					C297.27,112.66,293.65,109.44,293.65,103.95z M305.07,102.43c0-2.88-1.31-4.55-3.73-4.55c-2.1,0-3.95,1.61-4.28,4.55H305.07z"/>
				<path class="st342" d="M312,95.57h2.85l0.28,2.31h0.09c1.55-1.49,3.25-2.73,5.53-2.73c3.55,0,5.13,2.37,5.13,6.62v10.51h-3.49
					v-10.08c0-2.88-0.85-4.04-2.82-4.04c-1.55,0-2.61,0.79-4.1,2.28v11.84H312V95.57z"/>
				<path class="st342" d="M331.51,106.8v-8.44h-2.43v-2.61l2.58-0.18l0.39-4.62H335v4.62h4.34v2.8H335v8.47
					c0,2.01,0.7,3.04,2.43,3.04c0.58,0,1.31-0.18,1.79-0.39l0.64,2.58c-0.94,0.31-2.07,0.61-3.28,0.61
					C332.82,112.66,331.51,110.33,331.51,106.8z"/>
				<path class="st342" d="M340.78,102.4h8.02v2.58h-8.02V102.4z"/>
				<path class="st342" d="M351.66,103.95c0-5.59,3.74-8.81,7.87-8.81s7.87,3.22,7.87,8.81c0,5.53-3.74,8.71-7.87,8.71
					S351.66,109.47,351.66,103.95z M363.81,103.95c0-3.55-1.64-5.92-4.28-5.92c-2.61,0-4.25,2.37-4.25,5.92
					c0,3.52,1.64,5.86,4.25,5.86C362.16,109.81,363.81,107.47,363.81,103.95z"/>
				<path class="st342" d="M371.5,95.57h2.85l0.28,3.01h0.09c1.18-2.15,2.95-3.43,4.74-3.43c0.82,0,1.36,0.12,1.88,0.36l-0.64,3.04
					c-0.58-0.18-1-0.27-1.67-0.27c-1.37,0-3.01,0.94-4.07,3.58v10.42h-3.46V95.57z"/>
				<path class="st342" d="M382.38,115.37c0-1.4,0.88-2.7,2.43-3.64v-0.15c-0.85-0.52-1.52-1.4-1.52-2.77c0-1.31,0.94-2.43,1.85-3.1
					v-0.12c-1.12-0.88-2.19-2.46-2.19-4.43c0-3.8,3.01-6.01,6.47-6.01c0.94,0,1.79,0.18,2.43,0.42h5.92v2.61h-3.19
					c0.64,0.67,1.09,1.79,1.09,3.07c0,3.64-2.77,5.74-6.26,5.74c-0.76,0-1.61-0.18-2.34-0.52c-0.55,0.49-0.91,0.97-0.91,1.76
					c0,1,0.67,1.64,2.8,1.64h3.07c3.95,0,6.01,1.22,6.01,4.07c0,3.22-3.4,5.83-8.75,5.83C385.29,119.77,382.38,118.28,382.38,115.37
					z M394.68,114.49c0-1.4-1.09-1.82-3.13-1.82h-2.52c-0.79,0-1.55-0.09-2.25-0.24c-1,0.73-1.43,1.58-1.43,2.43
					c0,1.64,1.7,2.61,4.46,2.61C392.73,117.46,394.68,116.03,394.68,114.49z M392.58,101.15c0-2.25-1.4-3.55-3.16-3.55
					c-1.76,0-3.16,1.28-3.16,3.55c0,2.22,1.43,3.58,3.16,3.58C391.15,104.74,392.58,103.37,392.58,101.15z"/>
				<path class="st342" d="M399.61,107.84c0-3.58,3.04-5.44,9.99-6.2c-0.03-1.94-0.73-3.64-3.19-3.64c-1.76,0-3.4,0.79-4.83,1.7
					l-1.31-2.37c1.73-1.09,4.07-2.19,6.74-2.19c4.16,0,6.07,2.64,6.07,7.07v10.05h-2.85l-0.3-1.91h-0.09
					c-1.52,1.31-3.31,2.31-5.31,2.31C401.64,112.66,399.61,110.78,399.61,107.84z M409.6,107.96v-4.1
					c-4.95,0.61-6.62,1.85-6.62,3.74c0,1.64,1.12,2.31,2.61,2.31C407.04,109.9,408.23,109.2,409.6,107.96z"/>
				<path class="st342" d="M418.05,95.57h2.85l0.28,2.31h0.09c1.55-1.49,3.25-2.73,5.53-2.73c3.55,0,5.13,2.37,5.13,6.62v10.51
					h-3.49v-10.08c0-2.88-0.85-4.04-2.82-4.04c-1.55,0-2.61,0.79-4.1,2.28v11.84h-3.46V95.57z"/>
				<path class="st342" d="M436.52,90.37c0-1.25,0.94-2.07,2.22-2.07c1.28,0,2.25,0.82,2.25,2.07c0,1.21-0.97,2.07-2.25,2.07
					C437.46,92.44,436.52,91.59,436.52,90.37z M437.01,95.57h3.46v16.7h-3.46V95.57z"/>
				<path class="st342" d="M444.21,110.38l8.23-12.02h-7.32v-2.8h11.72v1.85l-8.23,12.06h8.5v2.8h-12.9V110.38z"/>
				<path class="st342" d="M459.1,103.95c0-5.44,3.71-8.81,7.62-8.81c4.43,0,6.8,3.19,6.8,7.93c0,0.67-0.06,1.37-0.15,1.76h-10.84
					c0.27,3.19,2.28,5.1,5.16,5.1c1.49,0,2.76-0.46,3.98-1.25l1.22,2.22c-1.55,1.03-3.46,1.76-5.65,1.76
					C462.72,112.66,459.1,109.44,459.1,103.95z M470.52,102.43c0-2.88-1.31-4.55-3.73-4.55c-2.1,0-3.95,1.61-4.28,4.55H470.52z"/>
				<path class="st342" d="M476.33,103.95c0-5.44,3.43-8.81,7.17-8.81c1.91,0,3.13,0.73,4.5,1.88l-0.15-2.76v-6.2h3.49v24.2h-2.86
					l-0.3-1.88h-0.09c-1.24,1.28-2.98,2.28-4.86,2.28C479.03,112.66,476.33,109.47,476.33,103.95z M487.84,107.74v-8.17
					c-1.25-1.12-2.43-1.52-3.68-1.52c-2.34,0-4.22,2.22-4.22,5.83c0,3.8,1.49,5.89,4.1,5.89
					C485.44,109.78,486.62,109.14,487.84,107.74z"/>
				<path class="st342" d="M501.61,95.57h3.53l2.22,9.05c0.33,1.61,0.61,3.16,0.91,4.74h0.12c0.36-1.58,0.7-3.16,1.09-4.74
					l2.34-9.05h3.25l2.4,9.05c0.39,1.61,0.73,3.16,1.12,4.74h0.12c0.34-1.58,0.61-3.13,0.97-4.74l2.15-9.05h3.28l-4.31,16.7h-4.19
					l-2.12-8.26c-0.39-1.58-0.7-3.1-1.06-4.83h-0.15c-0.33,1.73-0.64,3.28-1.06,4.86l-2.04,8.23h-4.04L501.61,95.57z"/>
				<path class="st342" d="M527.22,103.95c0-5.59,3.74-8.81,7.87-8.81c4.13,0,7.87,3.22,7.87,8.81c0,5.53-3.74,8.71-7.87,8.71
					C530.96,112.66,527.22,109.47,527.22,103.95z M539.37,103.95c0-3.55-1.64-5.92-4.28-5.92c-2.61,0-4.25,2.37-4.25,5.92
					c0,3.52,1.64,5.86,4.25,5.86C537.73,109.81,539.37,107.47,539.37,103.95z"/>
				<path class="st342" d="M547.06,95.57h2.85l0.28,3.01h0.09c1.18-2.15,2.95-3.43,4.74-3.43c0.82,0,1.36,0.12,1.88,0.36l-0.64,3.04
					c-0.58-0.18-1-0.27-1.67-0.27c-1.37,0-3.01,0.94-4.07,3.58v10.42h-3.46V95.57z"/>
				<path class="st342" d="M559.49,88.06h3.4v15.61h0.09l6.56-8.11h3.86l-5.68,6.77l6.32,9.93h-3.8l-4.53-7.56l-2.82,3.25v4.31h-3.4
					V88.06z"/>
				<path class="st342" d="M575.2,110.35l1.64-2.25c1.49,1.18,2.95,1.91,4.74,1.91c2,0,2.95-0.97,2.95-2.25
					c0-1.52-1.88-2.19-3.71-2.88c-2.22-0.85-4.77-2.04-4.77-4.86c0-2.8,2.25-4.89,5.92-4.89c2.25,0,4.07,0.91,5.44,1.97l-1.64,2.16
					c-1.15-0.85-2.34-1.46-3.73-1.46c-1.82,0-2.67,0.91-2.67,2.07c0,1.43,1.73,1.98,3.55,2.64c2.34,0.88,4.92,1.91,4.92,5.07
					c0,2.79-2.22,5.07-6.35,5.07C579.18,112.66,576.81,111.69,575.2,110.35z"/>
				<path class="st342" d="M591.54,88.06h3.46v6.41l-0.12,3.31c1.46-1.4,3.13-2.64,5.41-2.64c3.55,0,5.13,2.37,5.13,6.62v10.51
					h-3.49v-10.08c0-2.88-0.85-4.04-2.82-4.04c-1.55,0-2.61,0.79-4.1,2.28v11.84h-3.46V88.06z"/>
				<path class="st342" d="M609.23,103.95c0-5.59,3.74-8.81,7.87-8.81c4.13,0,7.87,3.22,7.87,8.81c0,5.53-3.74,8.71-7.87,8.71
					C612.97,112.66,609.23,109.47,609.23,103.95z M621.38,103.95c0-3.55-1.64-5.92-4.28-5.92c-2.61,0-4.25,2.37-4.25,5.92
					c0,3.52,1.64,5.86,4.25,5.86C619.74,109.81,621.38,107.47,621.38,103.95z"/>
				<path class="st342" d="M629.07,95.57h2.85l0.28,1.82h0.09c1.46-1.21,3.28-2.25,5.13-2.25c4.25,0,6.62,3.37,6.62,8.5
					c0,5.74-3.43,9.02-7.2,9.02c-1.49,0-2.98-0.67-4.4-1.88l0.09,2.85v5.4h-3.46V95.57z M640.43,103.71c0-3.49-1.12-5.65-3.92-5.65
					c-1.31,0-2.55,0.67-3.98,2.04v8.17c1.31,1.12,2.61,1.52,3.64,1.52C638.61,109.78,640.43,107.62,640.43,103.71z"/>
				<path class="st342" d="M157.35,140.41c0-5.59,3.74-8.81,7.87-8.81s7.86,3.22,7.86,8.81c0,5.53-3.73,8.71-7.86,8.71
					S157.35,145.94,157.35,140.41z M169.5,140.41c0-3.55-1.64-5.92-4.28-5.92c-2.61,0-4.25,2.37-4.25,5.92
					c0,3.52,1.64,5.86,4.25,5.86C167.86,146.27,169.5,143.93,169.5,140.41z"/>
				<path class="st342" d="M177.19,132.03h2.85l0.27,2.31h0.09c1.55-1.49,3.25-2.73,5.53-2.73c3.55,0,5.13,2.37,5.13,6.62v10.51
					h-3.49v-10.08c0-2.88-0.85-4.04-2.82-4.04c-1.55,0-2.61,0.79-4.1,2.28v11.84h-3.46V132.03z"/>
				<path class="st342" d="M202.98,124.53h3.46v6.41l-0.12,3.31c1.46-1.4,3.13-2.64,5.41-2.64c3.55,0,5.13,2.37,5.13,6.62v10.51
					h-3.49v-10.08c0-2.88-0.85-4.04-2.82-4.04c-1.55,0-2.61,0.79-4.1,2.28v11.84h-3.46V124.53z"/>
				<path class="st342" d="M221.64,142.53v-10.51h3.49v10.08c0,2.88,0.82,4.01,2.79,4.01c1.55,0,2.61-0.73,4.01-2.49v-11.6h3.49
					v16.7h-2.85l-0.27-2.52h-0.09c-1.52,1.76-3.16,2.91-5.47,2.91C223.19,149.13,221.64,146.79,221.64,142.53z"/>
				<path class="st342" d="M240.69,132.03h2.85l0.28,2.34h0.09c1.43-1.52,3.1-2.76,5.16-2.76c2.49,0,3.89,1.15,4.62,3.07
					c1.64-1.76,3.34-3.07,5.44-3.07c3.49,0,5.13,2.37,5.13,6.62v10.51h-3.49v-10.08c0-2.88-0.91-4.04-2.79-4.04
					c-1.15,0-2.37,0.76-3.77,2.28v11.84h-3.49v-10.08c0-2.88-0.88-4.04-2.8-4.04c-1.12,0-2.37,0.76-3.77,2.28v11.84h-3.46V132.03z"
					/>
				<path class="st342" d="M268.34,144.3c0-3.58,3.04-5.44,9.99-6.2c-0.03-1.94-0.73-3.64-3.19-3.64c-1.76,0-3.4,0.79-4.83,1.7
					l-1.31-2.37c1.73-1.09,4.07-2.19,6.74-2.19c4.16,0,6.07,2.64,6.07,7.07v10.05h-2.85l-0.3-1.91h-0.09
					c-1.52,1.31-3.31,2.31-5.31,2.31C270.38,149.13,268.34,147.24,268.34,144.3z M278.34,144.42v-4.1
					c-4.95,0.61-6.62,1.85-6.62,3.74c0,1.64,1.12,2.31,2.61,2.31C275.78,146.36,276.97,145.66,278.34,144.42z"/>
				<path class="st342" d="M286.79,132.03h2.85l0.28,2.31h0.09c1.55-1.49,3.25-2.73,5.53-2.73c3.55,0,5.13,2.37,5.13,6.62v10.51
					h-3.49v-10.08c0-2.88-0.85-4.04-2.82-4.04c-1.55,0-2.61,0.79-4.1,2.28v11.84h-3.46V132.03z"/>
				<path class="st342" d="M304.53,138.86h8.02v2.58h-8.02V138.86z"/>
				<path class="st342" d="M315.41,140.41c0-5.59,3.86-8.81,8.26-8.81c2.12,0,3.67,0.85,4.89,1.91l-1.73,2.28
					c-0.91-0.82-1.85-1.31-3.01-1.31c-2.79,0-4.8,2.37-4.8,5.92c0,3.52,1.91,5.86,4.71,5.86c1.4,0,2.64-0.67,3.65-1.52l1.43,2.31
					c-1.52,1.37-3.49,2.07-5.41,2.07C318.87,149.13,315.41,145.94,315.41,140.41z"/>
				<path class="st342" d="M330.33,140.41c0-5.59,3.74-8.81,7.87-8.81s7.87,3.22,7.87,8.81c0,5.53-3.74,8.71-7.87,8.71
					S330.33,145.94,330.33,140.41z M342.48,140.41c0-3.55-1.64-5.92-4.28-5.92c-2.61,0-4.25,2.37-4.25,5.92
					c0,3.52,1.64,5.86,4.25,5.86C340.84,146.27,342.48,143.93,342.48,140.41z"/>
				<path class="st342" d="M350.17,132.03h2.85l0.28,2.34h0.09c1.43-1.52,3.1-2.76,5.16-2.76c2.49,0,3.89,1.15,4.62,3.07
					c1.64-1.76,3.34-3.07,5.44-3.07c3.49,0,5.13,2.37,5.13,6.62v10.51h-3.49v-10.08c0-2.88-0.91-4.04-2.79-4.04
					c-1.15,0-2.37,0.76-3.77,2.28v11.84h-3.49v-10.08c0-2.88-0.88-4.04-2.8-4.04c-1.12,0-2.37,0.76-3.77,2.28v11.84h-3.46V132.03z"
					/>
				<path class="st342" d="M378.79,132.03h2.85l0.28,1.82h0.09c1.46-1.21,3.28-2.25,5.13-2.25c4.25,0,6.62,3.37,6.62,8.5
					c0,5.74-3.43,9.02-7.2,9.02c-1.49,0-2.98-0.67-4.4-1.88l0.09,2.85v5.4h-3.46V132.03z M390.15,140.17c0-3.49-1.12-5.65-3.92-5.65
					c-1.31,0-2.55,0.67-3.98,2.04v8.17c1.31,1.12,2.61,1.52,3.64,1.52C388.33,146.24,390.15,144.08,390.15,140.17z"/>
				<path class="st342" d="M397.72,142.53v-10.51h3.49v10.08c0,2.88,0.82,4.01,2.79,4.01c1.55,0,2.61-0.73,4.01-2.49v-11.6h3.49
					v16.7h-2.85l-0.27-2.52h-0.09c-1.52,1.76-3.16,2.91-5.47,2.91C399.27,149.13,397.72,146.79,397.72,142.53z"/>
				<path class="st342" d="M417.32,143.26v-8.44h-2.43v-2.61l2.58-0.18l0.39-4.62h2.95v4.62h4.34v2.8h-4.34v8.47
					c0,2.01,0.7,3.04,2.43,3.04c0.58,0,1.31-0.18,1.79-0.39l0.64,2.58c-0.94,0.31-2.07,0.61-3.28,0.61
					C418.63,149.13,417.32,146.79,417.32,143.26z"/>
				<path class="st342" d="M427.11,140.41c0-5.44,3.71-8.81,7.62-8.81c4.43,0,6.8,3.19,6.8,7.93c0,0.67-0.06,1.37-0.15,1.76h-10.84
					c0.27,3.19,2.28,5.1,5.16,5.1c1.49,0,2.76-0.46,3.98-1.25l1.22,2.22c-1.55,1.03-3.46,1.76-5.65,1.76
					C430.72,149.13,427.11,145.91,427.11,140.41z M438.52,138.89c0-2.88-1.31-4.55-3.73-4.55c-2.1,0-3.95,1.61-4.28,4.55H438.52z"/>
				<path class="st342" d="M445.46,132.03h2.85l0.28,3.01h0.09c1.18-2.15,2.95-3.43,4.74-3.43c0.82,0,1.36,0.12,1.88,0.36
					l-0.64,3.04c-0.58-0.18-1-0.27-1.67-0.27c-1.37,0-3.01,0.94-4.07,3.58v10.42h-3.46V132.03z"/>
				<path class="st342" d="M464.24,126.84c0-1.25,0.94-2.07,2.22-2.07c1.28,0,2.25,0.82,2.25,2.07c0,1.21-0.97,2.07-2.25,2.07
					C465.18,128.9,464.24,128.05,464.24,126.84z M464.72,132.03h3.46v16.7h-3.46V132.03z"/>
				<path class="st342" d="M473.44,132.03h2.85l0.28,2.31h0.09c1.55-1.49,3.25-2.73,5.53-2.73c3.55,0,5.13,2.37,5.13,6.62v10.51
					h-3.49v-10.08c0-2.88-0.85-4.04-2.82-4.04c-1.55,0-2.61,0.79-4.1,2.28v11.84h-3.46V132.03z"/>
				<path class="st342" d="M492.95,143.26v-8.44h-2.43v-2.61l2.58-0.18l0.39-4.62h2.95v4.62h4.34v2.8h-4.34v8.47
					c0,2.01,0.7,3.04,2.43,3.04c0.58,0,1.31-0.18,1.79-0.39l0.64,2.58c-0.94,0.31-2.07,0.61-3.28,0.61
					C494.26,149.13,492.95,146.79,492.95,143.26z"/>
				<path class="st342" d="M502.73,140.41c0-5.44,3.71-8.81,7.62-8.81c4.43,0,6.8,3.19,6.8,7.93c0,0.67-0.06,1.37-0.15,1.76h-10.84
					c0.27,3.19,2.28,5.1,5.16,5.1c1.49,0,2.76-0.46,3.98-1.25l1.22,2.22c-1.55,1.03-3.46,1.76-5.65,1.76
					C506.35,149.13,502.73,145.91,502.73,140.41z M514.15,138.89c0-2.88-1.31-4.55-3.73-4.55c-2.1,0-3.95,1.61-4.28,4.55H514.15z"/>
				<path class="st342" d="M521.08,132.03h2.85l0.28,3.01h0.09c1.18-2.15,2.95-3.43,4.74-3.43c0.82,0,1.36,0.12,1.88,0.36
					l-0.64,3.04c-0.58-0.18-1-0.27-1.67-0.27c-1.37,0-3.01,0.94-4.07,3.58v10.42h-3.46V132.03z"/>
				<path class="st342" d="M531.69,144.3c0-3.58,3.04-5.44,9.99-6.2c-0.03-1.94-0.73-3.64-3.19-3.64c-1.76,0-3.4,0.79-4.83,1.7
					l-1.31-2.37c1.73-1.09,4.07-2.19,6.74-2.19c4.16,0,6.07,2.64,6.07,7.07v10.05h-2.85l-0.3-1.91h-0.09
					c-1.52,1.31-3.31,2.31-5.31,2.31C533.72,149.13,531.69,147.24,531.69,144.3z M541.68,144.42v-4.1
					c-4.95,0.61-6.62,1.85-6.62,3.74c0,1.64,1.12,2.31,2.61,2.31C539.13,146.36,540.31,145.66,541.68,144.42z"/>
				<path class="st342" d="M548.95,140.41c0-5.59,3.86-8.81,8.26-8.81c2.12,0,3.67,0.85,4.89,1.91l-1.73,2.28
					c-0.91-0.82-1.85-1.31-3.01-1.31c-2.79,0-4.8,2.37-4.8,5.92c0,3.52,1.91,5.86,4.71,5.86c1.4,0,2.64-0.67,3.65-1.52l1.43,2.31
					c-1.52,1.37-3.49,2.07-5.41,2.07C552.41,149.13,548.95,145.94,548.95,140.41z"/>
				<path class="st342" d="M566.06,143.26v-8.44h-2.43v-2.61l2.58-0.18l0.39-4.62h2.95v4.62h4.34v2.8h-4.34v8.47
					c0,2.01,0.7,3.04,2.43,3.04c0.58,0,1.31-0.18,1.79-0.39l0.64,2.58c-0.94,0.31-2.07,0.61-3.28,0.61
					C567.36,149.13,566.06,146.79,566.06,143.26z"/>
				<path class="st342" d="M577.06,126.84c0-1.25,0.94-2.07,2.22-2.07s2.25,0.82,2.25,2.07c0,1.21-0.97,2.07-2.25,2.07
					S577.06,128.05,577.06,126.84z M577.54,132.03H581v16.7h-3.46V132.03z"/>
				<path class="st342" d="M585.08,140.41c0-5.59,3.74-8.81,7.87-8.81c4.13,0,7.87,3.22,7.87,8.81c0,5.53-3.74,8.71-7.87,8.71
					C588.81,149.13,585.08,145.94,585.08,140.41z M597.22,140.41c0-3.55-1.64-5.92-4.28-5.92c-2.61,0-4.25,2.37-4.25,5.92
					c0,3.52,1.64,5.86,4.25,5.86C595.58,146.27,597.22,143.93,597.22,140.41z"/>
				<path class="st342" d="M604.91,132.03h2.85l0.28,2.31h0.09c1.55-1.49,3.25-2.73,5.53-2.73c3.55,0,5.13,2.37,5.13,6.62v10.51
					h-3.49v-10.08c0-2.88-0.85-4.04-2.82-4.04c-1.55,0-2.61,0.79-4.1,2.28v11.84h-3.46V132.03z"/>
			</g>
		</g>
		<g>
			<path class="st342" d="M188.88,39.68h-5.91c0.89,0.72,1.81,1.54,2.36,2.15l-2.46,2.15h2.8v8.64h-10.83v2.02h12.5
				c0,0-0.03,0.99-0.1,1.47c-0.34,4.54-0.75,6.76-1.64,7.65c-0.72,0.82-1.54,1.09-2.6,1.19c-0.96,0.1-2.56,0.14-4.34,0.07
				c-0.07-1.2-0.48-2.7-1.13-3.69c1.44,0.14,2.87,0.17,3.49,0.14c0.51,0,0.85-0.03,1.16-0.31c0.34-0.34,0.61-1.26,0.82-3.14h-8.16
				v8.44h-4v-6.66c-2.87,2.8-6.66,5.12-10.38,6.53c-0.58-0.99-1.71-2.46-2.56-3.21c3.55-1.06,7.24-2.94,9.91-5.09h-7.34
				c0.51-2.33,1.02-5.88,1.26-8.75h9.12v-1.95h-10.38v-3.35h6.97c-0.75-0.96-2.08-2.22-3.14-3.14l1.3-1.13h-2.02
				c-1.09,1.71-2.32,3.25-3.48,4.41c-0.58-0.68-1.95-2.12-2.73-2.73c2.02-1.77,3.89-4.47,4.95-7.17l3.59,1.03
				c-0.17,0.45-0.38,0.92-0.61,1.37h7.52v3.11h-4.88c0.92,0.79,1.81,1.64,2.32,2.26l-2.19,2.02h14.42
				c-0.75-0.92-2.22-2.15-3.31-3.04l1.47-1.26h-2.8c-0.82,1.3-1.74,2.43-2.66,3.32c-0.68-0.68-2.15-1.85-3.04-2.36
				c1.88-1.61,3.42-4,4.27-6.42l3.69,0.92c-0.17,0.48-0.38,0.99-0.58,1.47h9.4V39.68z M170.84,52.63h-5.57
				c-0.1,0.68-0.17,1.37-0.27,2.02h5.84V52.63z M181.64,47.34h-6.8v1.95h6.8V47.34z"/>
			<path class="st342" d="M226.41,51.03h-13.36v15.4h-4.44v-15.4h-13.15v-4.24h13.15V34.56h4.44v12.23h13.36V51.03z"/>
			<path class="st342" d="M261.96,46.14h-22c0,5.91-0.58,14.79-4.17,20.43c-0.79-0.65-2.6-1.74-3.62-2.12
				c3.42-5.23,3.66-12.88,3.66-18.31V36.1h26.13V46.14z M257.86,39.75h-17.9v2.7h17.9V39.75z M262.57,48.84v17.63h-3.86v-1.23
				h-17.73v-16.4h3.89v12.85h13.84V48.84H262.57z M250,56.6v-3.35h-3.38v-3.28H250v-3.01h3.69v3.01h3.42v3.28h-3.42v3.35h4.07v3.28
				h-11.89V56.6H250z"/>
			<path class="st342" d="M288.01,34.56c-0.03,1.44-0.1,3.28-0.24,5.33c0.48,4.61,2.56,17.49,14.48,22.75
				c-1.26,0.99-2.42,2.36-2.97,3.52c-7.58-3.62-11.38-10.28-13.36-16.16c-1.88,6.01-5.47,12.2-12.57,16.36
				c-0.72-1.09-2.02-2.39-3.38-3.32c13.87-7.41,13.22-22.72,13.36-28.49H288.01z"/>
			<path class="st342" d="M315.94,53.86c-0.28-0.82-0.82-2.08-1.4-3.31v15.88h-3.49V53.25c-0.68,2.39-1.47,4.55-2.32,6.11
				c-0.31-1.16-1.06-2.97-1.57-4.03c1.57-2.43,2.94-6.83,3.69-10.69h-2.8v-3.76h3v-6.35h3.49v6.35h2.29v3.76h-2.29v1.5
				c0.75,1.06,2.7,4.2,3.14,5.02L315.94,53.86z M337.57,56.22c-0.99,1.88-2.26,3.55-3.76,5.02c0.65,0.72,1.33,1.13,2.12,1.23
				c0.65,0.07,1.06-1.16,1.3-3.55c0.58,0.79,1.91,1.78,2.56,2.15c-0.89,4.24-2.26,5.43-3.72,5.33c-2.01-0.17-3.69-1.2-5.02-2.9
				c-1.61,1.13-3.45,2.08-5.4,2.84c-0.44-0.72-1.4-1.95-2.08-2.6c2.19-0.75,4.17-1.81,5.88-3.07c-0.72-1.57-1.27-3.38-1.74-5.47
				h-4.65c-0.03,0.24-0.03,0.51-0.07,0.75c1.4,1.13,3.35,2.7,4.34,3.69l-2.46,2.39c-0.58-0.68-1.57-1.57-2.56-2.46
				c-0.79,2.43-2.19,4.88-4.65,6.83c-0.51-0.65-1.95-1.91-2.7-2.32c3.62-2.66,4.55-6.15,4.65-8.88h-2.02v-3.11h9.53
				c-0.58-3.48-0.92-7.52-1.16-11.96c-1.33,2.53-3.01,5.09-4.65,7.1l1.91-0.21c-0.17-0.51-0.31-1.06-0.45-1.54l2.36-0.61
				c0.55,1.61,1.13,3.66,1.37,4.92l-2.53,0.75c-0.04-0.31-0.1-0.72-0.21-1.16c-4.1,0.61-4.88,0.85-5.36,1.06
				c-0.17-0.55-0.61-2.02-0.96-2.77c0.58-0.14,1.13-0.68,1.71-1.5c0.31-0.38,0.92-1.3,1.64-2.5c-1.81,0.24-2.39,0.41-2.73,0.58
				c-0.17-0.61-0.65-1.98-0.96-2.73c0.45-0.14,0.85-0.55,1.23-1.23c0.38-0.62,1.64-3.08,2.29-5.47l2.9,0.75
				c-0.78,1.98-1.88,4.07-2.94,5.71l1.54-0.14c0.34-0.68,0.68-1.4,0.95-2.12l2.84,0.96c-0.07-1.64-0.14-3.42-0.21-5.19h3.35
				c0.14,6.7,0.58,12.64,1.43,17.29h3.14c-0.58-0.51-1.23-1.02-1.77-1.47l1.54-1.26c-1.61,0.27-2.12,0.45-2.43,0.61
				c-0.14-0.58-0.61-2.05-0.92-2.8c0.55-0.17,1.06-0.72,1.67-1.57c0.31-0.34,0.92-1.27,1.57-2.43c-1.78,0.24-2.33,0.41-2.66,0.58
				c-0.21-0.62-0.65-1.95-0.99-2.73c0.45-0.1,0.82-0.55,1.2-1.16c0.34-0.58,1.47-2.9,2.05-5.16l2.9,0.79
				c-0.68,1.84-1.67,3.72-2.66,5.26l1.54-0.1c0.31-0.68,0.61-1.44,0.89-2.12l2.94,0.96c-1.26,2.56-2.94,5.2-4.54,7.24l1.88-0.21
				c-0.17-0.48-0.31-0.99-0.48-1.44l2.33-0.65c0.58,1.6,1.3,3.72,1.57,4.95l-2.43,0.85c-0.07-0.41-0.17-0.89-0.31-1.4
				c-0.85,0.14-1.57,0.24-2.15,0.34c0.92,0.68,2.02,1.5,2.6,2.09l-0.89,0.82h2.73v3.11h-3.96L337.57,56.22z M331.15,55.19
				c0.27,1.13,0.58,2.08,0.92,2.97c0.79-0.92,1.47-1.91,2.02-2.97H331.15z"/>
			<path class="st342" d="M376.84,61.62v3.96h-31.05v-3.96h18.86c0.21-1.4,0.45-2.87,0.68-4.41h-15.17
				c1.3-4.58,2.94-11.68,3.93-17.42h-7.28v-3.89h29v3.89h-17.29c-0.31,1.47-0.58,2.94-0.85,4.48h9.8l0.68-0.17l3.11,0.38
				c-0.51,4.92-1.5,11.54-2.39,17.15H376.84z M365.91,53.42c0.28-1.88,0.51-3.76,0.72-5.37h-9.77c-0.41,1.88-0.82,3.72-1.2,5.37
				H365.91z"/>
			<path class="st342" d="M414.03,42.21c0,0-0.03,1.33-0.03,1.81c-0.31,13.97-0.58,18.93-1.67,20.5c-0.78,1.13-1.57,1.47-2.7,1.71
				c-1.03,0.2-2.6,0.17-4.24,0.14c-0.07-1.13-0.51-2.77-1.2-3.89c1.5,0.14,2.8,0.17,3.45,0.17c0.51,0,0.86-0.14,1.16-0.58
				c0.72-0.92,1.06-5.09,1.26-16.12h-3.07c-0.45,9.15-2.01,16.19-7.76,20.73c-0.51-0.82-1.5-1.95-2.39-2.7
				c-4.92,0.51-9.84,1.03-13.53,1.33l-0.48-3.42c1.91-0.14,4.31-0.31,6.93-0.48v-2.05h-6.01v-2.87h6.01v-1.33h-5.87V44.6h5.87v-1.33
				h-6.73v-2.94h6.73v-1.37c-1.98,0.14-3.93,0.24-5.77,0.27c-0.14-0.82-0.51-2.08-0.89-2.87c5.05-0.28,10.97-0.85,14.72-1.67
				l1.77,3.04c-1.81,0.38-3.93,0.68-6.15,0.92v1.67h6.56v1.88h3.21c0.03-2.26,0.03-4.61,0.03-7.14h3.9c0,2.5,0,4.88-0.07,7.14
				H414.03z M387.11,48.67h2.66v-1.5h-2.66V48.67z M389.78,52.63v-1.54h-2.66v1.54H389.78z M393.47,61.1
				c1.95-0.13,3.96-0.31,5.94-0.48c2.66-3.69,3.48-8.57,3.72-14.69h-3.11v-2.66h-6.56v1.33h6.05v10.56h-6.05v1.33h6.18v2.87h-6.18
				V61.1z M396.13,48.67v-1.5h-2.66v1.5H396.13z M393.47,51.09v1.54h2.66v-1.54H393.47z"/>
			<path class="st342" d="M452.01,59.98v4.1h-31.05v-4.1h13.02V42.31H422.8v-4.24h27.29v4.24h-11.48v17.66H452.01z"/>
			<path class="st342" d="M469.49,35.89c-0.89,2.39-2.02,4.82-3.28,7.11v23.4h-4.1V49.32c-0.72,0.85-1.44,1.71-2.12,2.46
				c-0.38-0.99-1.54-3.32-2.25-4.34c3.11-3.07,6.08-7.93,7.79-12.78L469.49,35.89z M480.31,43.96v3.59h8.85v3.69h-8.85v3.86h9.29
				v3.76h-9.29v7.58h-4.17V43.96h-1.3c-1.37,2.53-2.94,4.85-4.48,6.63c-0.65-0.75-2.26-2.19-3.11-2.84
				c3.01-3.07,5.71-7.99,7.24-12.88l3.93,0.99c-0.48,1.43-1.02,2.83-1.67,4.24h13.26v3.86H480.31z"/>
			<path class="st342" d="M516.14,44.13v4.13h9.77c0,0-0.03,1.19-0.07,1.71c-0.41,9.39-0.82,13.19-1.95,14.48
				c-0.79,1.06-1.64,1.4-2.9,1.54c-1.02,0.17-2.87,0.17-4.68,0.1c-0.07-1.2-0.61-2.87-1.33-4c1.74,0.14,3.35,0.17,4.1,0.17
				c0.61,0,0.96-0.1,1.3-0.48c0.65-0.68,1.02-3.35,1.3-9.77h-5.71c-0.58,4.95-2.6,10.42-8.98,14.41c-0.72-0.89-2.05-2.08-3.11-2.8
				c7.24-4.61,8.2-10.66,8.2-15.17v-4.34h-4.95v2.43h-3.28v8.03c1.2-0.41,2.36-0.85,3.52-1.23l0.78,3.76
				c-4.03,1.61-8.33,3.21-11.75,4.51l-0.92-4.27c1.23-0.34,2.73-0.82,4.41-1.4v-9.39h-3.76v-3.82h3.76v-7.55h3.96v7.55h3.18v-2.5
				h9.12c-0.27-1.37-0.92-3.52-1.47-5.13l3.82-0.92c0.62,1.61,1.37,3.79,1.71,5.09l-3.52,0.96h10.79v3.89H516.14z"/>
		</g>
	</g>
</g>
</svg>
