<svg id="圖層_1" data-name="圖層 1" xmlns="http://www.w3.org/2000/svg" xmlns:xlink="http://www.w3.org/1999/xlink" viewBox="0 0 883 621">
  <defs>
    <style>
      .cls-1 {
        isolation: isolate;
      }

      .cls-2 {
        opacity: 0.8;
      }

      .cls-3 {
        fill: url(#未命名漸層);
      }

      .cls-4 {
        fill: url(#未命名漸層_8);
      }

      .cls-5 {
        fill: url(#未命名漸層_9);
      }

      .cls-6 {
        fill: url(#未命名漸層_10);
      }

      .cls-7 {
        fill: url(#未命名漸層_11);
      }

      .cls-8 {
        fill: none;
      }

      .cls-9 {
        fill: #e73632;
      }

      .cls-10 {
        fill: url(#未命名漸層_15);
      }

      .cls-11 {
        fill: url(#未命名漸層_20);
      }

      .cls-12 {
        fill: url(#未命名漸層_21);
      }

      .cls-13 {
        fill: url(#未命名漸層_22);
      }

      .cls-14 {
        fill: url(#未命名漸層_23);
      }

      .cls-15 {
        fill: url(#未命名漸層_24);
      }

      .cls-16 {
        fill: url(#未命名漸層_25);
      }

      .cls-17 {
        fill: url(#未命名漸層_26);
      }

      .cls-18 {
        fill: url(#未命名漸層_27);
      }

      .cls-19 {
        fill: url(#未命名漸層_28);
      }

      .cls-20 {
        fill: url(#未命名漸層_29);
      }

      .cls-21 {
        fill: url(#未命名漸層_30);
      }

      .cls-22 {
        fill: url(#未命名漸層_31);
      }

      .cls-23 {
        fill: #68b0e1;
      }

      .cls-24 {
        fill: #cf3076;
      }
    </style>
    <radialGradient id="未命名漸層" cx="1371.82" cy="-392.06" r="86.97" gradientTransform="matrix(0, -1, -1, 0, -49.26, 1846.15)" gradientUnits="userSpaceOnUse">
      <stop offset="0" stop-color="#21abda"/>
      <stop offset="1" stop-color="#e52676"/>
    </radialGradient>
    <radialGradient id="未命名漸層_8" data-name="未命名漸層 8" cx="1638.04" cy="-461.19" r="45.3" gradientTransform="matrix(1, 0, 0, -1, 0, 621)" xlink:href="#未命名漸層"/>
    <radialGradient id="未命名漸層_9" data-name="未命名漸層 9" cx="1508.92" cy="-237.59" r="104.9" gradientTransform="matrix(1, 0, 0, -1, 0, 621)" xlink:href="#未命名漸層"/>
    <radialGradient id="未命名漸層_10" data-name="未命名漸層 10" cx="1659.43" cy="-347.09" r="99.55" gradientTransform="matrix(1, 0, 0, -1, 0, 621)" xlink:href="#未命名漸層"/>
    <radialGradient id="未命名漸層_11" data-name="未命名漸層 11" cx="1396.07" cy="-218.51" r="76.11" gradientTransform="matrix(1, 0, 0, -1, 0, 621)" xlink:href="#未命名漸層"/>
    <linearGradient id="未命名漸層_15" data-name="未命名漸層 15" x1="1522.51" y1="-391.02" x2="1523.04" y2="-519.51" gradientTransform="matrix(0, -1, -1, 0, -49.26, 1846.15)" gradientUnits="userSpaceOnUse">
      <stop offset="0" stop-color="#21abda"/>
      <stop offset="0.11" stop-color="#24a9d8"/>
      <stop offset="0.19" stop-color="#2ea2d3"/>
      <stop offset="0.27" stop-color="#4096ca"/>
      <stop offset="0.35" stop-color="#5886be"/>
      <stop offset="0.42" stop-color="#7771ae"/>
      <stop offset="0.49" stop-color="#9d579b"/>
      <stop offset="0.56" stop-color="#ca3884"/>
      <stop offset="0.6" stop-color="#e52676"/>
    </linearGradient>
    <linearGradient id="未命名漸層_20" data-name="未命名漸層 20" x1="1710.78" y1="-383.47" x2="1721.36" y2="-650.45" gradientTransform="matrix(0, -1, -1, 0, -49.26, 1846.15)" xlink:href="#未命名漸層"/>
    <linearGradient id="未命名漸層_21" data-name="未命名漸層 21" x1="1747.48" y1="-382.01" x2="1758.06" y2="-649" gradientTransform="matrix(0, -1, -1, 0, -49.26, 1846.15)" xlink:href="#未命名漸層"/>
    <linearGradient id="未命名漸層_22" data-name="未命名漸層 22" x1="1761.48" y1="-381.46" x2="1772.06" y2="-648.44" gradientTransform="matrix(0, -1, -1, 0, -49.26, 1846.15)" xlink:href="#未命名漸層"/>
    <linearGradient id="未命名漸層_23" data-name="未命名漸層 23" x1="1267.33" y1="-401.04" x2="1277.92" y2="-668.03" gradientTransform="matrix(0, -1, -1, 0, -49.26, 1846.15)" xlink:href="#未命名漸層"/>
    <linearGradient id="未命名漸層_24" data-name="未命名漸層 24" x1="1326.51" y1="-398.7" x2="1337.09" y2="-665.68" gradientTransform="matrix(0, -1, -1, 0, -49.26, 1846.15)" xlink:href="#未命名漸層"/>
    <linearGradient id="未命名漸層_25" data-name="未命名漸層 25" x1="1320.05" y1="-398.95" x2="1330.63" y2="-665.94" gradientTransform="matrix(0, -1, -1, 0, -49.26, 1846.15)" xlink:href="#未命名漸層"/>
    <linearGradient id="未命名漸層_26" data-name="未命名漸層 26" x1="1488.75" y1="-392.27" x2="1499.33" y2="-659.25" gradientTransform="matrix(0, -1, -1, 0, -49.26, 1846.15)" xlink:href="#未命名漸層"/>
    <linearGradient id="未命名漸層_27" data-name="未命名漸層 27" x1="1595.87" y1="-388.02" x2="1606.45" y2="-655.01" gradientTransform="matrix(0, -1, -1, 0, -49.26, 1846.15)" xlink:href="#未命名漸層"/>
    <linearGradient id="未命名漸層_28" data-name="未命名漸層 28" x1="1622.34" y1="-386.97" x2="1632.93" y2="-653.96" gradientTransform="matrix(0, -1, -1, 0, -49.26, 1846.15)" xlink:href="#未命名漸層"/>
    <linearGradient id="未命名漸層_29" data-name="未命名漸層 29" x1="1623.49" y1="-386.93" x2="1634.07" y2="-653.91" gradientTransform="matrix(0, -1, -1, 0, -49.26, 1846.15)" xlink:href="#未命名漸層"/>
    <linearGradient id="未命名漸層_30" data-name="未命名漸層 30" x1="1568.86" y1="-389.09" x2="1579.44" y2="-656.08" gradientTransform="matrix(0, -1, -1, 0, -49.26, 1846.15)" xlink:href="#未命名漸層"/>
    <linearGradient id="未命名漸層_31" data-name="未命名漸層 31" x1="1469.3" y1="-393.04" x2="1479.89" y2="-660.02" gradientTransform="matrix(0, -1, -1, 0, -49.26, 1846.15)" xlink:href="#未命名漸層"/>
  </defs>
  <title>section1_circle</title>
  <g id="圖層_1-2" data-name="圖層 1-2">
    <image class="cls-1" width="583" height="584" transform="translate(300 31)" xlink:href="section1_circle1.png"/>
    <g class="cls-2">
      <image class="cls-1" width="561" height="621" xlink:href="section1_circle2.png"/>
    </g>
    <path class="cls-3" d="M455.2,439.1a178.9,178.9,0,0,1-226.7,40l-3.5,6a185.8,185.8,0,0,0,235.4-41.5l-4.8-5Z"/>
    <path class="cls-4" d="M411.1,162.9a184.7,184.7,0,0,0-60.7-22.1l-1.2,6.8a177.6,177.6,0,0,1,58.4,21.3,180.3,180.3,0,0,1,46.3,38.5l4.7-5.1A187.4,187.4,0,0,0,411.1,162.9Z"/>
    <path class="cls-5" d="M132.1,324a185,185,0,0,0,43.6,119.5l5.3-4.4A178.3,178.3,0,0,1,139,324h0a178.4,178.4,0,0,1,42-115.1,180.5,180.5,0,0,1,47.6-40l-3.5-6a187.4,187.4,0,0,0-81.8,97.4A185.2,185.2,0,0,0,132.1,324Z"/>
    <path class="cls-6" d="M217,148.9a200.8,200.8,0,0,1,66-24,204.4,204.4,0,0,1,70.2,0,200.9,200.9,0,0,1,66,24l5.2-9a213.6,213.6,0,0,0-23.6-11.7A210.9,210.9,0,0,0,355,114.6l-36.9-3.2a213.9,213.9,0,0,0-36.9,3.2,212.2,212.2,0,0,0-113.4,59.1q-6.6,6.6-12.5,13.7l8,6.7A203.1,203.1,0,0,1,217,148.9Z"/>
    <path class="cls-7" d="M163.2,454a201.2,201.2,0,0,1-47.3-130H105.5a211.6,211.6,0,0,0,12.8,72.7q1.8,5.1,3.9,10a211.4,211.4,0,0,0,33,53.9q6,7.1,12.5,13.7a212.6,212.6,0,0,0,44,33.8l5.2-9A203.1,203.1,0,0,1,163.2,454Z"/>
    <rect class="cls-8" x="633.2" y="255.1" width="75" height="12.78"/>
    <path class="cls-9" d="M480.4,324h0a161.4,161.4,0,0,0-37.2-103.3l-.7,1A160.1,160.1,0,0,1,479.3,324h0A160,160,0,0,1,444,424.5l.7,1A161.1,161.1,0,0,0,480.4,324Z"/>
    <path class="cls-10" d="M420.5,324a102.2,102.2,0,0,0-6.2-35l-.7-1.8c-.9,4.2-39.7,7.5-40.3,11.9s33,.8,37.1,12.1c1.2,3.4-29.9,5.6-3,13.8,6.8,2-40.4,4.9-43.5,8.8s44.8.8,29.3,11.6c-3.5,2.4,20,10,21,14.1,0-.1.1-.2.1-.4A102.2,102.2,0,0,0,420.5,324Z"/>
    <path class="cls-11" d="M574.8,76.3V99.7h7.4v25.2h-7.4v50.3l7.4-.2h0V149.9l7.4.2V76.3Z"/>
    <path class="cls-12" d="M566,114.3V63.9H543.6v52.8A172,172,0,0,1,566,114.3Z"/>
    <polygon class="cls-13" points="647 75.4 647 80.1 652.5 80.1 656 80.1 656 63.9 652.5 63.9 647 63.9 647 75.4"/>
    <rect class="cls-14" x="537.7" y="549.3" width="24.1" height="43.34"/>
    <rect class="cls-15" x="462.3" y="500.3" width="12.1" height="29.29"/>
    <rect class="cls-16" x="677" y="505.6" width="12.1" height="14.64"/>
    <path class="cls-17" d="M574.8,223.5V187.2H552.4V152.5h0a170.7,170.7,0,0,0-30.6,8.4V127.5H506.9v39.8q-5.4,2.6-10.7,5.7a172.7,172.7,0,0,0-37.5,29.4l1.9,2.2-5.3,4.4-1.3-1.5-3.5,4c-2.5,3-4.9,6.1-7.2,9.3A161.4,161.4,0,0,1,480.4,324h0a161.1,161.1,0,0,1-35.7,101.4c1.9,2.5,3.7,4.9,5.7,7.2l5.2,5.9A178.1,178.1,0,0,0,497.2,324h6.9a185.1,185.1,0,0,1-43.6,119.5h-.1a172.4,172.4,0,0,0,35.7,27.5,170.7,170.7,0,0,0,15.4,7.9v49.6h18.5V462.9H515.3V430h18.5v57.2a171.2,171.2,0,0,0,41,6.8V463.2h14.9V425h18.5v67.2l4-.6q7.6-1.3,14.9-3.3V420.3h18.5v41.3h-5V568.3H659V476c3.2-1.6,6.3-3.2,9.3-5a171.8,171.8,0,0,0,63.4-234.4H696.4v-7.7H727q-3.3-5.2-7-10.1H689.1V196.1h10.5a171.3,171.3,0,0,0-109.8-46v73.4Zm133.4,31.6v12.8H633.2V255.1ZM530.7,324a211.3,211.3,0,0,1-12.8,72.7q-1.8,5.1-3.9,10a211.4,211.4,0,0,1-33,53.9l-8-6.6a202.4,202.4,0,0,0,35.2-199.1l9.8-3.6A211.3,211.3,0,0,1,530.7,324Z"/>
    <polygon class="cls-18" points="781.8 236.6 816.7 236.6 816.7 228.9 777.1 228.9 746.6 228.9 746.6 236.6 781.8 236.6"/>
    <path class="cls-19" d="M751,211.4c2,2.4,4,4.9,5.9,7.4h6.9V196.1H736.4A172.6,172.6,0,0,1,751,211.4Z"/>
    <path class="cls-20" d="M737,218.8c-1.9-2.5-3.8-5-5.9-7.4a172.6,172.6,0,0,0-14.6-15.3H706.1v22.7Z"/>
    <rect class="cls-21" x="339.7" y="272.7" width="30.7" height="7.99"/>
    <rect class="cls-22" x="355" y="373.6" width="5.5" height="5.48"/>
    <rect class="cls-23" x="451.8" y="604.9" width="14.5" height="14.55"/>
    <rect class="cls-23" x="280.5" y="80.1" width="10.2" height="10.21"/>
    <rect class="cls-23" x="558.1" y="537.2" width="24.1" height="24.12"/>
    <rect class="cls-23" x="582.3" y="512.9" width="88.4" height="7.32"/>
    <rect class="cls-23" x="518.8" y="99.3" width="36" height="12.12"/>
    <rect class="cls-23" x="469.5" y="230.9" width="61.2" height="20.38"/>
    <rect class="cls-23" x="724.7" y="328.3" width="72.2" height="14.66"/>
    <rect class="cls-23" x="777.9" y="361.7" width="53" height="5.82"/>
    <rect class="cls-23" x="696" y="285.9" width="63.6" height="5.53"/>
    <rect class="cls-23" x="613.9" y="398.7" width="25.5" height="5.41"/>
    <rect class="cls-24" x="55" y="311.8" width="44.6" height="6.48"/>
    <rect class="cls-23" x="24.8" y="319.7" width="44.6" height="15.44"/>
    <rect class="cls-24" x="173.2" y="280.7" width="45.3" height="10.77"/>
    <rect class="cls-24" x="199.6" y="274" width="33.3" height="11.23"/>
    <rect class="cls-24" x="136.9" y="454.6" width="28.6" height="8.27"/>
    <rect class="cls-23" x="56.1" y="392.4" width="98.8" height="9.75"/>
    <rect class="cls-23" x="151.9" y="236.3" width="4.1" height="4.05"/>
  </g>
</svg>
