<?xml version="1.0" encoding="utf-8"?>
<!-- Generator: Adobe Illustrator 23.0.3, SVG Export Plug-In . SVG Version: 6.00 Build 0)  -->
<svg version="1.1" xmlns="http://www.w3.org/2000/svg" xmlns:xlink="http://www.w3.org/1999/xlink" x="0px" y="0px"
	 viewBox="0 0 595.28 359.4" style="enable-background:new 0 0 595.28 359.4;" xml:space="preserve">
<style type="text/css">
	.st0{fill:#163660;}
	.st1{opacity:0.8;}
	.st2{fill:url(#SVGID_1_);}
	.st3{fill:url(#SVGID_2_);}
	.st4{fill:url(#SVGID_3_);}
	.st5{fill:url(#SVGID_4_);}
	.st6{fill:url(#SVGID_5_);}
	.st7{fill:url(#SVGID_6_);}
	.st8{fill:url(#SVGID_7_);}
	.st9{fill:url(#SVGID_8_);}
	.st10{fill:url(#SVGID_9_);}
	.st11{fill:url(#SVGID_10_);}
	.st12{fill:url(#SVGID_11_);}
	.st13{fill:url(#SVGID_12_);}
	.st14{fill:url(#SVGID_13_);}
	.st15{fill:url(#SVGID_14_);}
	.st16{fill:url(#SVGID_15_);}
	.st17{fill:none;}
	.st18{fill:#E83633;}
	.st19{fill:url(#SVGID_16_);}
	.st20{fill:url(#SVGID_17_);}
	.st21{fill:url(#SVGID_18_);}
	.st22{fill:url(#SVGID_19_);}
	.st23{fill:url(#SVGID_20_);}
	.st24{fill:url(#SVGID_21_);}
	.st25{fill:url(#SVGID_22_);}
	.st26{fill:url(#SVGID_23_);}
	.st27{fill:url(#SVGID_24_);}
	.st28{fill:url(#SVGID_25_);}
	.st29{fill:url(#SVGID_26_);}
	.st30{fill:url(#SVGID_27_);}
	.st31{fill:url(#SVGID_28_);}
	.st32{fill:url(#SVGID_29_);}
	.st33{fill:url(#SVGID_30_);}
	.st34{fill:url(#SVGID_31_);}
	.st35{fill:url(#SVGID_32_);}
	.st36{fill:url(#SVGID_33_);}
	.st37{fill:#69B1E2;}
	.st38{fill:#D03177;}
	.st39{fill:url(#SVGID_34_);}
	.st40{fill:url(#SVGID_35_);}
	.st41{fill:#F4F4F4;}
	.st42{fill:url(#SVGID_36_);}
	.st43{fill:url(#SVGID_37_);}
	.st44{fill:url(#SVGID_38_);}
	.st45{fill:url(#SVGID_39_);}
	.st46{fill:url(#SVGID_40_);}
	.st47{fill:url(#SVGID_41_);}
	.st48{fill:url(#SVGID_42_);}
	.st49{fill:url(#SVGID_43_);}
	.st50{fill:url(#SVGID_44_);}
	.st51{fill:url(#SVGID_45_);}
	.st52{fill:url(#SVGID_46_);}
	.st53{fill:url(#SVGID_47_);}
	.st54{fill:url(#SVGID_48_);}
	.st55{fill:url(#SVGID_49_);}
	.st56{fill:url(#SVGID_50_);}
	.st57{fill:#D03277;}
	.st58{fill:#CF3478;}
	.st59{fill:#CF3578;}
	.st60{fill:#CF3679;}
	.st61{fill:#CE3879;}
	.st62{fill:#CE397A;}
	.st63{fill:#CE3A7A;}
	.st64{fill:#CD3B7B;}
	.st65{fill:#CD3C7B;}
	.st66{fill:#CD3E7C;}
	.st67{fill:#CD3F7C;}
	.st68{fill:#CC407D;}
	.st69{fill:#CC417D;}
	.st70{fill:#CC427E;}
	.st71{fill:#CB437E;}
	.st72{fill:#CB457F;}
	.st73{fill:#CB467F;}
	.st74{fill:#CA4780;}
	.st75{fill:#CA4881;}
	.st76{fill:#CA4981;}
	.st77{fill:#CA4A82;}
	.st78{fill:#C94B82;}
	.st79{fill:#C94C83;}
	.st80{fill:#C94D83;}
	.st81{fill:#C84E84;}
	.st82{fill:#C84F84;}
	.st83{fill:#C85085;}
	.st84{fill:#C75185;}
	.st85{fill:#C75186;}
	.st86{fill:#C75286;}
	.st87{fill:#C65387;}
	.st88{fill:#C65488;}
	.st89{fill:#C65588;}
	.st90{fill:#C55689;}
	.st91{fill:#C55789;}
	.st92{fill:#C4588A;}
	.st93{fill:#C4598A;}
	.st94{fill:#C4598B;}
	.st95{fill:#C35A8B;}
	.st96{fill:#C35B8C;}
	.st97{fill:#C35C8C;}
	.st98{fill:#C25D8D;}
	.st99{fill:#C25E8E;}
	.st100{fill:#C25F8E;}
	.st101{fill:#C15F8F;}
	.st102{fill:#C1608F;}
	.st103{fill:#C16190;}
	.st104{fill:#C06290;}
	.st105{fill:#C06391;}
	.st106{fill:#C06392;}
	.st107{fill:#BF6492;}
	.st108{fill:#BF6593;}
	.st109{fill:#BF6693;}
	.st110{fill:#BE6794;}
	.st111{fill:#BE6895;}
	.st112{fill:#BD6996;}
	.st113{fill:#BD6A96;}
	.st114{fill:#BC6B97;}
	.st115{fill:#BC6C98;}
	.st116{fill:#BB6D99;}
	.st117{fill:#BB6E99;}
	.st118{fill:#BA6E9A;}
	.st119{fill:#BA6F9A;}
	.st120{fill:#BA709B;}
	.st121{fill:#B9709B;}
	.st122{fill:#B9719C;}
	.st123{fill:#B9729D;}
	.st124{fill:#B8739D;}
	.st125{fill:#B8739E;}
	.st126{fill:#B7749E;}
	.st127{fill:#B7759F;}
	.st128{fill:#B775A0;}
	.st129{fill:#B676A0;}
	.st130{fill:#B677A1;}
	.st131{fill:#B578A1;}
	.st132{fill:#B578A2;}
	.st133{fill:#B579A3;}
	.st134{fill:#B47AA3;}
	.st135{fill:#B47AA4;}
	.st136{fill:#B37BA4;}
	.st137{fill:#B37CA5;}
	.st138{fill:#B37CA6;}
	.st139{fill:#B27DA6;}
	.st140{fill:#B27EA7;}
	.st141{fill:#B17EA7;}
	.st142{fill:#B17FA8;}
	.st143{fill:#B080A9;}
	.st144{fill:#AF81AA;}
	.st145{fill:#AF82AA;}
	.st146{fill:#AF82AB;}
	.st147{fill:#AE83AC;}
	.st148{fill:#AD84AD;}
	.st149{fill:#AD85AD;}
	.st150{fill:#AC85AE;}
	.st151{fill:#AC86AF;}
	.st152{fill:#AB87AF;}
	.st153{fill:#AB87B0;}
	.st154{fill:#AA88B0;}
	.st155{fill:#AA88B1;}
	.st156{fill:#A989B2;}
	.st157{fill:#A98AB2;}
	.st158{fill:#A88AB3;}
	.st159{fill:#A88BB3;}
	.st160{fill:#A78BB4;}
	.st161{fill:#A78CB5;}
	.st162{fill:#A68CB5;}
	.st163{fill:#A68DB6;}
	.st164{fill:#A58EB6;}
	.st165{fill:#A58EB7;}
	.st166{fill:#A48FB8;}
	.st167{fill:#A390B9;}
	.st168{fill:#A291BA;}
	.st169{fill:#A292BA;}
	.st170{fill:#A192BB;}
	.st171{fill:#A093BC;}
	.st172{fill:#9F94BD;}
	.st173{fill:#9E95BE;}
	.st174{fill:#9D95BF;}
	.st175{fill:#9D96BF;}
	.st176{fill:#9C96C0;}
	.st177{fill:#9C97C0;}
	.st178{fill:#9B97C1;}
	.st179{fill:#9A98C1;}
	.st180{fill:#9A99C2;}
	.st181{fill:#9999C3;}
	.st182{fill:#999AC3;}
	.st183{fill:#989AC4;}
	.st184{fill:#979BC4;}
	.st185{fill:#979BC5;}
	.st186{fill:#969CC6;}
	.st187{fill:#959CC6;}
	.st188{fill:#959DC7;}
	.st189{fill:#949DC7;}
	.st190{fill:#939EC8;}
	.st191{fill:#929EC9;}
	.st192{fill:#919FCA;}
	.st193{fill:#90A0CB;}
	.st194{fill:#8FA0CB;}
	.st195{fill:#8EA1CC;}
	.st196{fill:#8DA2CD;}
	.st197{fill:#8CA2CE;}
	.st198{fill:#8BA3CF;}
	.st199{fill:#8AA3CF;}
	.st200{fill:#89A4D0;}
	.st201{fill:#88A4D0;}
	.st202{fill:#88A5D1;}
	.st203{fill:#87A5D2;}
	.st204{fill:#86A5D2;}
	.st205{fill:#85A6D3;}
	.st206{fill:#84A7D4;}
	.st207{fill:#83A7D4;}
	.st208{fill:#82A8D5;}
	.st209{fill:#81A8D5;}
	.st210{fill:#80A8D6;}
	.st211{fill:#80A9D7;}
	.st212{fill:#7FA9D7;}
	.st213{fill:#7EA9D8;}
	.st214{fill:#7DAAD8;}
	.st215{fill:#7CAAD9;}
	.st216{fill:#7BABD9;}
	.st217{fill:#7AABDA;}
	.st218{fill:#79ABDA;}
	.st219{fill:#78ACDB;}
	.st220{fill:#77ACDB;}
	.st221{fill:#76ACDC;}
	.st222{fill:#75ADDD;}
	.st223{fill:#74AEDE;}
	.st224{fill:#73AEDE;}
	.st225{fill:#72AEDF;}
	.st226{fill:#71AFDF;}
	.st227{fill:#6FAFE0;}
	.st228{fill:#6EAFE0;}
	.st229{fill:#6DB0E0;}
	.st230{fill:#6CB0E1;}
	.st231{fill:#6BB0E1;}
	.st232{fill:#6AB1E2;}
	.st233{clip-path:url(#SVGID_52_);}
	.st234{fill:url(#SVGID_53_);}
	.st235{fill:url(#SVGID_54_);}
	.st236{fill:url(#SVGID_55_);}
	.st237{fill:url(#SVGID_56_);}
	.st238{fill:url(#SVGID_57_);}
	.st239{fill:url(#SVGID_58_);}
	.st240{fill:url(#SVGID_59_);}
	.st241{fill:url(#SVGID_60_);}
	.st242{fill:url(#SVGID_61_);}
	.st243{fill:url(#SVGID_62_);}
	.st244{fill:url(#SVGID_63_);}
	.st245{fill:url(#SVGID_64_);}
	.st246{fill:url(#SVGID_65_);}
	.st247{fill:url(#SVGID_66_);}
	.st248{fill:url(#SVGID_67_);}
	.st249{fill:url(#SVGID_68_);}
	.st250{fill:url(#SVGID_69_);}
	.st251{fill:url(#SVGID_70_);}
	.st252{fill:url(#SVGID_71_);}
	.st253{fill:url(#SVGID_72_);}
	.st254{fill:url(#SVGID_73_);}
	.st255{fill:url(#SVGID_74_);}
	.st256{fill:url(#SVGID_75_);}
	.st257{fill:url(#SVGID_76_);}
	.st258{fill:url(#SVGID_77_);}
	.st259{fill:url(#SVGID_78_);}
	.st260{fill:url(#SVGID_79_);}
	.st261{fill:url(#SVGID_80_);}
	.st262{fill:url(#SVGID_81_);}
	.st263{fill:url(#SVGID_82_);}
	.st264{fill:url(#SVGID_83_);}
	.st265{fill:url(#SVGID_84_);}
	.st266{fill:url(#SVGID_85_);}
	.st267{fill:url(#SVGID_86_);}
	.st268{fill:url(#SVGID_87_);}
	.st269{fill:url(#SVGID_88_);}
	.st270{fill:url(#SVGID_89_);}
	.st271{fill:url(#SVGID_90_);}
	.st272{fill:url(#SVGID_91_);}
	.st273{fill:url(#SVGID_92_);}
	.st274{fill:url(#SVGID_93_);}
	.st275{fill:url(#SVGID_94_);}
	.st276{fill:url(#SVGID_95_);}
	.st277{fill:url(#SVGID_96_);}
	.st278{fill:url(#SVGID_97_);}
	.st279{fill:url(#SVGID_98_);}
	.st280{clip-path:url(#SVGID_52_);fill:#69B1E2;}
	.st281{fill:url(#SVGID_99_);}
	.st282{fill:url(#SVGID_100_);}
	.st283{fill:url(#SVGID_101_);}
	.st284{fill:url(#SVGID_102_);}
	.st285{fill:url(#SVGID_103_);}
	.st286{fill:url(#SVGID_104_);}
	.st287{fill:url(#SVGID_105_);}
	.st288{fill:url(#SVGID_106_);}
	.st289{fill:url(#SVGID_107_);}
	.st290{fill:url(#SVGID_108_);}
	.st291{fill:url(#SVGID_109_);}
	.st292{fill:url(#SVGID_110_);}
	.st293{fill:url(#SVGID_111_);}
	.st294{fill:url(#SVGID_112_);}
	.st295{fill:#FFFFFF;}
	.st296{fill:url(#SVGID_113_);}
	.st297{fill:url(#SVGID_114_);}
	.st298{fill:url(#SVGID_115_);}
	.st299{fill:url(#SVGID_116_);}
	.st300{fill:url(#SVGID_117_);}
	.st301{fill:url(#SVGID_118_);}
	.st302{fill:url(#SVGID_119_);}
	.st303{fill:url(#SVGID_120_);}
	.st304{fill:url(#SVGID_121_);}
	.st305{fill:url(#SVGID_122_);}
	.st306{fill:url(#SVGID_123_);}
	.st307{fill:url(#SVGID_124_);}
	.st308{fill:url(#SVGID_125_);}
	.st309{fill:url(#SVGID_126_);}
	.st310{fill:#C23370;}
	.st311{fill:#69A8D5;}
	.st312{fill:url(#SVGID_127_);}
	.st313{fill:url(#SVGID_128_);}
	.st314{fill:url(#SVGID_129_);}
	.st315{fill:url(#SVGID_130_);}
	.st316{fill:url(#SVGID_131_);}
	.st317{fill:url(#SVGID_132_);}
	.st318{fill:url(#SVGID_133_);}
	.st319{fill:url(#SVGID_134_);}
	.st320{fill:url(#SVGID_135_);}
	.st321{fill:url(#SVGID_136_);}
	.st322{fill:url(#SVGID_137_);}
	.st323{fill:url(#SVGID_138_);}
	.st324{fill:url(#SVGID_139_);}
	.st325{fill:url(#SVGID_140_);}
	.st326{fill:url(#SVGID_141_);}
	.st327{fill:url(#SVGID_142_);}
	.st328{fill:url(#SVGID_143_);}
	.st329{fill:url(#SVGID_144_);}
	.st330{fill:url(#SVGID_145_);}
	.st331{fill:url(#SVGID_146_);}
	.st332{fill:url(#SVGID_147_);}
	.st333{fill:url(#SVGID_148_);}
	.st334{fill:url(#SVGID_149_);}
	.st335{fill:url(#SVGID_150_);}
	.st336{fill:url(#SVGID_151_);}
	.st337{fill:url(#SVGID_152_);}
	.st338{fill:url(#SVGID_153_);}
	.st339{fill:url(#SVGID_154_);}
	.st340{fill:url(#SVGID_155_);}
	.st341{fill:url(#SVGID_156_);}
	.st342{fill:url(#SVGID_157_);}
	.st343{fill:url(#SVGID_158_);}
	.st344{fill:url(#SVGID_159_);}
	.st345{fill:url(#SVGID_160_);}
	.st346{fill:url(#SVGID_161_);}
	.st347{fill:url(#SVGID_162_);}
	.st348{fill:url(#SVGID_163_);}
	.st349{fill:url(#SVGID_164_);}
	.st350{fill:url(#SVGID_165_);}
	.st351{fill:url(#SVGID_166_);}
	.st352{fill:url(#SVGID_167_);}
	.st353{fill:url(#SVGID_168_);}
	.st354{fill:url(#SVGID_169_);}
	.st355{fill:url(#SVGID_170_);}
	.st356{fill:#E62471;}
	.st357{fill:url(#SVGID_171_);}
	.st358{fill:url(#SVGID_172_);}
	.st359{fill:url(#SVGID_173_);}
	.st360{fill:url(#SVGID_174_);}
	.st361{fill:url(#SVGID_175_);}
	.st362{fill:url(#SVGID_176_);}
	.st363{fill:url(#SVGID_177_);}
	.st364{fill:url(#SVGID_178_);}
	.st365{fill:url(#SVGID_179_);}
	.st366{fill:url(#SVGID_180_);}
	.st367{fill:url(#SVGID_181_);}
	.st368{fill:url(#SVGID_182_);}
	.st369{fill:url(#SVGID_183_);}
	.st370{fill:url(#SVGID_184_);}
</style>
<g id="主視覺_x28_直_x29_">
</g>
<g id="主視覺_x28_橫_x29_">
</g>
<g id="標準字_x28_橫_x29_">
	<g id="_x28_請關閉_x29_">
	</g>
	<g id="_x28_請關閉_x29__7_">
	</g>
</g>
<g id="標準字_x28_直_x29_">
	<g id="_x28_請關閉_x29__3_">
	</g>
	<g id="_x28_請關閉_x29__5_">
	</g>
	<g id="_x28_請關閉_x29__6_">
	</g>
</g>
<g id="標準字_x2B_HCI">
	<g id="請隱藏">
	</g>
</g>
<g id="DesignGuide">
</g>
<g id="Layer_13">
	<g>
		<g>
			<path class="st41" d="M79.97,299.47l4.99-6.08c2.62,2.23,6.03,3.76,8.95,3.76c3.26,0,4.8-1.24,4.8-3.21
				c0-2.13-2.03-2.82-5.19-4.15l-4.7-1.98c-3.86-1.53-7.46-4.75-7.46-10.08c0-6.18,5.54-11.12,13.35-11.12
				c4.25,0,8.75,1.63,11.96,4.84l-4.4,5.54c-2.42-1.83-4.7-2.82-7.56-2.82c-2.72,0-4.4,1.09-4.4,3.06c0,2.03,2.32,2.82,5.59,4.1
				l4.6,1.83c4.55,1.83,7.27,4.89,7.27,10.08c0,6.13-5.14,11.52-14.04,11.52C88.91,304.76,83.77,302.98,79.97,299.47z"/>
			<path class="st41" d="M121.43,291.07l-11.07-23.78h9.39l3.06,8.16c0.99,2.77,1.93,5.34,2.97,8.21h0.2
				c1.04-2.87,2.03-5.44,3.06-8.21l3.06-8.16h9.24l-11.12,23.78v13h-8.8V291.07z"/>
			<path class="st41" d="M147.38,267.29h9.54l5.83,15.87c0.74,2.13,1.33,4.45,2.03,6.72h0.25c0.74-2.27,1.33-4.6,2.03-6.72
				l5.63-15.87h9.59v36.78h-8.06v-12.6c0-3.66,0.69-9.14,1.14-12.75h-0.2l-3.06,8.8l-4.94,13.44h-4.84l-4.99-13.44l-2.97-8.8h-0.2
				c0.44,3.61,1.14,9.1,1.14,12.75v12.6h-7.91V267.29z"/>
			<path class="st41" d="M192.99,267.29h12.85c7.61,0,13.69,2.03,13.69,9.09c0,3.26-1.83,6.82-4.79,7.96v0.2
				c3.71,0.99,6.52,3.76,6.52,8.65c0,7.51-6.38,10.87-14.38,10.87h-13.89V267.29z M205.5,281.88c3.76,0,5.44-1.63,5.44-4.15
				c0-2.62-1.73-3.71-5.44-3.71h-3.66v7.86H205.5z M206.24,297.3c4.25,0,6.43-1.53,6.43-4.7c0-3.02-2.13-4.2-6.43-4.2h-4.4v8.9
				H206.24z"/>
			<path class="st41" d="M229.61,267.29h8.85v36.78h-8.85V267.29z"/>
			<path class="st41" d="M247.5,285.48c0-12.06,6.82-18.88,16.86-18.88c10.03,0,16.86,6.87,16.86,18.88
				c0,12.06-6.82,19.28-16.86,19.28C254.32,304.76,247.5,297.55,247.5,285.48z M272.22,285.48c0-7.12-3.02-11.32-7.86-11.32
				c-4.84,0-7.81,4.2-7.81,11.32c0,7.17,2.97,11.67,7.81,11.67C269.2,297.15,272.22,292.65,272.22,285.48z"/>
			<path class="st41" d="M295.79,274.61h-9.94v-7.32h28.77v7.32h-9.98v29.46h-8.85V274.61z"/>
			<path class="st41" d="M322.57,267.29h23.33v7.32h-14.48v6.82h12.31v7.41h-12.31v7.81h15.03v7.42h-23.87V267.29z"/>
		</g>
		<path class="st41" d="M293.77,227.88v-32.92h36.04v-14.56h-36.04v-22.53h41.94v-14.73h-41.94V21.67c2.46-2.06,4.03-5.15,4.03-8.62
			c0-6.2-5.03-11.23-11.23-11.23c-6.2,0-11.23,5.03-11.23,11.23c0,3.38,1.5,6.41,3.87,8.47v121.62H250.1l9.36-25.65h-15.42
			l-21.83,60.13h15.6l7.28-19.75h34.14v22.53H244.9v14.56h34.31v32.92h-52.68v14.73h119.91v-14.73H293.77z"/>
		<g>
			<rect x="430.24" y="188.33" class="st41" width="57.49" height="26.51"/>
			<path class="st41" d="M580.82,224.85c-4.71,0-8.74,2.9-10.4,7.01h-91.89l4.93-9.86h-11.66l-4.76,9.86h-14.95l-5.09-9.86h-11.66
				l5.09,9.86h-22.16v-50.1h78.17v-10.35h-68.17v-6.9h63.41v-41.06h-18.56v-8.87h-9.2v8.87h-9.69v-8.87h-9.53v8.87h-18.4v28.42
				h-3.93v-35.15h-45.43v35.15h-10.76v23h10.19v161.56c-3.22,2.03-5.36,5.61-5.36,9.69c0,6.33,5.13,11.46,11.46,11.46
				c6.33,0,11.46-5.13,11.46-11.46c0-4.13-2.19-7.74-5.46-9.75v-47.82v-6.62v-62.54h17.68v24.8h12.11v-1.81h153.26
				c2.02,2.98,5.43,4.94,9.3,4.94c6.2,0,11.23-5.03,11.23-11.23C592.05,229.88,587.02,224.85,580.82,224.85z M473.11,132.16h9.86
				v6.74h-9.86V132.16z M473.11,148.58h9.86v7.06h-9.86V148.58z M454.22,132.16h9.69v6.74h-9.69V132.16z M454.22,148.58h9.69v7.06
				h-9.69V148.58z M435,132.16h9.69v6.74H435V132.16z M435,148.58h9.69v7.06H435V148.58z M387.7,125.92h19.22v7.72h-14.61v18.23
				h-4.61V125.92z M406.92,142.34v9.53h-4.61v-9.53H406.92z M406.15,209.03h-17.68v-9.86h17.68V209.03z M406.15,188.83h-17.68v-8.38
				h17.68V188.83z M416.92,170.1h-39.21v-8.38h39.21V170.1z"/>
		</g>
		<g>
			<polygon class="st41" points="159.5,217.14 178.74,241.57 196.59,241.57 177.18,217.14 			"/>
			<polygon class="st41" points="79.97,241.57 97.29,241.57 115.32,217.14 97.99,217.14 			"/>
			<path class="st41" d="M169.55,188.55v-35.87h25.13v-13.69h-25.13v-22.35h-13.69v22.35h-37.08v-22.35h-13.69v22.35H79.97v13.69
				h25.13v35.87H22.96c-2.06-2.39-5.1-3.91-8.51-3.91c-6.2,0-11.23,5.03-11.23,11.23c0,6.2,5.03,11.23,11.23,11.23
				c3.76,0,7.08-1.85,9.12-4.69h178.9v-13.86H169.55z M155.86,188.55h-37.08v-35.87h37.08V188.55z"/>
		</g>
	</g>
</g>
</svg>
