<svg id="圖層_1" data-name="圖層 1" xmlns="http://www.w3.org/2000/svg" xmlns:xlink="http://www.w3.org/1999/xlink" viewBox="0 0 368 80"><defs><style>.cls-1{fill:#fff;}.cls-2{fill:url(#未命名漸層_2);}</style><radialGradient id="未命名漸層_2" cx="-469.02" cy="621.52" r="11.93" gradientTransform="matrix(0.62, -0.77, 0.93, 0.8, -190.12, -821.23)" gradientUnits="userSpaceOnUse"><stop offset="0" stop-color="#fff" stop-opacity="0.5"/><stop offset="0.15" stop-color="#fff" stop-opacity="0.64"/><stop offset="0.36" stop-color="#fff" stop-opacity="0.79"/><stop offset="0.55" stop-color="#fff" stop-opacity="0.91"/><stop offset="0.71" stop-color="#fff" stop-opacity="0.98"/><stop offset="0.83" stop-color="#fff"/></radialGradient></defs><title>sponsors-1</title><g id="horizontal_zh" data-name="horizontal zh"><path class="cls-1" d="M187.11,25.68H198a48.72,48.72,0,0,1-12.92,19.46l1.62,1.74a60.35,60.35,0,0,0,6.57-5.66V58.87h26.19V35.41h-21A44.33,44.33,0,0,0,203,25.75h17.65v-3H187v2.9Zm27.4,13.07V55.67H197.7V38.75Z"/><path class="cls-1" d="M287.81,21l-2.76.65a35.73,35.73,0,0,1,1.56,3.78h-6.85v3.19h16.8V25.39H291A30.67,30.67,0,0,0,287.81,21Z"/><rect class="cls-1" x="281.66" y="31.71" width="13.2" height="3.12"/><path class="cls-1" d="M280.46,59.23h15V45.43h-15Zm5.09-10.53h5.15v8h-5.15Z"/><rect class="cls-1" x="281.66" y="38.53" width="13.2" height="3.12"/><polygon class="cls-1" points="309.77 33.45 309.77 21.76 304.96 21.76 304.96 33.45 297.34 33.45 297.34 36.86 304.96 36.86 304.96 59.16 309.77 59.16 309.77 36.86 317.39 36.86 317.39 33.45 309.77 33.45"/><path class="cls-1" d="M144.89,51.17c.63-1.89,1.27-3.41,2.26-11h-5.58c.92-1,4-3.34,5.79-10.67h-9.11v2.68h4.59a20.7,20.7,0,0,1-5.3,8.28v2.47h5.23c-.78,6.54-2.61,10.6-5.37,14.23L139.1,59a23.53,23.53,0,0,0,4.09-4.36c3,3.64,8.12,4.87,15.18,4.87,10.1,0,15.82,0,17.52-.07l.7-2.91c-1,0-6.49-.21-18.5-.21A17.91,17.91,0,0,1,144.89,51.17Z"/><path class="cls-1" d="M147.5,48.92l2.12,2c3.1-3.85,4.38-9.29,4.59-17.21h2.89c-.07,3.27-.14,6.83-.28,9.37s-.28,6.32-.42,6.68a1.34,1.34,0,0,1-.71.8,12,12,0,0,1-2.82.8l.7,2a13.89,13.89,0,0,0,4.66-.58A3.74,3.74,0,0,0,160.07,51c.35-.79.56-3.48.85-7.33s.21-5.88.28-12.35h-6.85c.07-1.81.07-3.84.07-3.84h6.78V24.74H157a26.37,26.37,0,0,0-2.75-4.51l-2.83.73a18.7,18.7,0,0,1,1.7,3.85h-5.23V27.5h2.62a81.22,81.22,0,0,1-.78,13.36A25.35,25.35,0,0,1,147.5,48.92Z"/><path class="cls-1" d="M146.09,26A22.74,22.74,0,0,0,140.72,21l-1.84,1.23a42.66,42.66,0,0,1,4.1,5.45Z"/><path class="cls-1" d="M166.56,26.7h9.82V24h-8.33a12,12,0,0,0,1-2.11l-3.25-1.16a22.27,22.27,0,0,1-4,6.68l1.7,1.38A10.23,10.23,0,0,0,166.56,26.7Z"/><path class="cls-1" d="M172.14,39c0-2.25,2.33-3.27,3.46-8.42H164.16v2.54h6.22c-.71,1.6-2.47,3.56-2.47,5.59v2.18h-5.3V43.4h5.3v7.12c0,.65-.36.79-1.13,1a16.13,16.13,0,0,1-3.18.58l.78,2.18a17.46,17.46,0,0,0,6-.58c1.13-.43,1.69-1.74,1.69-3.78V43.4h4.73V40.93h-4.73Z"/><path class="cls-1" d="M254.48,32.51c.91-1.31,1.62-3.56,1.69-7h4.73v6.76a3.25,3.25,0,0,0,.92,2.25,2.46,2.46,0,0,0,2,1l4.8.21.42-2.46a9,9,0,0,1-3.17-.8,1,1,0,0,1-.43-.88V22.34h-13v2.25c.14,4.87-1.06,7-4.38,9.51L249.46,36A10.87,10.87,0,0,0,254.48,32.51Z"/><rect class="cls-1" x="233.43" y="31.71" width="12.57" height="3.12"/><path class="cls-1" d="M232.23,59.23h14.41V45.43H232.23Zm4.59-10.53H242v8h-5.16Z"/><rect class="cls-1" x="233.43" y="38.53" width="12.57" height="3.12"/><path class="cls-1" d="M262,52.91a22.5,22.5,0,0,0,5.79-15H250v3h13.13a16.79,16.79,0,0,1-4,8.57,6.89,6.89,0,0,1-.71.73,24.53,24.53,0,0,1-1.76-2,29.07,29.07,0,0,1-3.61-5.66l-3.46,1.74a27.33,27.33,0,0,0,4.17,6.46,16.63,16.63,0,0,0,2,2,20.76,20.76,0,0,1-7.7,3.85L249.11,59a20.21,20.21,0,0,0,10.24-3.7,29.77,29.77,0,0,0,9,3.7l.77-2.18a23.5,23.5,0,0,1-7.34-3.7Z"/><path class="cls-1" d="M239,21l-2.75.65a35.67,35.67,0,0,1,1.55,3.78H231.6v3.19h16.17V25.39h-5.58A26.73,26.73,0,0,0,239,21Z"/><path class="cls-1" d="M75.4,39.77l-6.56,8.06a5.15,5.15,0,0,1-7.35.65,5.5,5.5,0,0,1-.63-7.55h0L77.17,21H65.66L54.08,35.12A14.67,14.67,0,0,0,56,55.38a13.75,13.75,0,0,0,19.56-1.74l6.56-8.06Z"/><polygon class="cls-1" points="109.86 61.84 123.84 44.71 117.07 38.9 98.35 61.84 109.86 61.84"/><path class="cls-2" d="M78.72,35.7l-1.55,1.89L84,43.4l1.55-1.89a5.14,5.14,0,0,1,7.35-.65,13.87,13.87,0,0,0,19.77-1.75l2-2.46-6.77-5.81-2,2.39a5.15,5.15,0,0,1-7.35.66h0A13.8,13.8,0,0,0,78.72,35.7"/><path class="cls-1" d="M98.42,33.89h0a5.51,5.51,0,0,1-.63-7.56l2-2.47L93,18.06l-2,2.46A14.73,14.73,0,0,0,92.7,40.78a5.5,5.5,0,0,1,.64,7.56L82.4,61.84H93.9l6.22-7.62a14.68,14.68,0,0,0-1.7-20.33"/></g></svg>