<?xml version="1.0" encoding="utf-8"?>
<!-- Generator: Adobe Illustrator 21.0.2, SVG Export Plug-In . SVG Version: 6.00 Build 0)  -->
<svg version="1.1" id="圖層_1" xmlns="http://www.w3.org/2000/svg" xmlns:xlink="http://www.w3.org/1999/xlink" x="0px" y="0px"
	 viewBox="0 0 534.9 85.3" style="enable-background:new 0 0 534.9 85.3;" xml:space="preserve">
<style type="text/css">
	.st0{fill:#FFFFFF;}
	.st1{fill:url(#SVGID_1_);}
</style>
<title>W_遊石1</title>
<g id="horizontal_zh">
	<path class="st0" d="M193.5,35h15.4c-3.8,10.3-10.1,19.5-18.3,26.8l2.3,2.4c1.8-1.2,3.9-2.9,9.3-7.8v24.3h37.1V48.4h-29.8
		c2.7-4.2,4.9-8.6,6.5-13.3H241v-4.1h-47.6V35z M232.3,53v23.3h-23.8V53H232.3z"/>
	<path class="st0" d="M336.1,28.5l-3.9,0.9c0.8,1.7,1.6,3.4,2.2,5.2h-9.7V39h23.8v-4.4h-7.9C339.3,32.5,337.8,30.4,336.1,28.5z"/>
	<rect x="327.4" y="43.3" class="st0" width="18.7" height="4.3"/>
	<path class="st0" d="M325.7,81.2H347v-19h-21.3V81.2z M332.9,66.7h7.3v11h-7.3V66.7z"/>
	<rect x="327.4" y="52.7" class="st0" width="18.7" height="4.3"/>
	<polygon class="st0" points="367.2,45.7 367.2,29.6 360.4,29.6 360.4,45.7 349.6,45.7 349.6,50.4 360.4,50.4 360.4,81.1 
		367.2,81.1 367.2,50.4 378,50.4 378,45.7 	"/>
	<path class="st0" d="M133.7,70.1c0.9-2.6,1.8-4.7,3.2-15.2h-7.9c1.3-1.4,5.6-4.6,8.2-14.7h-12.9v3.7h6.5c-3,7.5-6,9.8-7.5,11.4v3.4
		h7.4c-1.1,9-3.7,14.6-7.6,19.6l2.4,2.6c2.2-1.7,4.1-3.8,5.8-6c4.2,5,11.5,6.7,21.5,6.7c14.3,0,22.4,0,24.8-0.1l1-4
		c-1.4,0-9.2-0.3-26.2-0.3C145.3,77.3,138.5,74.9,133.7,70.1z"/>
	<path class="st0" d="M137.4,67l3,2.8c4.4-5.3,6.2-12.8,6.5-23.7h4.1c-0.1,4.5-0.2,9.4-0.4,12.9c-0.2,3.5-0.4,8.7-0.6,9.2
		c-0.2,0.5-0.5,0.9-1,1.1c-0.5,0.2-1.3,0.6-4,1.1l1,2.8c3-0.1,5.3-0.2,6.6-0.8c1.1-0.5,2.1-1.4,2.6-2.5c0.5-1.1,0.8-4.8,1.2-10.1
		c0.3-5.2,0.3-8.1,0.4-17h-9.7c0.1-2.5,0.1-5.3,0.1-5.3h9.6v-3.8h-6c-1.1-2.2-2.4-4.3-3.9-6.2l-4,1c1,1.7,1.8,3.4,2.4,5.3h-7.4v3.7
		h3.7c0,8.9-0.3,13.3-1.1,18.4C139.8,60.2,139.3,63.3,137.4,67z"/>
	<path class="st0" d="M135.4,35.5c-2.1-2.7-4.7-5.1-7.6-7l-2.6,1.7c2.1,2.3,4.1,4.9,5.8,7.5L135.4,35.5z"/>
	<path class="st0" d="M164.4,36.4h13.9v-3.7h-11.8c0.6-0.9,1-1.9,1.4-2.9l-4.6-1.6c-1.8,4.1-3.4,6.7-5.7,9.2l2.4,1.9
		C161.7,38.6,163.1,37.6,164.4,36.4z"/>
	<path class="st0" d="M172.3,53.4c0-3.1,3.3-4.5,4.9-11.6H161v3.5h8.8c-1,2.2-3.5,4.9-3.5,7.7v3h-7.5v3.4h7.5v9.8
		c0,0.9-0.5,1.1-1.6,1.4c-1.5,0.4-3,0.7-4.5,0.8l1.1,3c4,0.1,6.9-0.2,8.5-0.8c1.6-0.6,2.4-2.4,2.4-5.2v-9h6.7v-3.4h-6.7L172.3,53.4z
		"/>
	<path class="st0" d="M288.9,44.4c1.3-1.8,2.3-4.9,2.4-9.6h6.7v9.3c0,1.2,0.5,2.3,1.3,3.1c0.7,0.9,1.7,1.4,2.8,1.4l6.8,0.3l0.6-3.4
		c-1.4-0.2-3.8-0.5-4.5-1.1c-0.4-0.3-0.6-0.7-0.6-1.2V30.4h-18.4v3.1c0.2,6.7-1.5,9.7-6.2,13.1l2,2.6
		C284.9,48,287.5,46.4,288.9,44.4z"/>
	<rect x="259.1" y="43.3" class="st0" width="17.8" height="4.3"/>
	<path class="st0" d="M257.4,81.2h20.4v-19h-20.4V81.2z M263.9,66.7h7.3v11h-7.3V66.7z"/>
	<rect x="259.1" y="52.7" class="st0" width="17.8" height="4.3"/>
	<path class="st0" d="M299.6,72.5c5.2-5.6,8.2-13,8.2-20.7h-25.2V56h18.6c-0.7,4.4-2.7,8.5-5.7,11.8c-0.3,0.3-0.6,0.7-1,1
		c-0.9-0.9-1.7-1.8-2.5-2.8c-2-2.4-3.7-5-5.1-7.8l-4.9,2.4c1.9,3.5,3.1,5.9,5.9,8.9c0.9,1,1.8,1.9,2.8,2.7c-3.2,2.5-7,4.3-10.9,5.3
		l1.5,3.4c5.2-0.4,10.2-2.1,14.5-5.1c4.9,2.9,10,4.6,12.8,5.1l1.1-3c-3.7-1.1-7.3-2.8-10.4-5.1L299.6,72.5z"/>
	<path class="st0" d="M267,28.5l-3.9,0.9c0.8,1.7,1.6,3.4,2.2,5.2h-8.8V39h22.9v-4.4h-7.9C270.3,32.5,268.7,30.4,267,28.5z"/>
	<path class="st0" d="M35.3,54.4L26,65.5c-2.6,3.1-7.3,3.5-10.4,0.9c-3.1-2.6-3.5-7.3-0.9-10.4l0,0l23.1-27.5H21.5L5.1,48
		c-7,8.5-5.7,21,2.7,27.9c8.3,6.9,20.7,5.8,27.7-2.4l9.3-11.1L35.3,54.4z"/>
	<polygon class="st0" points="84.1,84.8 103.9,61.2 94.3,53.2 67.8,84.8 	"/>
	
		<radialGradient id="SVGID_1_" cx="-180.5861" cy="80.6073" r="16.4302" gradientTransform="matrix(0.6427 -0.7662 -0.9577 -0.8033 257.0903 -22.4807)" gradientUnits="userSpaceOnUse">
		<stop  offset="0" style="stop-color:#FFFFFF;stop-opacity:0.5"/>
		<stop  offset="0.15" style="stop-color:#FFFFFF;stop-opacity:0.64"/>
		<stop  offset="0.36" style="stop-color:#FFFFFF;stop-opacity:0.79"/>
		<stop  offset="0.55" style="stop-color:#FFFFFF;stop-opacity:0.91"/>
		<stop  offset="0.71" style="stop-color:#FFFFFF;stop-opacity:0.98"/>
		<stop  offset="0.83" style="stop-color:#FFFFFF"/>
	</radialGradient>
	<path class="st1" d="M40,48.8l-2.2,2.6l9.6,8l2.2-2.6c2.6-3.1,7.2-3.5,10.4-0.9c8.4,7,20.9,5.9,28-2.4l2.8-3.4l-9.6-8l-2.8,3.3
		c-2.6,3.1-7.2,3.5-10.4,0.9l0,0C59.5,39.3,47,40.4,40,48.8"/>
	<path class="st0" d="M67.9,46.3L67.9,46.3c-3.1-2.6-3.5-7.3-0.9-10.4l2.8-3.4l-9.6-8l-2.8,3.4c-7,8.4-5.9,20.9,2.4,27.9
		c3.1,2.6,3.5,7.3,0.9,10.4L45.2,84.8h16.3l8.8-10.5C77.4,65.9,76.3,53.4,67.9,46.3"/>
</g>
</svg>
