<?xml version="1.0" encoding="utf-8"?>
<!-- Generator: Adobe Illustrator 21.0.2, SVG Export Plug-In . SVG Version: 6.00 Build 0)  -->
<svg version="1.1" id="logo" xmlns="http://www.w3.org/2000/svg" xmlns:xlink="http://www.w3.org/1999/xlink" x="0px" y="0px"
	 viewBox="0 0 168 44" style="enable-background:new 0 0 168 44;" xml:space="preserve">
<style type="text/css">
	.st0{fill:#FFFFFF;}
	.st1{fill:none;}
</style>
<g>
	<path class="st0" d="M101.6,23.6c-0.4,0-0.7,0.1-1,0.4c-0.2,0.2-0.3,0.5-0.3,0.9c0,0.4,0.1,0.7,0.4,0.9c0.2,0.2,0.5,0.3,0.9,0.3
		c0.4,0,0.7-0.1,0.9-0.3c0.2-0.2,0.4-0.6,0.4-0.9s-0.1-0.7-0.3-0.9S102,23.6,101.6,23.6L101.6,23.6z"/>
	<path class="st0" d="M106.3,12.9c-0.2-0.2-0.5-0.3-0.8-0.3s-0.6,0.1-0.8,0.3s-0.3,0.5-0.3,0.8s0.1,0.6,0.3,0.8s0.5,0.3,0.8,0.3
		s0.6-0.1,0.8-0.3s0.3-0.5,0.3-0.8C106.7,13.3,106.5,13.1,106.3,12.9z"/>
	<path class="st0" d="M104.8,16.1C104.7,16.1,104.7,16.1,104.8,16.1c-0.1,0-0.1,0-0.1,0.1v0.2v8.8c0,0.7,1.3,0.9,1.7,0.9
		c0.1,0,0.1,0,0.1-0.1v-8.8C106.5,16.5,105.3,16.2,104.8,16.1z"/>
	<path class="st0" d="M116.5,26.1v-6.1c0-1-0.1-1.8-0.4-2.2s-0.7-0.8-1.2-1.1c-0.5-0.3-1.1-0.4-1.8-0.4c-0.8,0-1.6,0.3-2.2,0.9
		c0,0,0,0-0.1,0s-0.1,0-0.1-0.1c-0.4-0.7-1.2-1-1.7-1.1c-0.1,0-0.1,0-0.1,0.1v9c0,0.6,1.3,0.9,1.7,1c0.1,0,0.1,0,0.1-0.1v-5.9
		c0-0.4,0.1-0.7,0.2-1c0.1-0.3,0.4-0.6,0.7-0.9c0.3-0.2,0.6-0.3,1.1-0.3c0.7,0,1.2,0.2,1.6,0.5c0.3,0.3,0.5,0.8,0.5,1.5v5.3
		c0,0.6,1.3,0.8,1.7,0.9h0C116.5,26.2,116.5,26.2,116.5,26.1L116.5,26.1L116.5,26.1z"/>
	<path class="st0" d="M67.4,16.6c-0.6-0.3-1.4-0.5-2.2-0.5c-0.9,0-1.7,0.2-2.3,0.6c-0.7,0.5-1.2,1-1.6,1.6c-0.4,0.8-0.7,1.7-0.7,2.8
		c0,1.1,0.2,2.1,0.6,2.9c0.4,0.7,0.9,1.2,1.5,1.7c0.7,0.4,1.5,0.6,2.4,0.6c1,0,1.9-0.2,2.6-0.7c0.6-0.4,1-0.9,1.4-1.7
		c0.3-0.7,0.5-1.6,0.5-2.6c0-1.1-0.2-2.2-0.7-3C68.6,17.5,68.1,17,67.4,16.6L67.4,16.6z M67.5,22.9c-0.2,0.4-0.5,0.8-0.8,1
		c-0.4,0.3-0.9,0.4-1.5,0.4c-0.5,0-1-0.1-1.4-0.4c-0.3-0.2-0.6-0.6-0.9-1c-0.2-0.5-0.3-1.1-0.3-1.9c0-0.7,0.1-1.4,0.4-1.8
		c0.2-0.4,0.5-0.7,0.9-0.9c0.3-0.2,0.8-0.3,1.4-0.3c0.5,0,0.9,0.1,1.4,0.4c0.3,0.2,0.6,0.5,0.8,1c0.2,0.4,0.3,1,0.3,1.8
		C67.8,21.8,67.7,22.4,67.5,22.9L67.5,22.9z"/>
	<path class="st0" d="M59.1,20.1c0-1.1-0.2-1.9-0.5-2.5c-0.3-0.4-0.7-0.8-1.2-1.1c-0.5-0.3-1.1-0.4-1.9-0.4c-0.9,0-1.6,0.3-2.3,0.9
		c0,0-0.1,0-0.1,0c-0.1,0-0.1,0-0.1-0.1v-5.1c0-0.9-1.3-1.1-1.8-1.1h0c-0.1,0-0.1,0-0.1,0.1v0.1v14.3c0,0.7,1.3,1,1.8,1h0
		c0.1,0,0.1,0,0.1-0.1v-5.9c0-0.4,0.1-0.7,0.2-1c0.1-0.3,0.4-0.7,0.7-0.9c0.3-0.2,0.6-0.3,1.1-0.3c0.7,0,1.2,0.2,1.6,0.5
		c0.3,0.3,0.5,0.8,0.5,1.5v5.1c0,0.8,1.3,1.1,1.8,1.1c0.1,0,0.1,0,0.1-0.1v0L59.1,20.1L59.1,20.1z"/>
	<path class="st0" d="M79.2,17.3c0-0.9-1.3-1.1-1.8-1.1h0c-0.1,0-0.1,0-0.1,0.1v0v5.1c0,0.8-0.3,1.5-0.8,2C76,23.8,75.5,24,74.9,24
		c-0.6,0-1-0.2-1.3-0.5c-0.3-0.3-0.4-0.8-0.4-1.4v-4.9c0-0.9-1.3-1.1-1.8-1.1h0c-0.1,0-0.1,0-0.1,0.1V22c0,1.3,0.3,2.3,0.9,2.9
		c0.5,0.6,1.3,0.9,2.4,0.9c0.7,0,1.4-0.2,1.9-0.6c0.3-0.3,0.5-0.5,0.7-0.7c0,0,0.1-0.1,0.1-0.1c0.1,0,0.1,0,0.1,0.1v0.6
		c0,0.8,1.3,1.1,1.8,1.1h0c0.1,0,0.1,0,0.1-0.1L79.2,17.3L79.2,17.3z"/>
	<path class="st0" d="M87.6,21.6c-0.4-0.4-1.3-0.8-2.6-1.4c-1.1-0.4-1.7-0.7-1.9-0.8c-0.1-0.1-0.2-0.3-0.2-0.5
		c0-0.2,0.1-0.5,0.3-0.6c0.3-0.2,0.7-0.3,1.3-0.3c0.5,0,0.9,0.1,1.1,0.2c0.2,0.1,0.4,0.3,0.6,0.5c0.5,0.5,1.4-0.2,1.7-0.5
		c0,0,0,0,0,0c0,0,0,0,0-0.1v0c0-0.1-0.1-0.2-0.2-0.4c-0.3-0.5-0.8-0.9-1.4-1.2c-0.5-0.2-1.1-0.4-1.8-0.4c-1.1,0-2.1,0.3-2.7,0.9
		c-0.5,0.5-0.8,1.2-0.8,2c0,0.5,0.1,0.9,0.4,1.3c0.3,0.4,1.3,0.9,2.9,1.6c1,0.4,1.7,0.7,1.9,0.9c0.1,0.1,0.2,0.3,0.2,0.6
		c0,0.2-0.1,0.4-0.4,0.7c-0.2,0.2-0.6,0.3-1.3,0.3c-0.6,0-1-0.1-1.4-0.3s-0.5-0.4-0.7-0.8c-0.3-0.5-1.3,0-1.8,0.3c0,0,0,0,0,0
		c0,0,0,0.1,0,0.1v0c0,0.2,0.1,0.4,0.2,0.5c0.3,0.5,0.7,1,1.3,1.4c0.6,0.4,1.4,0.6,2.3,0.6c1.2,0,2.1-0.3,2.8-0.8
		c0.7-0.6,1.1-1.4,1.1-2.2C88.3,22.6,88.1,22.1,87.6,21.6L87.6,21.6z"/>
	<path class="st0" d="M92,21.8h5.6c0.6,0,1-0.3,1-0.8c0-1.2-0.2-2.1-0.6-2.8s-1-1.3-1.6-1.6c-0.6-0.3-1.2-0.5-1.9-0.5
		c-1.4,0-2.6,0.6-3.4,1.7c-0.7,0.9-1.1,2.1-1.1,3.4c0,1.4,0.4,2.6,1.3,3.5c0.9,1,2,1.6,3.4,1.6c0.6,0,1.3-0.2,2-0.6s1.3-0.9,1.6-1.4
		c0-0.1,0.1-0.2,0.1-0.2v0v0c0,0,0-0.1,0-0.1c-0.4-0.3-1.3-0.9-1.8-0.4c-0.2,0.3-0.5,0.5-0.8,0.7c-0.3,0.2-0.6,0.3-1,0.3
		c-0.8,0-1.5-0.3-2-0.9c-0.4-0.4-0.6-1-0.7-1.6C91.9,21.9,92,21.8,92,21.8L92,21.8z M92,20c0.1-0.4,0.3-0.7,0.5-1c0.5-0.6,1.2-1,2-1
		c0.5,0,1,0.2,1.5,0.7c0.3,0.3,0.5,0.7,0.6,1.4c0,0.1,0,0.1-0.1,0.1h-4.4C92.1,20.1,92,20.1,92,20z"/>
</g>
<path class="st0" d="M25.2,1.1h-2.1C10.7,1.1,1.4,6,0.7,17.9c0,6,2.5,9.9,6.5,12.3c-0.2,0.6-0.5,1.4-0.9,2.3
	c-1.1,2.4-2.9,4.4-2.5,4.7s3.2-0.6,5.7-2c2.6-1.4,3.8-2.3,4.1-2.6c0,0,0.1-0.1,0.1-0.1c2.9,0.6,6.2,1,9.6,1h2.1
	c12.4,0,22.5-2.9,22.5-15.7C46.5,5.1,37.6,1.1,25.2,1.1z M15.5,24.5H8.8c-0.9,0-1.4-0.4-1.4-1.4V12.5c0,0,0-0.1,0.1-0.1
	c0.4,0,1.9,0.3,1.9,1.1v8.9c0,0,0,0.1,0.1,0.1h5C15.4,22.5,15.5,24,15.5,24.5C15.6,24.5,15.5,24.5,15.5,24.5z M19.2,24.4
	C19.2,24.5,19.2,24.5,19.2,24.4c-0.5,0-2-0.2-2-1V12.5c0,0,0-0.1,0.1-0.1c0.4,0.1,1.9,0.3,1.9,1.1V24.4z M31.7,12.6L31.7,12.6
	c-0.2,0.5-1.3,3.1-2.3,5.7c-1.1,2.7-2.1,5.4-2.1,5.4c-0.1,0.2-0.2,0.4-0.4,0.5c-0.2,0.2-0.4,0.3-0.7,0.3c-0.3,0-0.6-0.1-0.8-0.3
	c-0.2-0.2-0.3-0.4-0.4-0.5l-2-5.4l-2.1-5.7v0c0,0,0-0.1,0-0.1c0.3-0.1,1.9-0.3,2.3,0.6l1.9,5.2l1.1,3c0,0,0,0,0.1,0s0.1,0,0.1,0
	l1.1-3l2-5.3C29.8,12.1,31.3,12.4,31.7,12.6C31.7,12.5,31.8,12.6,31.7,12.6z M41.3,24.5h-0.1h-6.4c-0.9,0-1.4-0.4-1.4-1.4v-9.3
	c0-0.9,0.5-1.4,1.4-1.4h5.4c0.9,0,1.1,1.5,1.1,1.9c0,0,0,0.1-0.1,0.1h-5.8c0,0-0.1,0-0.1,0.1v8c0,0,0,0.1,0.1,0.1h4.7
	C41.2,22.5,41.3,24,41.3,24.5C41.4,24.5,41.3,24.5,41.3,24.5z M41.1,18.9l-2.5,1.6c-0.5,0.4-1.3-0.1-1.3-0.6v-3.1
	c0-0.6,0.8-1,1.3-0.6l2.5,1.6C41.5,18.1,41.5,18.5,41.1,18.9z"/>
<path class="st1" d="M31.7,12.5c-0.4-0.1-1.9-0.4-2.2,0.4l-2,5.3l-1.1,3c0,0,0,0-0.1,0s-0.1,0-0.1,0l-1.1-3l-1.9-5.2
	c-0.4-0.9-1.9-0.6-2.3-0.6c0,0,0,0,0,0.1v0l2.1,5.7l2,5.4c0.1,0.2,0.2,0.3,0.4,0.5c0.2,0.2,0.4,0.3,0.8,0.3c0.3,0,0.5-0.1,0.7-0.3
	c0.2-0.2,0.3-0.4,0.4-0.5c0,0,1-2.7,2.1-5.4c1-2.6,2.1-5.2,2.3-5.7L31.7,12.5C31.8,12.6,31.7,12.5,31.7,12.5z"/>
<path class="st1" d="M14.5,22.5h-5c0,0-0.1,0-0.1-0.1v-8.9c0-0.8-1.5-1.1-1.9-1.1c0,0-0.1,0-0.1,0.1v10.6c0,0.9,0.5,1.4,1.4,1.4h6.7
	c0,0,0.1,0,0.1-0.1C15.5,24,15.4,22.5,14.5,22.5z"/>
<path class="st1" d="M17.3,12.4C17.3,12.4,17.2,12.4,17.3,12.4l-0.1,11c0,0.8,1.5,1.1,1.9,1.1c0,0,0.1,0,0.1-0.1V13.5
	C19.2,12.7,17.7,12.5,17.3,12.4z"/>
<path class="st1" d="M40.2,22.5h-4.7c0,0-0.1,0-0.1-0.1v-8c0,0,0-0.1,0.1-0.1h5.8c0,0,0.1,0,0.1-0.1c0-0.5-0.2-1.9-1.1-1.9h-5.4
	c-0.9,0-1.4,0.5-1.4,1.4v9.3c0,0.9,0.5,1.4,1.4,1.4h6.4h0.1c0,0,0.1,0,0.1-0.1C41.3,24,41.2,22.5,40.2,22.5z"/>
<path class="st1" d="M41.1,17.8l-2.5-1.6c-0.5-0.3-1.3,0.1-1.3,0.6v3.1c0,0.5,0.7,0.9,1.3,0.6l2.5-1.6
	C41.5,18.5,41.5,18.1,41.1,17.8z"/>
</svg>
