<svg id="logo" xmlns="http://www.w3.org/2000/svg" viewBox="0 0 131 25">
  <defs>
    <style>
      .cls-1 {
        fill: #fff;
      }
    </style>
  </defs>
  <title>sponsors-2</title>
  <path class="cls-1" d="M58.8,2.5h-21V3.9h1.8l.5.2a1.1,1.1,0,0,1,.3.5,2.8,2.8,0,0,1,.1.9V15.7a7.6,7.6,0,0,1-.3,2.3,4.4,4.4,0,0,1-.8,1.5,2.9,2.9,0,0,1-1.2.8l-1.4.2h-.6l-.6-.3-.5-.6-.4-1L28.6,2.4H24.6L18.2,18.7l-.5,1-.5.6-.6.3H15.6v1.5h7.6V20.7H21.4l-.4-.2-.3-.3a1,1,0,0,1-.1-.5,3.1,3.1,0,0,1,.1-.8l.2-.8.8-2.4h7.1l1,2.8.2.5a2.4,2.4,0,0,1,.1.6,1,1,0,0,1-.1.5l-.3.3-.4.2H27.7v1.5H39.2l1.8-.4,1.6-.8a5.1,5.1,0,0,0,1.3-1.2,5.9,5.9,0,0,0,.8-1.7,7.6,7.6,0,0,0,.3-2.2V5.7a3,3,0,0,1,.1-.9l.3-.5.5-.2h6.9L46.6,22.3h4.2l1.4-4.7h7.6l1.4,4.7h4.2ZM22.4,14l1.7-4.7.4-1,.4-1.1.4-1,.3-.9.3,1,.3,1.1.3,1.1.3,1L28.3,14Zm30.9,0,.7-2.4.4-1.2.4-1.3.4-1.4.9-2.6.8,2.7L57.2,9l.3.8,1.3,4.3Z"/>
</svg>
