<svg xmlns="http://www.w3.org/2000/svg" xmlns:xlink="http://www.w3.org/1999/xlink" viewBox="0 0 645 575"><defs><style>.cls-1{fill:none;}.cls-2{clip-path:url(#clip-path);}.cls-3{fill:url(#未命名漸層_2);}.cls-4{fill:url(#未命名漸層_2-2);}.cls-5{fill:url(#未命名漸層_2-3);}.cls-6{fill:url(#未命名漸層_2-4);}.cls-7{fill:url(#未命名漸層_2-5);}.cls-8{fill:url(#未命名漸層_2-6);}.cls-9{fill:url(#未命名漸層_2-7);}.cls-10{fill:url(#未命名漸層_2-8);}.cls-11{fill:url(#未命名漸層_2-9);}.cls-12{fill:url(#未命名漸層_2-10);}.cls-13{fill:url(#未命名漸層_2-11);}.cls-14{fill:url(#未命名漸層_2-12);}.cls-15{fill:url(#未命名漸層_2-13);}.cls-16{fill:url(#未命名漸層_2-14);}.cls-17{fill:url(#未命名漸層_2-15);}.cls-18{fill:url(#未命名漸層_2-16);}.cls-19{fill:url(#未命名漸層_2-17);}.cls-20{fill:url(#未命名漸層_2-18);}.cls-21{fill:url(#未命名漸層_2-19);}.cls-22{fill:url(#未命名漸層_2-20);}.cls-23{fill:url(#未命名漸層_2-21);}.cls-24{fill:url(#未命名漸層_2-22);}.cls-25{fill:url(#未命名漸層_2-23);}.cls-26{fill:url(#未命名漸層_2-24);}.cls-27{fill:url(#未命名漸層_2-25);}.cls-28{fill:url(#未命名漸層_2-26);}.cls-29{fill:url(#未命名漸層_2-27);}.cls-30{fill:url(#未命名漸層_2-30);}.cls-31{fill:url(#未命名漸層_2-31);}.cls-32{fill:url(#未命名漸層_2-32);}.cls-33{fill:url(#未命名漸層_2-33);}.cls-34{fill:url(#未命名漸層_2-36);}.cls-35{fill:url(#未命名漸層_2-37);}.cls-36{fill:url(#未命名漸層_2-38);}.cls-37{fill:url(#未命名漸層_2-39);}.cls-38{fill:url(#未命名漸層_2-40);}.cls-39{fill:url(#未命名漸層_2-41);}.cls-40{fill:url(#未命名漸層_2-42);}.cls-41{fill:url(#未命名漸層_2-43);}.cls-42{fill:url(#未命名漸層_2-48);}.cls-43{fill:url(#未命名漸層_2-82);}</style><clipPath id="clip-path"><rect class="cls-1" x="-52.5" y="-959.64" width="1440" height="900.1"/></clipPath><linearGradient id="未命名漸層_2" x1="175.85" y1="76.11" x2="175.85" y2="463.37" gradientUnits="userSpaceOnUse"><stop offset="0" stop-color="#21acda"/><stop offset="1" stop-color="#e62676"/></linearGradient><linearGradient id="未命名漸層_2-2" x1="228.1" y1="76.11" x2="228.1" y2="463.37" xlink:href="#未命名漸層_2"/><linearGradient id="未命名漸層_2-3" x1="165.36" y1="76.11" x2="165.36" y2="463.37" xlink:href="#未命名漸層_2"/><linearGradient id="未命名漸層_2-4" x1="186.34" y1="76.11" x2="186.34" y2="463.37" xlink:href="#未命名漸層_2"/><linearGradient id="未命名漸層_2-5" x1="217.8" y1="76.11" x2="217.8" y2="463.37" xlink:href="#未命名漸層_2"/><linearGradient id="未命名漸層_2-6" x1="207.31" y1="76.11" x2="207.31" y2="463.37" xlink:href="#未命名漸層_2"/><linearGradient id="未命名漸層_2-7" x1="196.82" y1="76.11" x2="196.82" y2="463.37" xlink:href="#未命名漸層_2"/><linearGradient id="未命名漸層_2-8" x1="112.92" y1="76.11" x2="112.92" y2="463.37" xlink:href="#未命名漸層_2"/><linearGradient id="未命名漸層_2-9" x1="91.95" y1="76.11" x2="91.95" y2="463.37" xlink:href="#未命名漸層_2"/><linearGradient id="未命名漸層_2-10" x1="81.46" y1="76.11" x2="81.46" y2="463.37" xlink:href="#未命名漸層_2"/><linearGradient id="未命名漸層_2-11" x1="102.44" y1="76.11" x2="102.44" y2="463.37" xlink:href="#未命名漸層_2"/><linearGradient id="未命名漸層_2-12" x1="70.97" y1="76.11" x2="70.97" y2="463.37" xlink:href="#未命名漸層_2"/><linearGradient id="未命名漸層_2-13" x1="133.9" y1="76.11" x2="133.9" y2="463.37" xlink:href="#未命名漸層_2"/><linearGradient id="未命名漸層_2-14" x1="154.87" y1="76.11" x2="154.87" y2="463.37" xlink:href="#未命名漸層_2"/><linearGradient id="未命名漸層_2-15" x1="144.39" y1="76.11" x2="144.39" y2="463.37" xlink:href="#未命名漸層_2"/><linearGradient id="未命名漸層_2-16" x1="123.41" y1="76.11" x2="123.41" y2="463.37" xlink:href="#未命名漸層_2"/><linearGradient id="未命名漸層_2-17" x1="354.13" y1="76.11" x2="354.13" y2="463.37" xlink:href="#未命名漸層_2"/><linearGradient id="未命名漸層_2-18" x1="385.6" y1="76.11" x2="385.6" y2="463.37" xlink:href="#未命名漸層_2"/><linearGradient id="未命名漸層_2-19" x1="375.11" y1="76.11" x2="375.11" y2="463.37" xlink:href="#未命名漸層_2"/><linearGradient id="未命名漸層_2-20" x1="364.62" y1="76.11" x2="364.62" y2="463.37" xlink:href="#未命名漸層_2"/><linearGradient id="未命名漸層_2-21" x1="291.21" y1="76.11" x2="291.21" y2="463.37" xlink:href="#未命名漸層_2"/><linearGradient id="未命名漸層_2-22" x1="312.18" y1="76.11" x2="312.18" y2="463.37" xlink:href="#未命名漸層_2"/><linearGradient id="未命名漸層_2-23" x1="322.67" y1="76.11" x2="322.67" y2="463.37" xlink:href="#未命名漸層_2"/><linearGradient id="未命名漸層_2-24" x1="333.16" y1="76.11" x2="333.16" y2="463.37" xlink:href="#未命名漸層_2"/><linearGradient id="未命名漸層_2-25" x1="343.65" y1="76.11" x2="343.65" y2="463.37" xlink:href="#未命名漸層_2"/><linearGradient id="未命名漸層_2-26" x1="396.08" y1="76.11" x2="396.08" y2="463.37" xlink:href="#未命名漸層_2"/><linearGradient id="未命名漸層_2-27" x1="280.72" y1="76.14" x2="280.72" y2="463.4" xlink:href="#未命名漸層_2"/><linearGradient id="未命名漸層_2-30" x1="406.57" y1="76.11" x2="406.57" y2="463.37" xlink:href="#未命名漸層_2"/><linearGradient id="未命名漸層_2-31" x1="448.52" y1="76.11" x2="448.52" y2="463.37" xlink:href="#未命名漸層_2"/><linearGradient id="未命名漸層_2-32" x1="301.7" y1="76.11" x2="301.7" y2="463.37" xlink:href="#未命名漸層_2"/><linearGradient id="未命名漸層_2-33" x1="270.23" y1="76.11" x2="270.23" y2="463.37" xlink:href="#未命名漸層_2"/><linearGradient id="未命名漸層_2-36" x1="427.54" y1="76.11" x2="427.54" y2="463.37" xlink:href="#未命名漸層_2"/><linearGradient id="未命名漸層_2-37" x1="417.06" y1="76.11" x2="417.06" y2="463.37" xlink:href="#未命名漸層_2"/><linearGradient id="未命名漸層_2-38" x1="438.03" y1="76.11" x2="438.03" y2="463.37" xlink:href="#未命名漸層_2"/><linearGradient id="未命名漸層_2-39" x1="542.91" y1="76.11" x2="542.91" y2="463.37" xlink:href="#未命名漸層_2"/><linearGradient id="未命名漸層_2-40" x1="521.93" y1="76.11" x2="521.93" y2="463.37" xlink:href="#未命名漸層_2"/><linearGradient id="未命名漸層_2-41" x1="552.87" y1="76.11" x2="552.87" y2="463.37" xlink:href="#未命名漸層_2"/><linearGradient id="未命名漸層_2-42" x1="532.42" y1="76.11" x2="532.42" y2="463.37" xlink:href="#未命名漸層_2"/><linearGradient id="未命名漸層_2-43" x1="512.79" y1="76.11" x2="512.79" y2="463.37" xlink:href="#未命名漸層_2"/><linearGradient id="未命名漸層_2-48" x1="228.22" y1="76.11" x2="228.22" y2="463.37" xlink:href="#未命名漸層_2"/><linearGradient id="未命名漸層_2-82" x1="280.72" y1="76.11" x2="280.72" y2="463.37" xlink:href="#未命名漸層_2"/></defs><title>資產 -23</title><g id="圖層_3" data-name="圖層 3"><polygon class="cls-1" points="385.93 179.67 384.29 175.22 384.29 179.67 385.93 179.67"/><polygon class="cls-1" points="334.05 179.67 334.28 179.67 334.28 178.97 334.05 179.67"/><polygon class="cls-1" points="376.37 179.67 376.37 153.77 373.84 146.91 373.84 179.67 376.37 179.67"/><polygon class="cls-1" points="355.33 179.67 355.33 116.06 352.94 123.19 352.94 179.67 355.33 179.67"/><polygon class="cls-1" points="344.8 179.67 344.8 147.51 342.49 154.43 342.49 179.67 344.8 179.67"/><polygon class="cls-1" points="365.85 179.67 365.85 125.26 363.39 118.6 363.39 179.67 365.85 179.67"/><path class="cls-1" d="M112.57,395.14v45.94c.22.56.47,1.1.71,1.64v-49.2C113,394.06,112.79,394.59,112.57,395.14Z"/><rect class="cls-3" x="175.27" y="59.57" width="1.15" height="34.76"/><rect class="cls-4" x="227.53" y="59.57" width="1.14" height="34.76"/><rect class="cls-5" x="164.82" y="59.57" width="1.08" height="189.71"/><rect class="cls-6" x="185.72" y="59.57" width="1.22" height="34.76"/><rect class="cls-7" x="217.08" y="59.57" width="1.44" height="34.76"/><rect class="cls-8" x="206.63" y="59.57" width="1.37" height="34.76"/><rect class="cls-9" x="196.18" y="59.57" width="1.29" height="34.76"/><rect class="cls-10" x="112.57" y="59.57" width="0.71" height="34.76"/><rect class="cls-11" x="91.67" y="59.57" width="0.57" height="34.76"/><rect class="cls-12" x="81.21" y="59.57" width="0.49" height="34.76"/><rect class="cls-13" x="102.12" y="59.57" width="0.64" height="34.76"/><rect class="cls-14" x="70.76" y="59.57" width="0.42" height="34.76"/><rect class="cls-15" x="133.47" y="59.57" width="0.86" height="189.71"/><rect class="cls-16" x="154.37" y="59.57" width="1" height="189.71"/><rect class="cls-17" x="143.92" y="59.57" width="0.93" height="189.71"/><rect class="cls-18" x="123.02" y="59.57" width="0.79" height="34.76"/><polygon class="cls-19" points="355.33 116.06 355.33 60.57 352.94 60.57 352.94 123.19 355.33 116.06"/><polygon class="cls-20" points="385.93 179.67 384.29 179.67 384.29 212.8 386.9 212.8 386.9 72.02 384.29 65.4 384.29 175.22 385.93 179.67"/><polygon class="cls-21" points="376.37 153.77 376.37 60.57 373.84 60.57 373.84 146.91 376.37 153.77"/><polygon class="cls-22" points="365.85 125.26 365.85 60.57 363.39 60.57 363.39 118.6 365.85 125.26"/><polygon class="cls-23" points="292.18 250.28 292.18 177.31 290.24 182.76 290.24 250.28 292.18 250.28"/><polygon class="cls-24" points="313.23 241.88 313.23 118.45 311.14 124.31 311.14 248.15 313.23 241.88"/><polygon class="cls-25" points="322.96 212.8 323.75 212.8 323.75 89.02 321.59 95.08 321.59 216.91 322.96 212.8"/><polygon class="cls-26" points="334.28 212.8 334.28 179.67 334.05 179.67 334.28 178.97 334.28 60.57 333.93 60.57 332.04 65.85 332.04 212.8 334.28 212.8"/><polygon class="cls-27" points="344.8 147.51 344.8 60.57 342.49 60.57 342.49 154.43 344.8 147.51"/><polygon class="cls-28" points="397.42 212.8 397.42 98.78 394.74 91.98 394.74 212.8 397.42 212.8"/><polygon class="cls-29" points="281.66 250.28 281.66 206.75 279.78 211.99 279.78 250.28 281.66 250.28"/><rect class="cls-22" x="363.39" y="179.67" width="2.46" height="33.13"/><rect class="cls-27" x="342.49" y="179.67" width="2.31" height="33.13"/><polygon class="cls-30" points="407.94 239.29 407.94 125.55 405.19 118.56 405.19 231.84 407.94 239.29"/><polygon class="cls-31" points="447 224.88 447 250.28 450.04 250.28 450.04 232.62 447 224.88"/><polygon class="cls-32" points="302.71 250.28 302.71 147.88 300.69 153.54 300.69 250.28 302.71 250.28"/><polygon class="cls-33" points="269.33 241.22 269.33 250.28 271.14 250.28 271.14 236.18 269.33 241.22"/><rect class="cls-19" x="352.94" y="179.67" width="2.39" height="33.13"/><rect class="cls-21" x="373.84" y="179.67" width="2.53" height="33.13"/><polygon class="cls-34" points="428.99 250.28 428.99 179.08 426.1 171.72 426.1 250.28 428.99 250.28"/><polygon class="cls-35" points="418.47 250.28 418.47 152.32 415.65 145.14 415.65 250.28 418.47 250.28"/><polygon class="cls-36" points="439.52 250.28 439.52 205.85 436.55 198.3 436.55 250.28 439.52 250.28"/><rect class="cls-37" x="541.06" y="59.57" width="3.69" height="189.71"/><rect class="cls-38" x="520.16" y="59.57" width="3.55" height="189.71"/><rect class="cls-39" x="551.51" y="59.57" width="2.73" height="189.71"/><rect class="cls-40" x="530.61" y="59.57" width="3.62" height="189.71"/><rect class="cls-41" x="512.4" y="59.57" width="0.78" height="189.71"/><path class="cls-11" d="M91.67,351V487.52l0,0c.17.19.36.36.53.54V350.35Z"/><path class="cls-13" d="M102.12,341.34V496.91l.64.47V340.84Z"/><path class="cls-12" d="M81.21,364V474.45l.5.73V363.27C81.55,363.51,81.37,363.74,81.21,364Z"/><path class="cls-7" d="M217.08,461.52V503c.48-.23,1-.48,1.44-.72V460.77Z"/><path class="cls-42" d="M227.53,497.39l1.38-.8V455.17l-1.38.76Z"/><path class="cls-10" d="M112.57,441.08v62.6l.71.4V442.72C113,442.18,112.79,441.64,112.57,441.08Z"/><path class="cls-8" d="M206.63,466.69v40.73l1.36-.52V466C207.53,466.27,207.08,466.47,206.63,466.69Z"/><path class="cls-3" d="M175.27,475.77v39.07l1.15-.12V475.66Z"/><path class="cls-5" d="M164.82,476v39.42l1.08,0V476Z"/><path class="cls-16" d="M154.37,474.82v40.35l1,.06V475Z"/><path class="cls-6" d="M185.72,474.18v39.14l1.23-.24V473.92Z"/><path class="cls-15" d="M133.47,466.42v45.5l.86.21V467Z"/><path class="cls-17" d="M143.92,471.84v42.21l.93.14v-42Z"/><path class="cls-18" d="M123,457.49v51.09l.78.28V458.3C123.54,458,123.27,457.76,123,457.49Z"/><path class="cls-9" d="M196.18,471.14v39.73l1.29-.37V470.64Z"/><path class="cls-14" d="M70.76,384.77v68.69c.14.39.28.78.43,1.18v-71C71.05,384,70.9,384.39,70.76,384.77Z"/><path class="cls-16" d="M154.37,321.39v40.39l1-.2V321.3C155,321.32,154.71,321.36,154.37,321.39Z"/><path class="cls-9" d="M196.18,324.23v40.66l1.29.42V324.56Z"/><path class="cls-17" d="M143.92,322.8v42l.93-.37v-41.8Z"/><path class="cls-8" d="M206.63,327.34v41.53c.45.2.91.38,1.36.59V327.85C207.54,327.68,207.09,327.5,206.63,327.34Z"/><path class="cls-6" d="M185.72,322.23v39.89l1.23.25v-40C186.54,322.34,186.13,322.29,185.72,322.23Z"/><path class="cls-10" d="M113.28,333.79l-.71.39v61c.22-.55.47-1.08.71-1.62Z"/><path class="cls-3" d="M175.27,321.15v39.48l1.15.09V321.23Z"/><path class="cls-5" d="M164.82,320.89V360.5l1.08-.06V320.87Z"/><path class="cls-18" d="M123,329v50l.78-.82V328.65Z"/><path class="cls-7" d="M217.08,374l1.44.78V332.55l-1.44-.75Z"/><path class="cls-15" d="M133.47,325.27v44.9l.86-.57V325Z"/><rect class="cls-21" x="373.84" y="400.49" width="2.53" height="36.8"/><rect class="cls-35" x="415.65" y="324.31" width="2.82" height="189.71"/><rect class="cls-34" x="426.1" y="324.31" width="2.89" height="189.71"/><rect class="cls-22" x="363.39" y="400.49" width="2.46" height="36.8"/><rect class="cls-30" x="405.2" y="324.31" width="2.75" height="189.71"/><rect class="cls-19" x="352.94" y="400.49" width="2.39" height="36.8"/><rect class="cls-36" x="436.55" y="324.31" width="2.97" height="189.71"/><rect class="cls-28" x="394.74" y="400.49" width="2.68" height="36.8"/><rect class="cls-27" x="342.49" y="400.49" width="2.31" height="36.8"/><rect class="cls-23" x="290.23" y="324.31" width="1.95" height="189.71"/><rect class="cls-20" x="384.29" y="400.49" width="2.6" height="36.8"/><rect class="cls-43" x="279.78" y="324.31" width="1.88" height="189.71"/><rect class="cls-32" x="300.69" y="324.31" width="2.02" height="189.71"/><rect class="cls-26" x="332.04" y="400.49" width="2.24" height="36.8"/><rect class="cls-24" x="311.14" y="324.31" width="2.09" height="189.71"/><rect class="cls-25" x="321.59" y="400.49" width="2.17" height="36.8"/><rect class="cls-39" x="551.51" y="323.31" width="2.73" height="189.71"/><rect class="cls-37" x="541.06" y="323.31" width="3.69" height="189.71"/><rect class="cls-40" x="530.61" y="323.31" width="3.62" height="189.71"/><rect class="cls-41" x="512.4" y="323.31" width="0.78" height="189.71"/><rect class="cls-38" x="520.16" y="323.31" width="3.55" height="189.71"/></g></svg>