<svg xmlns="http://www.w3.org/2000/svg" width="247" height="52.775"><g data-name="Group 27"><path data-name="Path 6" d="M230.419 2.035a12.2 12.2 0 1 0 12.2 12.2 12.213 12.213 0 0 0-12.2-12.2m0 26.435a14.235 14.235 0 1 1 14.234-14.235 14.25 14.25 0 0 1-14.234 14.235" fill="#fff" fill-rule="evenodd"/></g><path data-name="Path 7" d="M219 45.745a6.033 6.033 0 0 1-6 6.03" fill="#191455" fill-rule="evenodd"/><path data-name="Path 8" d="M213 2.825a4.988 4.988 0 0 0-4.964 5v37.9a4.964 4.964 0 1 0 9.928 0v-37.9a4.988 4.988 0 0 0-4.964-5m0 49.95a7.033 7.033 0 0 1-7-7.05v-37.9a7 7 0 1 1 14 0v37.9a7.033 7.033 0 0 1-7 7.05" fill="#fff" fill-rule="evenodd"/><path data-name="Path 10" d="M213.076 2.832a4.789 4.789 0 0 0-1.583.27l-8.162 2.855a4.907 4.907 0 0 0-2.81 2.541 5.077 5.077 0 0 0-.243 3.827 4.941 4.941 0 0 0 2.485 2.874 4.777 4.777 0 0 0 3.744.247l8.162-2.854a4.9 4.9 0 0 0 2.81-2.54 5.077 5.077 0 0 0 .243-3.828 4.923 4.923 0 0 0-4.646-3.392m-8.15 14.943a6.8 6.8 0 0 1-3.049-.73 6.974 6.974 0 0 1-3.5-4.053 7.119 7.119 0 0 1 4.306-8.981l8.162-2.855a6.894 6.894 0 0 1 8.786 4.4 7.118 7.118 0 0 1-4.306 8.98l-8.163 2.855a6.737 6.737 0 0 1-2.232.382" fill="#fff" fill-rule="evenodd"/><path data-name="Path 11" d="M213.054 2.836l-.353.01q-.088 0-.175.013l-.08.008q-.085.009-.169.023l-.053.007q-.226.038-.448.094a5.029 5.029 0 0 0-3.74 4.87v7.03l6.573-2.277a5.021 5.021 0 0 0 3.354-4.819v-.15l1.014-.112-1.016.056 1.015-.086-1.016.06q-.006-.094-.015-.188l1.007-.16-1.012.107q-.011-.1-.027-.209v-.03l-.03-.174-.012-.058a5.066 5.066 0 0 0-2.29-3.276 4.985 4.985 0 0 0-2.208-.723l-.319-.015zM206 17.775V7.861a7.082 7.082 0 0 1 5.239-6.859c.13-.033.228-.056.326-.078l.07-.013c.08-.017.173-.034.266-.049l.08-.012c.08-.013.17-.023.258-.034l.1-.01.246-.02h.493l.43.019a7.046 7.046 0 0 1 3.136 1.021 7.14 7.14 0 0 1 3.186 4.482l.03.141c.022.11.041.22.058.332l.005.03c.016.1.028.2.039.308l.007.064c.009.09.015.18.02.27v.01l-1.016.051 1.017-.039v.086c0 .058 0 .131.006.2a7.083 7.083 0 0 1-4.731 6.8z" fill="#fff" fill-rule="evenodd"/><path data-name="Path 13" d="M230.5 21.82a14.455 14.455 0 1 0 14.455 14.455A14.472 14.472 0 0 0 230.5 21.82m0 30.955a16.5 16.5 0 1 1 16.5-16.5 16.519 16.519 0 0 1-16.5 16.5" fill="#fff" fill-rule="evenodd"/><path data-name="Path 15" d="M222.177 24.021a12.509 12.509 0 0 0 15.646 0 14.781 14.781 0 0 0-15.646 0M230 28.775a14.4 14.4 0 0 1-10.181-4.149l-.819-.807.922-.694a16.834 16.834 0 0 1 20.156 0l.922.694-.82.807A14.392 14.392 0 0 1 230 28.775M10.554 5.553H0V3.775h23v1.778H12.567v44.222h-2.013" fill="#fff" fill-rule="evenodd"/><path data-name="Path 16" d="M75 49.775h2v-46h-2zm33.646 1h-.686a22.831 22.831 0 0 1-11.98-3.34 24.651 24.651 0 0 1-8.767-8.876A23.092 23.092 0 0 1 84 26.775a22.941 22.941 0 0 1 7.175-16.918 23.573 23.573 0 0 1 17.159-7.082A24.922 24.922 0 0 1 121 6.239v2.289a22.208 22.208 0 0 0-12.666-3.959 21.482 21.482 0 0 0-15.723 6.526 21.3 21.3 0 0 0-6.553 15.65 21.405 21.405 0 0 0 6.553 15.68 21.433 21.433 0 0 0 15.723 6.556A22.208 22.208 0 0 0 121 45.022v2.29a23.278 23.278 0 0 1-12.354 3.463m54.306-47H165v46h-2.048V32.234h-31.9v17.541H129v-46h2.048v26.68h31.9zm12.048 46h2v-46h-2zm-130.03-47l-22.97 47h1.9L44.785 6.998l21.066 42.777H68z" fill="#fff" fill-rule="evenodd"/></svg>