<svg xmlns="http://www.w3.org/2000/svg" viewBox="0 0 131 25"><path d="M58.8 2.5h-21v1.4h1.8l.5.2a1.1 1.1 0 0 1 .3.5 2.8 2.8 0 0 1 .1.9v10.2a7.6 7.6 0 0 1-.3 2.3 4.4 4.4 0 0 1-.8 1.5 2.9 2.9 0 0 1-1.2.8l-1.4.2h-.6l-.6-.3-.5-.6-.4-1-6.1-16.2h-4l-6.4 16.3-.5 1-.5.6-.6.3h-1v1.5h7.6v-1.4h-1.8l-.4-.2-.3-.3a1 1 0 0 1-.1-.5 3.1 3.1 0 0 1 .1-.8l.2-.8.8-2.4h7.1l1 2.8.2.5a2.4 2.4 0 0 1 .1.6 1 1 0 0 1-.1.5l-.3.3-.4.2h-1.6v1.5h11.5l1.8-.4 1.6-.8a5.1 5.1 0 0 0 1.3-1.2 5.9 5.9 0 0 0 .8-1.7 7.6 7.6 0 0 0 .3-2.2V5.7a3 3 0 0 1 .1-.9l.3-.5.5-.2h6.9l-6.2 18.2h4.2l1.4-4.7h7.6l1.4 4.7h4.2zM22.4 14l1.7-4.7.4-1 .4-1.1.4-1 .3-.9.3 1 .3 1.1.3 1.1.3 1 1.5 4.5zm30.9 0l.7-2.4.4-1.2.4-1.3.4-1.4.9-2.6.8 2.7.3 1.2.3.8 1.3 4.3z" fill="#fff"/></svg>