<svg version="1.1" id="圖層_1" xmlns="http://www.w3.org/2000/svg" x="0" y="0" viewBox="0 0 534.9 85.3" xml:space="preserve"><style>.st0{fill:#fff}</style><g id="horizontal_zh"><path class="st0" d="M193.5 35h15.4c-3.8 10.3-10.1 19.5-18.3 26.8l2.3 2.4c1.8-1.2 3.9-2.9 9.3-7.8v24.3h37.1V48.4h-29.8c2.7-4.2 4.9-8.6 6.5-13.3h25V31h-47.6v4zm38.8 18v23.3h-23.8V53h23.8zm103.8-24.5l-3.9.9c.8 1.7 1.6 3.4 2.2 5.2h-9.7V39h23.8v-4.4h-7.9c-1.3-2.1-2.8-4.2-4.5-6.1zm-8.7 14.8h18.7v4.3h-18.7zm-1.7 37.9H347v-19h-21.3v19zm7.2-14.5h7.3v11h-7.3v-11zm-5.5-14h18.7V57h-18.7zm39.8-7V29.6h-6.8v16.1h-10.8v4.7h10.8v30.7h6.8V50.4H378v-4.7zM133.7 70.1c.9-2.6 1.8-4.7 3.2-15.2H129c1.3-1.4 5.6-4.6 8.2-14.7h-12.9v3.7h6.5c-3 7.5-6 9.8-7.5 11.4v3.4h7.4c-1.1 9-3.7 14.6-7.6 19.6l2.4 2.6c2.2-1.7 4.1-3.8 5.8-6 4.2 5 11.5 6.7 21.5 6.7 14.3 0 22.4 0 24.8-.1l1-4c-1.4 0-9.2-.3-26.2-.3-7.1.1-13.9-2.3-18.7-7.1z"/><path class="st0" d="M137.4 67l3 2.8c4.4-5.3 6.2-12.8 6.5-23.7h4.1c-.1 4.5-.2 9.4-.4 12.9s-.4 8.7-.6 9.2c-.2.5-.5.9-1 1.1-.5.2-1.3.6-4 1.1l1 2.8c3-.1 5.3-.2 6.6-.8 1.1-.5 2.1-1.4 2.6-2.5s.8-4.8 1.2-10.1c.3-5.2.3-8.1.4-17h-9.7c.1-2.5.1-5.3.1-5.3h9.6v-3.8h-6c-1.1-2.2-2.4-4.3-3.9-6.2l-4 1c1 1.7 1.8 3.4 2.4 5.3h-7.4v3.7h3.7c0 8.9-.3 13.3-1.1 18.4-.7 4.3-1.2 7.4-3.1 11.1zm-2-31.5c-2.1-2.7-4.7-5.1-7.6-7l-2.6 1.7c2.1 2.3 4.1 4.9 5.8 7.5l4.4-2.2zm29 .9h13.9v-3.7h-11.8c.6-.9 1-1.9 1.4-2.9l-4.6-1.6c-1.8 4.1-3.4 6.7-5.7 9.2l2.4 1.9c1.7-.7 3.1-1.7 4.4-2.9zm7.9 17c0-3.1 3.3-4.5 4.9-11.6H161v3.5h8.8c-1 2.2-3.5 4.9-3.5 7.7v3h-7.5v3.4h7.5v9.8c0 .9-.5 1.1-1.6 1.4-1.5.4-3 .7-4.5.8l1.1 3c4 .1 6.9-.2 8.5-.8 1.6-.6 2.4-2.4 2.4-5.2v-9h6.7V56h-6.7l.1-2.6zm116.6-9c1.3-1.8 2.3-4.9 2.4-9.6h6.7v9.3c0 1.2.5 2.3 1.3 3.1.7.9 1.7 1.4 2.8 1.4l6.8.3.6-3.4c-1.4-.2-3.8-.5-4.5-1.1-.4-.3-.6-.7-.6-1.2V30.4H286v3.1c.2 6.7-1.5 9.7-6.2 13.1l2 2.6c3.1-1.2 5.7-2.8 7.1-4.8zm-29.8-1.1h17.8v4.3h-17.8zm-1.7 37.9h20.4v-19h-20.4v19zm6.5-14.5h7.3v11h-7.3v-11zm-4.8-14h17.8V57h-17.8zm40.5 19.8c5.2-5.6 8.2-13 8.2-20.7h-25.2V56h18.6c-.7 4.4-2.7 8.5-5.7 11.8-.3.3-.6.7-1 1-.9-.9-1.7-1.8-2.5-2.8-2-2.4-3.7-5-5.1-7.8l-4.9 2.4c1.9 3.5 3.1 5.9 5.9 8.9.9 1 1.8 1.9 2.8 2.7-3.2 2.5-7 4.3-10.9 5.3l1.5 3.4c5.2-.4 10.2-2.1 14.5-5.1 4.9 2.9 10 4.6 12.8 5.1l1.1-3c-3.7-1.1-7.3-2.8-10.4-5.1l.3-.3zm-32.6-44l-3.9.9c.8 1.7 1.6 3.4 2.2 5.2h-8.8V39h22.9v-4.4h-7.9c-1.2-2.1-2.8-4.2-4.5-6.1zM35.3 54.4L26 65.5c-2.6 3.1-7.3 3.5-10.4.9-3.1-2.6-3.5-7.3-.9-10.4l23.1-27.5H21.5L5.1 48c-7 8.5-5.7 21 2.7 27.9 8.3 6.9 20.7 5.8 27.7-2.4l9.3-11.1-9.5-8zm48.8 30.4l19.8-23.6-9.6-8-26.5 31.6z"/><radialGradient id="SVGID_1_" cx="-180.586" cy="80.607" r="16.43" gradientTransform="matrix(.6427 -.7662 -.9577 -.8033 257.09 -22.48)" gradientUnits="userSpaceOnUse"><stop offset="0" stop-color="#fff" stop-opacity=".5"/><stop offset=".15" stop-color="#fff" stop-opacity=".64"/><stop offset=".36" stop-color="#fff" stop-opacity=".79"/><stop offset=".55" stop-color="#fff" stop-opacity=".91"/><stop offset=".71" stop-color="#fff" stop-opacity=".98"/><stop offset=".83" stop-color="#fff"/></radialGradient><path d="M40 48.8l-2.2 2.6 9.6 8 2.2-2.6c2.6-3.1 7.2-3.5 10.4-.9 8.4 7 20.9 5.9 28-2.4l2.8-3.4-9.6-8-2.8 3.3c-2.6 3.1-7.2 3.5-10.4.9-8.5-7-21-5.9-28 2.5" fill="url(#SVGID_1_)"/><path class="st0" d="M67.9 46.3c-3.1-2.6-3.5-7.3-.9-10.4l2.8-3.4-9.6-8-2.8 3.4c-7 8.4-5.9 20.9 2.4 27.9 3.1 2.6 3.5 7.3.9 10.4L45.2 84.8h16.3l8.8-10.5c7.1-8.4 6-20.9-2.4-28"/></g></svg>